<svg width="72" height="72" viewBox="0 0 72 72" fill="none" xmlns="http://www.w3.org/2000/svg">
<circle cx="36" cy="36" r="36" fill="#CEFDDE"/>
<rect width="36" height="36" transform="translate(18 18)" fill="#CEFDDE"/>
<path d="M40.5 22.75C41.0523 22.75 41.5 22.3023 41.5 21.75C41.5 21.1977 41.0523 20.75 40.5 20.75V22.75ZM23.8369 23.8369L23.1298 23.1298L23.1298 23.1298L23.8369 23.8369ZM23.8369 48.1632L23.1297 48.8703L23.1298 48.8703L23.8369 48.1632ZM48.1632 48.1632L48.8703 48.8703L48.8703 48.8703L48.1632 48.1632ZM51.25 33C51.25 32.4477 50.8023 32 50.25 32C49.6977 32 49.25 32.4477 49.25 33H51.25ZM31.4571 32.2929C31.0666 31.9024 30.4334 31.9024 30.0429 32.2929C29.6524 32.6834 29.6524 33.3166 30.0429 33.7071L31.4571 32.2929ZM36 38.25L35.2929 38.9571C35.4869 39.1511 35.752 39.2569 36.0263 39.2497C36.3005 39.2424 36.5598 39.1229 36.7433 38.919L36 38.25ZM50.2436 23.919C50.6131 23.5085 50.5798 22.8762 50.1693 22.5067C49.7588 22.1372 49.1265 22.1705 48.757 22.581L50.2436 23.919ZM40.5 20.75H36V22.75H40.5V20.75ZM36 20.75C32.6695 20.75 30.0711 20.7479 28.0487 21.0198C25.9976 21.2955 24.39 21.8696 23.1298 23.1298L24.544 24.544C25.3706 23.7173 26.4858 23.2479 28.3152 23.0019C30.1733 22.7521 32.613 22.75 36 22.75V20.75ZM23.1298 23.1298C21.8696 24.39 21.2955 25.9976 21.0198 28.0487C20.7479 30.0711 20.75 32.6695 20.75 36H22.75C22.75 32.613 22.7521 30.1733 23.0019 28.3152C23.2479 26.4858 23.7173 25.3706 24.544 24.544L23.1298 23.1298ZM20.75 36C20.75 39.3305 20.7479 41.9289 21.0198 43.9513C21.2955 46.0024 21.8696 47.6101 23.1297 48.8703L24.544 47.4561C23.7173 46.6294 23.2479 45.5142 23.0019 43.6848C22.7521 41.8267 22.75 39.387 22.75 36H20.75ZM23.1298 48.8703C24.39 50.1305 25.9976 50.7045 28.0487 50.9802C30.0711 51.2521 32.6695 51.25 36 51.25V49.25C32.613 49.25 30.1733 49.2479 28.3152 48.9981C26.4858 48.7521 25.3706 48.2827 24.544 47.4561L23.1298 48.8703ZM36 51.25C39.3305 51.25 41.9289 51.2521 43.9513 50.9802C46.0024 50.7045 47.61 50.1305 48.8703 48.8703L47.4561 47.4561C46.6294 48.2827 45.5142 48.7521 43.6848 48.9981C41.8267 49.2479 39.387 49.25 36 49.25V51.25ZM48.8703 48.8703C50.1305 47.61 50.7045 46.0024 50.9802 43.9513C51.2521 41.9289 51.25 39.3305 51.25 36H49.25C49.25 39.387 49.2479 41.8267 48.9981 43.6848C48.7521 45.5142 48.2827 46.6294 47.4561 47.4561L48.8703 48.8703ZM51.25 36V33H49.25V36H51.25ZM30.0429 33.7071L35.2929 38.9571L36.7071 37.5429L31.4571 32.2929L30.0429 33.7071ZM36.7433 38.919L50.2436 23.919L48.757 22.581L35.2567 37.581L36.7433 38.919Z" fill="#03A01C"/>
</svg>
