<svg width="170" height="24" viewBox="0 0 170 24" fill="none" xmlns="http://www.w3.org/2000/svg">
<g id="Group 1321314362">
<g id="Group">
<path id="Vector" d="M4.10107 4.13676L4.10107 0.64209L0.606403 0.64209L0.606403 4.13676H4.10107Z" fill="#0B84FF"/>
<path id="Vector_2" d="M23.3569 4.14213V0.647461L19.8623 0.647461V4.14213H23.3569Z" fill="#0B84FF"/>
<path id="Vector_3" d="M14.3535 4.74277V0L9.61075 0V4.74277L14.3535 4.74277Z" fill="#0B84FF"/>
<path id="Vector_4" d="M4.74268 14.3897L4.74268 9.64697H-9.44138e-05L-9.44138e-05 14.3897H4.74268Z" fill="#0B84FF"/>
<path id="Vector_5" d="M24 14.3949V9.6521H19.2572V14.3949H24Z" fill="#0B84FF"/>
<path id="Vector_6" d="M14.3716 14.3714V9.62866H9.62881V14.3714H14.3716Z" fill="#0B84FF"/>
<path id="Vector_7" d="M4.09521 23.3943L4.09521 19.8997H0.600542L0.600542 23.3943H4.09521Z" fill="#0B84FF"/>
<path id="Vector_8" d="M23.3525 23.399V19.9043H19.8579V23.399H23.3525Z" fill="#0B84FF"/>
<path id="Vector_9" d="M14.3481 24.0001V19.2573H9.60537V24.0001H14.3481Z" fill="#0B84FF"/>
<path id="Vector_10" d="M21.3287 11.9998L12.0512 2.76383L2.81526 11.9998L2.06641 11.2509L12.0512 1.26611L22.0776 11.2509L21.3287 11.9998Z" fill="#0B84FF"/>
<path id="Vector_11" d="M21.2462 22.0265L11.9687 12.7905L2.73275 22.0265L1.98389 21.2776L11.9687 11.2512L21.995 21.2776L21.2462 22.0265Z" fill="#0B84FF"/>
</g>
<g id="Group_2">
<g id="Group_3">
<g id="Group_4">
<g id="Group_5">
<path id="Vector_12" d="M37.3643 17.013C38.1131 17.6371 39.0284 17.9283 40.1933 17.9283C41.2334 17.9283 42.0238 17.7203 42.6895 17.2626C43.3135 16.805 43.6464 16.1809 43.6464 15.3905C43.6464 14.808 43.48 14.3504 43.1055 14.0176C42.7727 13.6848 42.3151 13.4351 41.7742 13.2687C41.2334 13.1023 40.4845 12.9359 39.5277 12.7695C38.0299 12.5199 36.865 12.1038 35.9498 11.5214C35.0761 10.9389 34.6185 9.98206 34.6185 8.69236C34.6185 7.8603 34.8265 7.11144 35.2425 6.44579C35.6585 5.78013 36.2826 5.28089 37.0315 4.94807C37.7803 4.61524 38.6956 4.40723 39.6941 4.40723C40.7341 4.40723 41.691 4.61524 42.4815 4.98967C43.2719 5.3641 43.9376 5.90494 44.3952 6.6122C44.8529 7.31945 45.1441 8.10992 45.1857 8.98358H43.3552C43.2303 8.10992 42.8559 7.40266 42.1903 6.90342C41.5246 6.36258 40.6925 6.11296 39.6941 6.11296C38.6956 6.11296 37.9051 6.32098 37.3227 6.77861C36.7402 7.19464 36.449 7.81869 36.449 8.60915C36.449 9.1916 36.6154 9.60763 36.9482 9.94046C37.2811 10.2733 37.7387 10.4813 38.2796 10.6477C38.8204 10.8141 39.5693 10.9805 40.4845 11.147C41.9822 11.3966 43.1887 11.8126 44.0624 12.395C44.9777 12.9775 45.3937 13.9344 45.3937 15.2241C45.3937 16.0561 45.1857 16.8466 44.7281 17.5122C44.2704 18.1779 43.6464 18.7187 42.8559 19.0516C42.0655 19.426 41.1502 19.5924 40.1101 19.5924C38.9452 19.5924 37.9467 19.3844 37.0731 18.9684C36.1994 18.5523 35.5337 17.9699 35.0761 17.1794C34.6185 16.4306 34.3272 15.5569 34.2856 14.5584H36.1162C36.1994 15.5985 36.6154 16.389 37.3643 17.013Z" fill="#181D25"/>
<path id="Vector_13" d="M57.2918 13.3932V19.4673H55.5445V13.518C55.5445 12.3948 55.2948 11.5211 54.7956 10.9386C54.2964 10.3562 53.5475 10.065 52.5906 10.065C51.5922 10.065 50.8017 10.4394 50.1776 11.1467C49.5952 11.8539 49.304 12.8108 49.304 14.0589V19.5089H47.5566V4.53174H49.304V10.3562C49.6784 9.77375 50.136 9.31611 50.7185 8.98329C51.3009 8.60886 52.0498 8.44244 52.8819 8.44244C54.2132 8.44244 55.2532 8.85848 56.0853 9.64894C56.8758 10.4394 57.2918 11.6875 57.2918 13.3932Z" fill="#181D25"/>
<path id="Vector_14" d="M69.6893 19.4675H68.7324C68.0252 19.4675 67.5259 19.3427 67.2347 19.0515C66.9435 18.7603 66.7771 18.3442 66.7771 17.8034C65.945 19.0099 64.7385 19.6339 63.116 19.6339C61.9095 19.6339 60.9526 19.3427 60.2038 18.8019C59.4549 18.261 59.1221 17.4706 59.1221 16.4721C59.1221 15.3904 59.4965 14.5583 60.2454 13.9759C60.9942 13.3935 62.0759 13.1022 63.4904 13.1022H66.6939V12.3534C66.6939 11.6461 66.4442 11.1053 65.9866 10.6892C65.529 10.2732 64.8633 10.1068 63.9896 10.1068C63.2408 10.1068 62.6167 10.2732 62.1175 10.606C61.6183 10.9389 61.327 11.3965 61.2022 11.9373H59.4549C59.5797 10.8557 60.0373 10.0236 60.8694 9.44115C61.7015 8.85871 62.7415 8.52588 64.0729 8.52588C65.4458 8.52588 66.5274 8.8587 67.3179 9.52436C68.1084 10.19 68.4412 11.1885 68.4412 12.4366V17.1378C68.4412 17.6786 68.6908 17.9282 69.1485 17.9282H69.6893V19.4675ZM63.324 14.5167C61.7015 14.5167 60.911 15.1408 60.911 16.3473C60.911 16.8881 61.119 17.3042 61.5351 17.637C61.9511 17.9698 62.5335 18.1362 63.2824 18.1362C64.3641 18.1362 65.1961 17.845 65.7786 17.3042C66.4026 16.7633 66.6939 16.0145 66.6939 15.0576V14.5167H63.324Z" fill="#181D25"/>
<path id="Vector_15" d="M71.7704 7.36076C71.7704 6.40389 71.9784 5.69663 72.436 5.23899C72.8937 4.78136 73.6009 4.53174 74.5994 4.53174H76.5964V6.11266H74.6826C74.2666 6.11266 73.9338 6.19587 73.7673 6.40388C73.6009 6.5703 73.4761 6.90312 73.4761 7.31916V8.56725H76.5548V10.1482H73.4761V19.4257H71.7288V10.1898H69.7734V8.60886H71.7288V7.36076H71.7704Z" fill="#181D25"/>
<path id="Vector_16" d="M80.5893 4.53174H82.5862V6.11266H80.6725C80.2564 6.11266 79.9236 6.19587 79.7572 6.40388C79.5908 6.5703 79.466 6.90312 79.466 7.31916V8.56725H82.5446V10.1482H79.5076V19.4257H77.7603V7.36076C77.7603 6.40389 77.9683 5.69663 78.4259 5.23899C78.8835 4.78136 79.5908 4.53174 80.5893 4.53174Z" fill="#181D25"/>
<path id="Vector_17" d="M83.5436 16.9297C83.0859 16.0976 82.8779 15.1408 82.8779 14.0175C82.8779 12.9358 83.0859 11.9373 83.5436 11.1052C84.0012 10.2732 84.6253 9.60752 85.4573 9.14988C86.2894 8.69225 87.2047 8.44263 88.2447 8.44263C89.2848 8.44263 90.2417 8.69225 91.0322 9.14988C91.8642 9.60752 92.4883 10.2732 92.9459 11.1052C93.4036 11.9373 93.6116 12.8942 93.6116 14.0175C93.6116 15.0991 93.4036 16.0976 92.9459 16.9297C92.4883 17.7618 91.8642 18.4274 91.0322 18.885C90.2001 19.3427 89.2848 19.5923 88.2447 19.5923C87.2047 19.5923 86.2478 19.3427 85.4573 18.885C84.6253 18.4274 84.0012 17.7618 83.5436 16.9297ZM91.4066 16.0976C91.6978 15.4736 91.8642 14.8079 91.8642 14.0175C91.8642 13.2686 91.6978 12.5613 91.4066 11.9373C91.1154 11.3133 90.6993 10.8556 90.1585 10.5228C89.6177 10.19 88.9936 10.0236 88.2864 10.0236C87.5791 10.0236 86.955 10.19 86.4142 10.5228C85.8734 10.8556 85.4573 11.3549 85.1661 11.9373C84.8749 12.5197 84.7085 13.227 84.7085 14.0175C84.7085 14.7663 84.8749 15.4736 85.1661 16.0976C85.4573 16.7217 85.8734 17.1793 86.4142 17.5121C86.955 17.845 87.5791 18.0114 88.2864 18.0114C88.9936 18.0114 89.6177 17.845 90.1585 17.5121C90.6993 17.1793 91.1154 16.7217 91.4066 16.0976Z" fill="#181D25"/>
<path id="Vector_18" d="M96.2333 7.36076C96.2333 6.40389 96.4413 5.69663 96.8989 5.23899C97.3566 4.78136 98.0638 4.53174 99.0623 4.53174H101.059V6.11266H99.1455C98.7295 6.11266 98.3967 6.19587 98.2302 6.40388C98.0638 6.5703 97.939 6.90312 97.939 7.31916V8.56725H101.018V10.1482H97.939V19.4257H96.1917V10.1898H94.2363V8.60886H96.1917V7.36076H96.2333Z" fill="#181D25"/>
<path id="Vector_19" d="M117.117 19.4677H115.744C115.204 19.4677 114.746 19.3845 114.413 19.2181C114.08 19.0517 113.747 18.802 113.498 18.4276L113.331 18.2196C112.125 19.1349 110.71 19.5925 109.088 19.5925C107.715 19.5925 106.467 19.2597 105.385 18.594C104.304 17.9284 103.471 17.0547 102.847 15.8898C102.223 14.7249 101.932 13.4352 101.932 11.9791C101.932 10.523 102.223 9.2333 102.847 8.06841C103.471 6.90352 104.304 6.02985 105.385 5.3642C106.467 4.69855 107.715 4.36572 109.088 4.36572C110.461 4.36572 111.709 4.69855 112.791 5.3642C113.872 6.02985 114.704 6.90352 115.328 8.06841C115.952 9.2333 116.244 10.523 116.244 11.9791C116.244 12.9776 116.119 13.8929 115.828 14.7249C115.536 15.557 115.12 16.3475 114.621 17.0131C114.829 17.2627 115.037 17.4707 115.245 17.5956C115.453 17.7204 115.703 17.762 116.036 17.762H117.201V19.4677H117.117ZM111.834 16.2226C111.626 15.973 111.418 15.765 111.251 15.6402C111.085 15.5154 110.835 15.4738 110.544 15.4738H109.296V13.7681H110.835C111.334 13.7681 111.709 13.8513 112.042 14.0177C112.375 14.1841 112.666 14.4337 112.915 14.8081L113.373 15.4322C113.955 14.4753 114.288 13.3104 114.288 11.9791C114.288 10.8558 114.08 9.81575 113.623 8.94208C113.165 8.06841 112.583 7.36116 111.792 6.86192C111.002 6.36268 110.086 6.11306 109.088 6.11306C108.048 6.11306 107.174 6.36268 106.384 6.86192C105.593 7.36116 104.969 8.06841 104.553 8.94208C104.095 9.81575 103.887 10.8558 103.887 11.9791C103.887 13.1024 104.095 14.1425 104.553 15.0162C105.011 15.8898 105.593 16.5971 106.384 17.0963C107.174 17.5956 108.089 17.8452 109.088 17.8452C110.336 17.8452 111.376 17.4707 112.291 16.7219L111.834 16.2226Z" fill="#181D25"/>
<path id="Vector_20" d="M127.726 19.4676H126.229L125.979 18.0115C125.147 19.0515 123.982 19.5924 122.484 19.5924C121.195 19.5924 120.155 19.1764 119.364 18.3859C118.574 17.5954 118.199 16.3473 118.199 14.6416V8.60913H119.947V14.5584C119.947 15.6817 120.196 16.5554 120.695 17.1378C121.195 17.7202 121.902 18.0115 122.776 18.0115C123.774 18.0115 124.565 17.637 125.105 16.9298C125.646 16.2225 125.937 15.2657 125.937 14.0176V8.60913H127.685V19.4676H127.726Z" fill="#181D25"/>
<path id="Vector_21" d="M135.631 10.3147H134.758C133.718 10.3147 132.969 10.6475 132.511 11.3548C132.053 12.0621 131.845 12.8941 131.845 13.9342V19.4674H130.098V8.60899H131.596L131.845 10.2315C132.178 9.73227 132.553 9.31624 133.052 9.02502C133.551 8.7338 134.258 8.56738 135.132 8.56738H135.631V10.3147Z" fill="#181D25"/>
<path id="Vector_22" d="M139.209 5.53051C139.209 5.86334 139.085 6.11296 138.877 6.32098C138.669 6.52899 138.377 6.6538 138.086 6.6538C137.795 6.6538 137.504 6.52899 137.296 6.32098C137.088 6.11296 136.963 5.82174 136.963 5.53051C136.963 5.23929 137.088 4.94807 137.296 4.74005C137.504 4.53204 137.795 4.40723 138.086 4.40723C138.377 4.40723 138.669 4.53204 138.877 4.74005C139.126 4.94807 139.209 5.19769 139.209 5.53051ZM138.96 8.60916V19.4676H137.213V8.60916H138.96Z" fill="#181D25"/>
<path id="Vector_23" d="M143.119 4.53174V19.4673H141.372V4.53174H143.119Z" fill="#181D25"/>
<path id="Vector_24" d="M147.488 5.53051C147.488 5.86334 147.363 6.11296 147.155 6.32098C146.947 6.52899 146.656 6.6538 146.365 6.6538C146.073 6.6538 145.782 6.52899 145.574 6.32098C145.366 6.11296 145.241 5.82174 145.241 5.53051C145.241 5.23929 145.366 4.94807 145.574 4.74005C145.782 4.53204 146.073 4.40723 146.365 4.40723C146.656 4.40723 146.947 4.53204 147.155 4.74005C147.405 4.94807 147.488 5.19769 147.488 5.53051ZM147.238 8.60916V19.4676H145.491V8.60916H147.238Z" fill="#181D25"/>
<path id="Vector_25" d="M151.856 17.4705C152.397 17.8866 153.104 18.0946 153.978 18.0946C154.727 18.0946 155.351 17.9282 155.85 17.6369C156.308 17.3457 156.557 16.9297 156.557 16.4305C156.557 16.0144 156.432 15.6816 156.224 15.432C156.016 15.224 155.683 15.0575 155.351 14.9743C154.976 14.8911 154.477 14.8079 153.811 14.7247C152.854 14.5999 152.106 14.4751 151.523 14.2671C150.941 14.0591 150.441 13.7678 150.067 13.3934C149.693 12.9774 149.526 12.4365 149.526 11.7293C149.526 11.1052 149.693 10.5228 150.067 10.0236C150.441 9.52431 150.941 9.14988 151.565 8.85866C152.189 8.56744 152.896 8.44263 153.686 8.44263C154.976 8.44263 156.016 8.73385 156.807 9.3579C157.597 9.94034 158.055 10.814 158.138 11.8957H156.391C156.307 11.3133 156.058 10.8556 155.559 10.4812C155.059 10.1068 154.477 9.94034 153.728 9.94034C152.979 9.94034 152.397 10.1068 151.939 10.398C151.482 10.6892 151.274 11.1052 151.274 11.6045C151.274 11.9789 151.398 12.2701 151.606 12.4365C151.814 12.603 152.106 12.7694 152.438 12.8526C152.771 12.9358 153.27 13.019 153.978 13.1022C154.935 13.227 155.725 13.3518 156.349 13.5598C156.973 13.7678 157.472 14.0591 157.847 14.5167C158.221 14.9743 158.429 15.5568 158.429 16.3056C158.429 16.9713 158.221 17.5537 157.847 18.053C157.472 18.5522 156.932 18.9266 156.308 19.2179C155.683 19.5091 154.935 19.6339 154.144 19.6339C152.73 19.6339 151.565 19.3011 150.733 18.6354C149.859 17.9698 149.443 17.0545 149.401 15.8896H151.149C151.024 16.5553 151.315 17.0545 151.856 17.4705Z" fill="#181D25"/>
<path id="Vector_26" d="M169.995 13.3932V19.4673H168.248V13.518C168.248 12.3948 167.998 11.5211 167.499 10.9386C167 10.3562 166.251 10.065 165.294 10.065C164.296 10.065 163.505 10.4394 162.881 11.1467C162.299 11.8539 162.008 12.8108 162.008 14.0589V19.5089H160.26V4.53174H162.008V10.3562C162.382 9.77375 162.84 9.31611 163.422 8.98329C164.005 8.60886 164.753 8.44244 165.585 8.44244C166.917 8.44244 167.957 8.85848 168.789 9.64894C169.621 10.4394 169.995 11.6875 169.995 13.3932Z" fill="#181D25"/>
</g>
</g>
</g>
</g>
</g>
</svg>
