<svg width="205" height="68" viewBox="0 0 205 68" fill="none" xmlns="http://www.w3.org/2000/svg">
<g id="Mobile app store badge">
<rect x="0.890039" y="0.85" width="202.3" height="66.3" rx="11.05" stroke="url(#paint0_linear_1421_8826)" stroke-width="1.7"/>
<g id="App Store">
<path d="M138.634 32.6416V36.5363H136.192V39.0905H138.634V47.769C138.634 50.7323 139.974 51.9177 143.347 51.9177C143.94 51.9177 144.504 51.8471 144.998 51.7625V49.2365C144.575 49.2789 144.306 49.3071 143.841 49.3071C142.331 49.3071 141.668 48.6015 141.668 46.9928V39.0905H144.998V36.5363H141.668V32.6416H138.634Z" fill="url(#paint1_linear_1421_8826)"/>
<path d="M153.589 52.1294C158.077 52.1294 160.829 49.1236 160.829 44.1423C160.829 39.1893 158.063 36.1694 153.589 36.1694C149.102 36.1694 146.336 39.1893 146.336 44.1423C146.336 49.1236 149.088 52.1294 153.589 52.1294ZM153.589 49.4341C150.951 49.4341 149.469 47.5008 149.469 44.1423C149.469 40.8121 150.951 38.8647 153.589 38.8647C156.214 38.8647 157.71 40.8121 157.71 44.1423C157.71 47.4867 156.214 49.4341 153.589 49.4341Z" fill="url(#paint2_linear_1421_8826)"/>
<path d="M163.183 51.833H166.217V42.7594C166.217 40.6004 167.84 39.1469 170.14 39.1469C170.676 39.1469 171.579 39.2457 171.833 39.3304V36.3388C171.509 36.2541 170.93 36.2118 170.478 36.2118C168.475 36.2118 166.767 37.3125 166.33 38.8224H166.104V36.4658H163.183V51.833Z" fill="url(#paint3_linear_1421_8826)"/>
<path d="M179.366 38.7518C181.61 38.7518 183.078 40.3182 183.148 42.7312H175.387C175.556 40.3323 177.123 38.7518 179.366 38.7518ZM183.134 47.6843C182.57 48.8837 181.314 49.547 179.479 49.547C177.052 49.547 175.486 47.8395 175.387 45.1442V44.9749H186.238V43.9166C186.238 39.0905 183.656 36.1694 179.38 36.1694C175.048 36.1694 172.297 39.288 172.297 44.1988C172.297 49.1095 174.992 52.1294 179.395 52.1294C182.908 52.1294 185.364 50.436 186.055 47.6843H183.134Z" fill="url(#paint4_linear_1421_8826)"/>
<path d="M118.738 46.1581C118.972 49.9316 122.116 52.3449 126.796 52.3449C131.799 52.3449 134.929 49.8146 134.929 45.7779C134.929 42.604 133.144 40.8489 128.815 39.8397L126.489 39.2693C123.74 38.6258 122.628 37.7628 122.628 36.2563C122.628 34.355 124.354 33.1118 126.943 33.1118C129.4 33.1118 131.097 34.3257 131.404 36.271H134.592C134.402 32.7169 131.272 30.2158 126.987 30.2158C122.379 30.2158 119.308 32.7169 119.308 36.4757C119.308 39.5764 121.048 41.4193 124.866 42.3115L127.586 42.9697C130.38 43.6278 131.608 44.5932 131.608 46.202C131.608 48.0741 129.678 49.4344 127.045 49.4344C124.222 49.4344 122.262 48.1619 121.985 46.1581H118.738Z" fill="url(#paint5_linear_1421_8826)"/>
<path d="M87.3091 36.2118C85.2206 36.2118 83.4144 37.256 82.483 39.0058H82.2572V36.4658H79.3362V56.9413H82.3701V49.5046H82.61C83.4144 51.1274 85.1501 52.087 87.3373 52.087C91.2179 52.087 93.6874 49.0249 93.6874 44.1423C93.6874 39.2598 91.2179 36.2118 87.3091 36.2118ZM86.4483 49.3635C83.9083 49.3635 82.3137 47.3597 82.3137 44.1565C82.3137 40.9391 83.9083 38.9353 86.4624 38.9353C89.0307 38.9353 90.5688 40.8967 90.5688 44.1423C90.5688 47.4021 89.0307 49.3635 86.4483 49.3635Z" fill="url(#paint6_linear_1421_8826)"/>
<path d="M104.304 36.2118C102.215 36.2118 100.409 37.256 99.4776 39.0058H99.2518V36.4658H96.3307V56.9413H99.3647V49.5046H99.6046C100.409 51.1274 102.145 52.087 104.332 52.087C108.212 52.087 110.682 49.0249 110.682 44.1423C110.682 39.2598 108.212 36.2118 104.304 36.2118ZM103.443 49.3635C100.903 49.3635 99.3082 47.3597 99.3082 44.1565C99.3082 40.9391 100.903 38.9353 103.457 38.9353C106.025 38.9353 107.563 40.8967 107.563 44.1423C107.563 47.4021 106.025 49.3635 103.443 49.3635Z" fill="url(#paint7_linear_1421_8826)"/>
<path d="M73.8928 51.833H77.3738L69.7536 30.7277H66.2288L58.6086 51.833H61.9726L63.9179 46.2313H71.9622L73.8928 51.833ZM67.823 34.5597H68.0716L71.1285 43.4816H64.7516L67.823 34.5597Z" fill="url(#paint8_linear_1421_8826)"/>
</g>
<g id="Download on the">
<path d="M60.6472 14.8085V24.9898H64.3232C67.3572 24.9898 69.114 23.1201 69.114 19.8674C69.114 16.6641 67.343 14.8085 64.3232 14.8085H60.6472ZM62.2277 16.2479H64.1468C66.2565 16.2479 67.5053 17.5884 67.5053 19.8886C67.5053 22.224 66.2776 23.5505 64.1468 23.5505H62.2277V16.2479Z" fill="url(#paint9_linear_1421_8826)"/>
<path d="M74.4947 25.138C76.7384 25.138 78.1142 23.6351 78.1142 21.1445C78.1142 18.668 76.7313 17.158 74.4947 17.158C72.251 17.158 70.8681 18.668 70.8681 21.1445C70.8681 23.6351 72.2439 25.138 74.4947 25.138ZM74.4947 23.7904C73.1753 23.7904 72.4344 22.8237 72.4344 21.1445C72.4344 19.4794 73.1753 18.5057 74.4947 18.5057C75.807 18.5057 76.5549 19.4794 76.5549 21.1445C76.5549 22.8167 75.807 23.7904 74.4947 23.7904Z" fill="url(#paint10_linear_1421_8826)"/>
<path d="M89.8309 17.3062H88.3139L86.9451 23.1695H86.8251L85.2447 17.3062H83.7912L82.2107 23.1695H82.0978L80.722 17.3062H79.1839L81.3006 24.9898H82.8599L84.4403 19.3312H84.5603L86.1478 24.9898H87.7212L89.8309 17.3062Z" fill="url(#paint11_linear_1421_8826)"/>
<path d="M91.5778 24.9898H93.0948V20.4954C93.0948 19.2959 93.8074 18.548 94.9293 18.548C96.0511 18.548 96.5874 19.1619 96.5874 20.3966V24.9898H98.1043V20.0156C98.1043 18.1882 97.1589 17.158 95.4443 17.158C94.2872 17.158 93.5252 17.6731 93.1512 18.5268H93.0384V17.3062H91.5778V24.9898Z" fill="url(#paint12_linear_1421_8826)"/>
<path d="M100.493 24.9898H102.01V14.3076H100.493V24.9898Z" fill="url(#paint13_linear_1421_8826)"/>
<path d="M107.716 25.138C109.959 25.138 111.335 23.6351 111.335 21.1445C111.335 18.668 109.952 17.158 107.716 17.158C105.472 17.158 104.089 18.668 104.089 21.1445C104.089 23.6351 105.465 25.138 107.716 25.138ZM107.716 23.7904C106.396 23.7904 105.655 22.8237 105.655 21.1445C105.655 19.4794 106.396 18.5057 107.716 18.5057C109.028 18.5057 109.776 19.4794 109.776 21.1445C109.776 22.8167 109.028 23.7904 107.716 23.7904Z" fill="url(#paint14_linear_1421_8826)"/>
<path d="M115.855 23.8398C115.029 23.8398 114.43 23.4376 114.43 22.7461C114.43 22.0688 114.91 21.7089 115.968 21.6384L117.845 21.5184V22.1605C117.845 23.113 116.998 23.8398 115.855 23.8398ZM115.467 25.1168C116.476 25.1168 117.315 24.6794 117.774 23.9103H117.894V24.9898H119.355V19.7404C119.355 18.1176 118.268 17.158 116.342 17.158C114.599 17.158 113.357 18.0047 113.202 19.3241H114.67C114.839 18.7808 115.425 18.4704 116.271 18.4704C117.308 18.4704 117.845 18.929 117.845 19.7404V20.4037L115.763 20.5236C113.936 20.6365 112.906 21.4338 112.906 22.8167C112.906 24.2208 113.985 25.1168 115.467 25.1168Z" fill="url(#paint15_linear_1421_8826)"/>
<path d="M124.502 25.1168C125.561 25.1168 126.457 24.6159 126.915 23.7763H127.035V24.9898H128.489V14.3076H126.972V18.5268H126.859C126.443 17.6802 125.554 17.1792 124.502 17.1792C122.562 17.1792 121.313 18.7173 121.313 21.1445C121.313 23.5787 122.548 25.1168 124.502 25.1168ZM124.933 18.541C126.203 18.541 127 19.5499 127 21.1516C127 22.7602 126.21 23.7551 124.933 23.7551C123.649 23.7551 122.88 22.7744 122.88 21.1445C122.88 19.5287 123.656 18.541 124.933 18.541Z" fill="url(#paint16_linear_1421_8826)"/>
<path d="M138.326 25.138C140.57 25.138 141.945 23.6351 141.945 21.1445C141.945 18.668 140.562 17.158 138.326 17.158C136.082 17.158 134.699 18.668 134.699 21.1445C134.699 23.6351 136.075 25.138 138.326 25.138ZM138.326 23.7904C137.006 23.7904 136.266 22.8237 136.266 21.1445C136.266 19.4794 137.006 18.5057 138.326 18.5057C139.638 18.5057 140.386 19.4794 140.386 21.1445C140.386 22.8167 139.638 23.7904 138.326 23.7904Z" fill="url(#paint17_linear_1421_8826)"/>
<path d="M143.953 24.9898H145.47V20.4954C145.47 19.2959 146.183 18.548 147.305 18.548C148.427 18.548 148.963 19.1619 148.963 20.3966V24.9898H150.48V20.0156C150.48 18.1882 149.534 17.158 147.82 17.158C146.663 17.158 145.901 17.6731 145.527 18.5268H145.414V17.3062H143.953V24.9898Z" fill="url(#paint18_linear_1421_8826)"/>
<path d="M157.466 15.3941V17.3415H156.246V18.6186H157.466V22.9578C157.466 24.4395 158.137 25.0322 159.823 25.0322C160.119 25.0322 160.402 24.9969 160.649 24.9546V23.6916C160.437 23.7128 160.303 23.7269 160.07 23.7269C159.315 23.7269 158.983 23.3741 158.983 22.5697V18.6186H160.649V17.3415H158.983V15.3941H157.466Z" fill="url(#paint19_linear_1421_8826)"/>
<path d="M162.685 24.9898H164.202V20.5024C164.202 19.3382 164.893 18.5551 166.135 18.5551C167.207 18.5551 167.779 19.176 167.779 20.4037V24.9898H169.296V20.0297C169.296 18.2023 168.287 17.1651 166.65 17.1651C165.493 17.1651 164.682 17.6802 164.308 18.541H164.188V14.3076H162.685V24.9898Z" fill="url(#paint20_linear_1421_8826)"/>
<path d="M174.768 18.4492C175.89 18.4492 176.624 19.2324 176.659 20.4389H172.779C172.863 19.2395 173.646 18.4492 174.768 18.4492ZM176.652 22.9155C176.37 23.5152 175.742 23.8468 174.825 23.8468C173.611 23.8468 172.828 22.9931 172.779 21.6454V21.5608H178.204V21.0316C178.204 18.6186 176.913 17.158 174.775 17.158C172.609 17.158 171.233 18.7173 171.233 21.1727C171.233 23.6281 172.581 25.138 174.782 25.138C176.539 25.138 177.767 24.2913 178.113 22.9155H176.652Z" fill="url(#paint21_linear_1421_8826)"/>
</g>
<g id="Apple logo">
<path d="M42.1474 34.5115C42.1842 31.6538 43.7189 28.9498 46.1535 27.453C44.6176 25.2595 42.045 23.8687 39.3686 23.7849C36.5138 23.4853 33.7463 25.4932 32.2916 25.4932C30.8088 25.4932 28.569 23.8147 26.1572 23.8643C23.0134 23.9659 20.0827 25.7532 18.5532 28.5017C15.2654 34.194 17.7178 42.5598 20.8672 47.161C22.443 49.4141 24.2846 51.9309 26.6942 51.8416C29.0522 51.7438 29.9329 50.338 32.7792 50.338C35.5991 50.338 36.4253 51.8416 38.8839 51.7849C41.4141 51.7438 43.0083 49.5218 44.5288 47.2474C45.6609 45.6419 46.5321 43.8676 47.1101 41.9901C44.1366 40.7324 42.1508 37.74 42.1474 34.5115Z" fill="url(#paint22_linear_1421_8826)"/>
<path d="M37.5035 20.7589C38.8831 19.1028 39.5628 16.9741 39.3982 14.8249C37.2905 15.0463 35.3436 16.0536 33.9453 17.6462C32.5781 19.2023 31.8665 21.2935 32.001 23.3606C34.1095 23.3823 36.1823 22.4023 37.5035 20.7589Z" fill="url(#paint23_linear_1421_8826)"/>
</g>
</g>
<defs>
<linearGradient id="paint0_linear_1421_8826" x1="0.0400391" y1="34" x2="204.04" y2="34" gradientUnits="userSpaceOnUse">
<stop stop-color="#E2C881"/>
<stop offset="1" stop-color="#8B6F2A"/>
</linearGradient>
<linearGradient id="paint1_linear_1421_8826" x1="58.6086" y1="43.5786" x2="186.238" y2="43.5786" gradientUnits="userSpaceOnUse">
<stop stop-color="#E2C881"/>
<stop offset="1" stop-color="#8B6F2A"/>
</linearGradient>
<linearGradient id="paint2_linear_1421_8826" x1="58.6086" y1="43.5786" x2="186.238" y2="43.5786" gradientUnits="userSpaceOnUse">
<stop stop-color="#E2C881"/>
<stop offset="1" stop-color="#8B6F2A"/>
</linearGradient>
<linearGradient id="paint3_linear_1421_8826" x1="58.6086" y1="43.5786" x2="186.238" y2="43.5786" gradientUnits="userSpaceOnUse">
<stop stop-color="#E2C881"/>
<stop offset="1" stop-color="#8B6F2A"/>
</linearGradient>
<linearGradient id="paint4_linear_1421_8826" x1="58.6086" y1="43.5786" x2="186.238" y2="43.5786" gradientUnits="userSpaceOnUse">
<stop stop-color="#E2C881"/>
<stop offset="1" stop-color="#8B6F2A"/>
</linearGradient>
<linearGradient id="paint5_linear_1421_8826" x1="58.6086" y1="43.5786" x2="186.238" y2="43.5786" gradientUnits="userSpaceOnUse">
<stop stop-color="#E2C881"/>
<stop offset="1" stop-color="#8B6F2A"/>
</linearGradient>
<linearGradient id="paint6_linear_1421_8826" x1="58.6086" y1="43.5786" x2="186.238" y2="43.5786" gradientUnits="userSpaceOnUse">
<stop stop-color="#E2C881"/>
<stop offset="1" stop-color="#8B6F2A"/>
</linearGradient>
<linearGradient id="paint7_linear_1421_8826" x1="58.6086" y1="43.5786" x2="186.238" y2="43.5786" gradientUnits="userSpaceOnUse">
<stop stop-color="#E2C881"/>
<stop offset="1" stop-color="#8B6F2A"/>
</linearGradient>
<linearGradient id="paint8_linear_1421_8826" x1="58.6086" y1="43.5786" x2="186.238" y2="43.5786" gradientUnits="userSpaceOnUse">
<stop stop-color="#E2C881"/>
<stop offset="1" stop-color="#8B6F2A"/>
</linearGradient>
<linearGradient id="paint9_linear_1421_8826" x1="60.6472" y1="19.7228" x2="178.204" y2="19.7228" gradientUnits="userSpaceOnUse">
<stop stop-color="#E2C881"/>
<stop offset="1" stop-color="#8B6F2A"/>
</linearGradient>
<linearGradient id="paint10_linear_1421_8826" x1="60.6472" y1="19.7228" x2="178.204" y2="19.7228" gradientUnits="userSpaceOnUse">
<stop stop-color="#E2C881"/>
<stop offset="1" stop-color="#8B6F2A"/>
</linearGradient>
<linearGradient id="paint11_linear_1421_8826" x1="60.6472" y1="19.7228" x2="178.204" y2="19.7228" gradientUnits="userSpaceOnUse">
<stop stop-color="#E2C881"/>
<stop offset="1" stop-color="#8B6F2A"/>
</linearGradient>
<linearGradient id="paint12_linear_1421_8826" x1="60.6472" y1="19.7228" x2="178.204" y2="19.7228" gradientUnits="userSpaceOnUse">
<stop stop-color="#E2C881"/>
<stop offset="1" stop-color="#8B6F2A"/>
</linearGradient>
<linearGradient id="paint13_linear_1421_8826" x1="60.6472" y1="19.7228" x2="178.204" y2="19.7228" gradientUnits="userSpaceOnUse">
<stop stop-color="#E2C881"/>
<stop offset="1" stop-color="#8B6F2A"/>
</linearGradient>
<linearGradient id="paint14_linear_1421_8826" x1="60.6472" y1="19.7228" x2="178.204" y2="19.7228" gradientUnits="userSpaceOnUse">
<stop stop-color="#E2C881"/>
<stop offset="1" stop-color="#8B6F2A"/>
</linearGradient>
<linearGradient id="paint15_linear_1421_8826" x1="60.6472" y1="19.7228" x2="178.204" y2="19.7228" gradientUnits="userSpaceOnUse">
<stop stop-color="#E2C881"/>
<stop offset="1" stop-color="#8B6F2A"/>
</linearGradient>
<linearGradient id="paint16_linear_1421_8826" x1="60.6472" y1="19.7228" x2="178.204" y2="19.7228" gradientUnits="userSpaceOnUse">
<stop stop-color="#E2C881"/>
<stop offset="1" stop-color="#8B6F2A"/>
</linearGradient>
<linearGradient id="paint17_linear_1421_8826" x1="60.6472" y1="19.7228" x2="178.204" y2="19.7228" gradientUnits="userSpaceOnUse">
<stop stop-color="#E2C881"/>
<stop offset="1" stop-color="#8B6F2A"/>
</linearGradient>
<linearGradient id="paint18_linear_1421_8826" x1="60.6472" y1="19.7228" x2="178.204" y2="19.7228" gradientUnits="userSpaceOnUse">
<stop stop-color="#E2C881"/>
<stop offset="1" stop-color="#8B6F2A"/>
</linearGradient>
<linearGradient id="paint19_linear_1421_8826" x1="60.6472" y1="19.7228" x2="178.204" y2="19.7228" gradientUnits="userSpaceOnUse">
<stop stop-color="#E2C881"/>
<stop offset="1" stop-color="#8B6F2A"/>
</linearGradient>
<linearGradient id="paint20_linear_1421_8826" x1="60.6472" y1="19.7228" x2="178.204" y2="19.7228" gradientUnits="userSpaceOnUse">
<stop stop-color="#E2C881"/>
<stop offset="1" stop-color="#8B6F2A"/>
</linearGradient>
<linearGradient id="paint21_linear_1421_8826" x1="60.6472" y1="19.7228" x2="178.204" y2="19.7228" gradientUnits="userSpaceOnUse">
<stop stop-color="#E2C881"/>
<stop offset="1" stop-color="#8B6F2A"/>
</linearGradient>
<linearGradient id="paint22_linear_1421_8826" x1="16.9919" y1="33.3344" x2="47.1101" y2="33.3344" gradientUnits="userSpaceOnUse">
<stop stop-color="#E2C881"/>
<stop offset="1" stop-color="#8B6F2A"/>
</linearGradient>
<linearGradient id="paint23_linear_1421_8826" x1="16.9919" y1="33.3344" x2="47.1101" y2="33.3344" gradientUnits="userSpaceOnUse">
<stop stop-color="#E2C881"/>
<stop offset="1" stop-color="#8B6F2A"/>
</linearGradient>
</defs>
</svg>
