<svg width="28" height="28" viewBox="0 0 28 28" fill="none" xmlns="http://www.w3.org/2000/svg">
<g id="big-sale 1" clip-path="url(#clip0_540_558)">
<g id="Group">
<path id="Vector" d="M20.9254 1.92653L20.0761 2.06489L19.9286 1.3807C18.1412 0.497273 16.1289 0 14.0001 0C13.4941 0 12.9951 0.0290391 12.5037 0.0836172L11.8653 0.574328L11.3132 0.269609C5.20105 1.51386 0.601562 6.91901 0.601562 13.3985C0.601562 16.0649 1.38059 18.5492 2.72316 20.6366H25.2771C26.6196 18.5492 27.3987 16.0649 27.3987 13.3985C27.3987 8.53316 24.8052 4.27366 20.9254 1.92653Z" fill="#FC51A3"/>
<path id="Vector_2" d="M26.7465 21.4837L25.164 16.7454L17.1458 16.5786L15.9031 27.4451L25.3445 24.2918C26.5071 23.9035 27.1348 22.6462 26.7465 21.4837Z" fill="#27A6FF"/>
<path id="Vector_3" d="M19.6105 3.82622L19.5114 3.0647L18.7317 3.10757C18.6472 3.21815 18.5625 3.32747 18.4775 3.434C17.4713 4.69466 16.4495 5.65191 15.5224 6.20234C14.9285 6.55491 14.0782 6.91142 13.3997 6.60741L12.9434 6.94592L12.9358 7.64286C14.637 8.40499 16.9801 7.12885 19.3642 4.14177C19.4466 4.03852 19.5286 3.93297 19.6105 3.82622Z" fill="#3F57A0"/>
<path id="Vector_4" d="M19.9286 1.38062C19.5408 1.99476 19.1395 2.57373 18.7317 3.10732C18.751 3.42833 18.8943 3.92708 19.6105 3.82602C20.0596 3.24043 20.5007 2.60294 20.9254 1.92645C20.6019 1.73078 20.2692 1.54894 19.9286 1.38062Z" fill="#5071B7"/>
<path id="Vector_5" d="M22.7943 9.65007C21.52 5.83458 17.6463 3.61974 13.8005 4.31629L18.1023 8.4493L19.112 17.713C19.112 17.713 22.7818 19.2248 25.1641 16.7454L22.7943 9.65007Z" fill="#02C0FC"/>
<path id="Vector_6" d="M18.4741 14.4309L18.1951 15.3835L21.1473 14.4031C21.4389 14.3063 21.5968 13.9914 21.5 13.6998C21.4031 13.4082 21.0883 13.2503 20.7967 13.3471L18.566 14.0878C18.5378 14.2023 18.5075 14.3167 18.4741 14.4309Z" fill="#BBF0F9"/>
<path id="Vector_7" d="M23.0755 18.4447C22.9786 18.1531 22.6638 17.9951 22.3722 18.092L16.8661 19.9203L16.4856 21.2191L22.7229 19.148C23.0144 19.0512 23.1723 18.7363 23.0755 18.4447Z" fill="#93E4FA"/>
<path id="Vector_8" d="M23.8633 20.817C23.7664 20.5254 23.4516 20.3674 23.16 20.4643L16.0113 22.838L15.6309 24.1368L23.5106 21.5204C23.8022 21.4235 23.9601 21.1086 23.8633 20.817Z" fill="#93E4FA"/>
<path id="Vector_9" d="M21.5844 15.7194L17.7208 17.0023L17.3403 18.3011L21.9351 16.7755C22.2267 16.6786 22.3846 16.3637 22.2877 16.0721C22.1909 15.7805 21.876 15.6226 21.5844 15.7194Z" fill="#BBF0F9"/>
<path id="Vector_10" d="M14.6513 4.51598C10.4161 3.27534 5.97697 5.70292 4.73633 9.93814L1.229 21.9113C0.884414 23.0875 1.55866 24.3205 2.73493 24.665L5.56473 25.4939L12.0645 8.12465C11.9593 7.79849 11.9474 7.43854 12.051 7.08487C12.3259 6.14633 13.3096 5.60837 14.2482 5.88328C14.3434 5.91117 14.4342 5.94672 14.5208 5.98839L15.7011 5.69209L15.7801 4.94047C15.4204 4.7734 15.0436 4.63088 14.6513 4.51598Z" fill="#FFDA4C"/>
<path id="Vector_11" d="M12.5036 0.0834961C12.1012 0.12823 11.704 0.189973 11.3131 0.269488C11.1367 1.23445 11.0374 2.15052 11.0227 2.98981C10.9684 6.10273 12.0331 7.23821 12.9358 7.64257C13.2217 7.77064 13.5573 7.64268 13.6854 7.35677C13.8135 7.07086 13.6855 6.73519 13.3996 6.60711C12.5766 6.23841 12.1238 4.92722 12.1572 3.00966C12.1728 2.11804 12.2917 1.12994 12.5036 0.0834961Z" fill="#5071B7"/>
<path id="Vector_12" d="M15.7801 4.94043C14.9677 5.01809 14.6467 5.58088 14.5208 5.98841C15.2873 6.35771 15.6968 7.23714 15.4498 8.08048C15.1748 9.01902 14.1911 9.55698 13.2526 9.28207C12.6676 9.11073 12.2384 8.66405 12.0645 8.12461C10.1212 8.31033 8.47267 9.68763 7.91633 11.5871L4.73773 22.4398C4.40813 23.5651 4.7619 24.7345 5.56466 25.4939L13.8124 27.9099C14.9886 28.2545 16.2216 27.5803 16.5661 26.404L20.0734 14.4309C21.1992 10.588 19.3047 6.57734 15.7801 4.94043Z" fill="#FEF156"/>
<g id="Group_2">
<path id="Vector_13" d="M11.1122 16.0542L12.1088 12.6519C12.1725 12.4344 12.0478 12.2066 11.8304 12.1429C11.6127 12.0791 11.3852 12.2039 11.3215 12.4212L10.325 15.8236C10.2613 16.041 10.3859 16.2688 10.6033 16.3325C10.6418 16.3438 10.6806 16.3492 10.7188 16.3492C10.8963 16.3491 11.0598 16.233 11.1122 16.0542Z" fill="#FD77A6"/>
<path id="Vector_14" d="M7.19349 15.3338C7.1936 15.3338 8.10333 15.5959 8.3538 15.6693C8.48089 15.7065 8.61039 15.7249 8.73923 15.7249C8.96504 15.7249 9.18849 15.6683 9.39209 15.557C9.71185 15.3821 9.94433 15.0932 10.0468 14.7434C10.1492 14.3937 10.1094 14.0249 9.93443 13.7052C9.90588 13.6531 9.87329 13.6042 9.83894 13.5568C10.0238 13.4058 10.1671 13.2002 10.2391 12.9543C10.3312 12.64 10.2953 12.3087 10.1381 12.0214C9.98102 11.7341 9.72142 11.5253 9.40719 11.4332L8.41887 11.1438C8.20133 11.0796 7.97361 11.2047 7.91001 11.4221L7.45118 12.9887L6.91355 14.8244C6.88281 14.9291 6.89517 15.0417 6.94773 15.1373C7.00017 15.2329 7.08866 15.3036 7.19349 15.3338ZM9.25948 14.5127C9.25948 14.5127 9.25948 14.5128 9.25942 14.5128C9.21862 14.6523 9.12593 14.7675 8.9984 14.8373C8.87092 14.9069 8.72392 14.9229 8.58441 14.882C8.44376 14.8408 8.09556 14.7402 7.81644 14.6597L8.1228 13.6138C8.20182 13.6366 8.28489 13.6607 8.36446 13.6836L8.89028 13.8376C9.17816 13.922 9.3438 14.2248 9.25948 14.5127ZM8.58184 12.0462L9.17652 12.2204C9.39116 12.2832 9.5147 12.509 9.45181 12.7236C9.38892 12.9384 9.1629 13.0615 8.94852 12.9989C8.87634 12.9778 8.74066 12.9385 8.59245 12.8956L8.35358 12.8257L8.58184 12.0462Z" fill="#FD77A6"/>
<path id="Vector_15" d="M12.3249 16.1704C12.6046 16.6819 13.0668 17.0539 13.6264 17.2177C13.8141 17.2728 14.0018 17.2999 14.1858 17.2999C14.5516 17.2999 14.9023 17.1923 15.2073 16.9817C15.6197 16.6969 15.9376 16.2305 16.1021 15.6683C16.1327 15.564 16.1205 15.4517 16.0683 15.3563C16.0161 15.2609 15.9282 15.19 15.8237 15.1595L14.8059 14.8614C14.5885 14.7972 14.3607 14.9224 14.2971 15.1398C14.2333 15.3572 14.358 15.585 14.5754 15.6487L15.1597 15.8198C15.049 16.0255 14.9062 16.1927 14.7412 16.3067C14.4828 16.4851 14.1854 16.5266 13.857 16.4306C13.5077 16.3283 13.2193 16.0961 13.0447 15.7768C12.87 15.4575 12.8302 15.0894 12.9324 14.7401C13.0348 14.3908 13.2669 14.1023 13.5862 13.9277C13.9056 13.7531 14.2738 13.7133 14.623 13.8155C14.885 13.8922 15.1151 14.0434 15.2884 14.2526C15.4329 14.427 15.6914 14.4513 15.8659 14.3068C16.0404 14.1623 16.0647 13.9037 15.9201 13.7293C15.642 13.3935 15.2732 13.1511 14.8536 13.0283C13.6984 12.6897 12.4835 13.3544 12.1453 14.5095C11.9813 15.0691 12.0451 15.6589 12.3249 16.1704Z" fill="#FD77A6"/>
<path id="Vector_16" d="M10.2431 17.3757C10.2427 17.3717 10.2424 17.3677 10.242 17.3638C10.221 17.165 10.0835 17.0004 9.8917 16.9444C9.69997 16.8884 9.49538 16.9531 9.37075 17.1094C9.36867 17.1121 9.36659 17.1147 9.36462 17.1174L7.10461 20.0976C6.96773 20.2781 7.00311 20.5353 7.18352 20.6722C7.36405 20.8092 7.6213 20.7736 7.75818 20.5933L8.15029 20.0763L9.65955 20.5183L9.70861 21.1634C9.72502 21.3786 9.90477 21.5424 10.1172 21.5424C10.1276 21.5424 10.1381 21.542 10.1487 21.5413C10.3746 21.5241 10.5438 21.3271 10.5266 21.1011L10.2431 17.3757ZM8.68065 19.3768L9.49134 18.3078L9.593 19.644L8.68065 19.3768Z" fill="#FD77A6"/>
<path id="Vector_17" d="M12.8547 21.5033C12.5612 21.4189 12.1516 21.3004 11.8563 21.214L12.7375 18.2053C12.8012 17.9879 12.6766 17.7601 12.4592 17.6964C12.2414 17.6325 12.014 17.7573 11.9503 17.9747L10.9546 21.3742C10.8973 21.5694 10.9921 21.7772 11.177 21.8622C11.2115 21.878 11.2471 21.8945 12.6278 22.2917C12.6657 22.3026 12.7038 22.3078 12.7414 22.3078C12.9196 22.3078 13.0836 22.1907 13.1354 22.0109C13.1981 21.7932 13.0724 21.566 12.8547 21.5033Z" fill="#FD77A6"/>
<path id="Vector_18" d="M16.4281 18.8925L14.928 18.4531C14.8237 18.4225 14.7114 18.4346 14.6159 18.4868C14.5205 18.539 14.4497 18.627 14.4191 18.7314L13.4317 22.1027C13.368 22.3201 13.4926 22.548 13.71 22.6116L15.21 23.0509C15.2485 23.0622 15.2874 23.0676 15.3255 23.0676C15.5029 23.0676 15.6665 22.9515 15.7189 22.7727C15.7826 22.5553 15.658 22.3274 15.4406 22.2638L14.3342 21.9397L14.5973 21.0413L15.5931 21.3329C15.6316 21.3442 15.6704 21.3496 15.7086 21.3496C15.886 21.3496 16.0496 21.2335 16.102 21.0546C16.1657 20.8372 16.0411 20.6094 15.8237 20.5457L14.8278 20.2541L15.0909 19.3557L16.1974 19.6797C16.415 19.7435 16.6426 19.6188 16.7063 19.4014C16.77 19.1839 16.6454 18.9561 16.4281 18.8925Z" fill="#FD77A6"/>
<path id="Vector_19" d="M6.51131 17.8569C6.13386 17.5769 5.79004 17.2915 5.68969 17.2073C5.60574 17.091 5.64413 16.9727 5.66574 16.9253C5.69456 16.8621 5.78933 16.7147 6.04598 16.7127C6.04822 16.7126 6.05052 16.7126 6.05276 16.7126C6.58957 16.7126 6.93771 17.2053 6.94641 17.2178C7.0723 17.4047 7.32572 17.4551 7.51363 17.3301C7.70224 17.2046 7.75349 16.95 7.62803 16.7614C7.6043 16.7258 7.03877 15.8923 6.0532 15.8923C6.04871 15.8923 6.04417 15.8924 6.03969 15.8924C5.54154 15.8962 5.11219 16.1617 4.91925 16.5853C4.73851 16.9819 4.8014 17.4328 5.0832 17.7619C5.09726 17.7783 5.11257 17.7936 5.12909 17.8076C5.1462 17.8221 5.55281 18.1672 6.02257 18.5157C6.1623 18.6194 6.4732 18.8888 6.34288 19.1508C6.24717 19.3432 5.94191 19.482 5.59645 19.3806C5.24945 19.279 4.95633 19.0409 4.81228 18.7436C4.71352 18.5398 4.46819 18.4546 4.26431 18.5534C4.06044 18.6522 3.97535 18.8976 4.07411 19.1015C4.31747 19.6035 4.80036 20.0022 5.36588 20.1677C5.5224 20.2136 5.67979 20.2356 5.83319 20.2356C6.36727 20.2356 6.85202 19.9691 7.07733 19.5161C7.29499 19.0785 7.26064 18.4129 6.51131 17.8569Z" fill="#FD77A6"/>
</g>
<g id="Group_3">
<path id="Vector_20" d="M22.0966 5.4009L24.6093 3.68874C24.9244 3.47404 25.3626 3.53638 25.5831 3.8475C25.8077 4.16447 25.7278 4.60263 25.4081 4.82045L22.8765 6.54551C22.567 6.75644 22.1458 6.68299 21.9259 6.37981C21.6967 6.06371 21.7739 5.62074 22.0966 5.4009Z" fill="#FFA7CA"/>
<path id="Vector_21" d="M23.6537 7.80021L24.9701 7.55839C25.3441 7.4897 25.7036 7.73541 25.7753 8.10882C25.8479 8.4866 25.5987 8.85109 25.2203 8.9206L23.9039 9.16237C23.5308 9.23089 23.1719 8.98644 23.0992 8.61407C23.0252 8.23575 23.2745 7.86989 23.6537 7.80021Z" fill="#FFA7CA"/>
</g>
</g>
</g>
<defs>
<clipPath id="clip0_540_558">
<rect width="28" height="28" fill="white"/>
</clipPath>
</defs>
</svg>
