<svg width="32" height="32" viewBox="0 0 32 32" fill="none" xmlns="http://www.w3.org/2000/svg">
<g clip-path="url(#clip0_1521_11395)">
<path d="M26.7978 3.04636C26.6682 1.5388 25.341 0.421675 23.8335 0.551238C22.652 0.6528 21.7106 1.48992 21.4208 2.57292H19.4776C19.0865 2.57292 18.7695 2.88992 18.7695 3.28098C18.7695 3.67211 19.0867 3.98904 19.4776 3.98904H21.4217C21.7575 5.2496 22.958 6.12635 24.3028 6.01073C25.8104 5.8811 26.9275 4.55392 26.7978 3.04636Z" fill="url(#paint0_linear_1521_11395)"/>
<path d="M10.8019 8.36133C10.2544 8.36133 9.81055 8.8052 9.81055 9.35264V9.8452L11.9475 9.85333C12.4406 9.85514 12.8987 10.0023 13.2829 10.2531C13.2829 9.36445 13.2829 8.55027 13.2829 8.36133H10.8019Z" fill="url(#paint1_linear_1521_11395)"/>
<path d="M19.2536 17.305C18.0203 17.6129 16.7688 16.8615 16.461 15.6279C16.1534 14.3956 16.9057 13.1428 18.138 12.8353L19.9123 12.3924V9.35264C19.9123 8.8052 19.4684 8.36133 18.921 8.36133H16.44C16.44 8.95395 16.44 12.3203 16.44 12.7599L15.9138 12.2336L15.3876 12.7599L14.8615 12.2336L14.3672 12.7279C14.1708 13.8966 13.1525 14.7852 11.9289 14.7804L9.81055 14.7724V17.4717C9.81055 18.0192 10.2544 18.4631 10.8019 18.4631H18.9211C19.4685 18.4631 19.9124 18.0192 19.9124 17.4717V17.1405L19.2536 17.305Z" fill="url(#paint2_linear_1521_11395)"/>
<path d="M30.7141 29.9845L28.3402 23.6906L29.2296 18.0261C29.2404 17.9578 29.2742 18.4695 28.5071 8.50003C28.4196 7.48159 27.5229 6.72697 26.5046 6.81453L23.2161 7.09722C22.1978 7.18478 21.4431 8.0814 21.5306 9.09977L21.7738 11.9278L23.9711 8.86209L22.5602 12.8263L18.3941 13.866C17.7271 14.0325 17.3246 14.7075 17.4904 15.371C17.6551 16.0312 18.3265 16.4418 18.9954 16.2748L23.8072 15.0738C24.1944 14.9772 24.5317 14.691 24.6761 14.2857L26.2341 9.90815L25.7317 14.4037C25.67 14.9556 25.0864 15.8493 24.0645 16.1044L22.1736 16.5763L22.2906 17.9371L20.2431 22.4677C20.2019 22.5586 20.17 22.6536 20.1479 22.7509L18.4589 30.18C18.2765 30.9823 18.779 31.7804 19.5811 31.9628C20.3835 32.1452 21.1815 31.6425 21.3639 30.8405L23.0194 23.5576L25.3961 18.2984L26.1818 18.2309C26.0081 19.3376 25.5074 22.5262 25.3362 23.6171C25.2961 23.8718 25.323 24.1326 25.4139 24.3738L27.9266 31.0358C28.2169 31.8055 29.0762 32.1942 29.846 31.9039C30.6157 31.6135 31.0044 30.7542 30.7141 29.9845Z" fill="url(#paint3_linear_1521_11395)"/>
<path d="M11.9428 10.9631L8.10031 10.9486L6.03338 8.30738L7.97644 9.74444V8.46407C7.97644 7.48988 7.18669 6.7002 6.21257 6.7002H2.98245C2.00826 6.7002 1.21858 7.48994 1.21858 8.46407C1.21858 29.6109 1.14995 6.29063 1.22339 30.4797C1.22589 31.3205 1.9082 32.0001 2.74826 32.0001C2.74976 32.0001 2.75139 32.0001 2.75295 32.0001C3.59513 31.9976 4.27582 31.3127 4.27319 30.4705C4.23407 17.5784 4.28394 18.436 4.27319 18.3209H4.92563L4.92657 30.4752C4.92663 31.3175 5.60938 32.0001 6.45169 32C7.29388 32 7.97656 31.3172 7.9765 30.4749L7.97638 14.7656C7.56875 14.7641 7.2905 14.763 6.90663 14.7616C6.27182 14.7591 5.72857 14.3694 5.49863 13.8182L3.90088 9.97606L6.3725 13.1343C6.6265 13.4589 7.0165 13.6522 7.43356 13.6538L11.9326 13.6709C12.6802 13.6737 13.2887 13.0699 13.2916 12.3221C13.2944 11.5744 12.6912 10.966 11.9428 10.9631Z" fill="url(#paint4_linear_1521_11395)"/>
<path d="M5.38967 5.61136C6.9392 5.61136 8.19535 4.35522 8.19535 2.80568C8.19535 1.25615 6.9392 0 5.38967 0C3.84013 0 2.58398 1.25615 2.58398 2.80568C2.58398 4.35522 3.84013 5.61136 5.38967 5.61136Z" fill="url(#paint5_linear_1521_11395)"/>
</g>
<defs>
<linearGradient id="paint0_linear_1521_11395" x1="18.7695" y1="3.28099" x2="26.8081" y2="3.28099" gradientUnits="userSpaceOnUse">
<stop stop-color="#E2C881"/>
<stop offset="1" stop-color="#8B6F2A"/>
</linearGradient>
<linearGradient id="paint1_linear_1521_11395" x1="9.81055" y1="9.3072" x2="13.2829" y2="9.3072" gradientUnits="userSpaceOnUse">
<stop stop-color="#E2C881"/>
<stop offset="1" stop-color="#8B6F2A"/>
</linearGradient>
<linearGradient id="paint2_linear_1521_11395" x1="9.81055" y1="13.4122" x2="19.9124" y2="13.4122" gradientUnits="userSpaceOnUse">
<stop stop-color="#E2C881"/>
<stop offset="1" stop-color="#8B6F2A"/>
</linearGradient>
<linearGradient id="paint3_linear_1521_11395" x1="17.4531" y1="19.4039" x2="30.8103" y2="19.4039" gradientUnits="userSpaceOnUse">
<stop stop-color="#E2C881"/>
<stop offset="1" stop-color="#8B6F2A"/>
</linearGradient>
<linearGradient id="paint4_linear_1521_11395" x1="1.18945" y1="19.3502" x2="13.2916" y2="19.3502" gradientUnits="userSpaceOnUse">
<stop stop-color="#E2C881"/>
<stop offset="1" stop-color="#8B6F2A"/>
</linearGradient>
<linearGradient id="paint5_linear_1521_11395" x1="2.58398" y1="2.80568" x2="8.19535" y2="2.80568" gradientUnits="userSpaceOnUse">
<stop stop-color="#E2C881"/>
<stop offset="1" stop-color="#8B6F2A"/>
</linearGradient>
<clipPath id="clip0_1521_11395">
<rect width="32" height="32" fill="white"/>
</clipPath>
</defs>
</svg>
