<svg width="24" height="24" viewBox="0 0 24 24" fill="none" xmlns="http://www.w3.org/2000/svg">
<g id="dolly-flatbed-alt" clip-path="url(#clip0_2465_12702)">
<path id="Vector" d="M22 9H9C7.897 9 7 9.897 7 11V14C7 15.103 7.897 16 9 16H22C23.103 16 24 15.103 24 14V11C24 9.897 23.103 9 22 9ZM9 7H12C13.103 7 14 6.103 14 5V2C14 0.897 13.103 0 12 0H9C7.897 0 7 0.897 7 2V5C7 6.103 7.897 7 9 7ZM22 1H18C16.897 1 16 1.897 16 3V5C16 6.103 16.897 7 18 7H22C23.103 7 24 6.103 24 5V3C24 1.897 23.103 1 22 1ZM23 18H8C6.346 18 5 16.654 5 15V4C5 1.794 3.206 0 1 0C0.448 0 0 0.447 0 1C0 1.553 0.448 2 1 2C2.103 2 3 2.897 3 4V15C3 17.045 4.237 18.802 6 19.576V21C6 22.654 7.346 24 9 24C10.654 24 12 22.654 12 21V20H17V21C17 22.654 18.346 24 20 24C21.654 24 23 22.654 23 21V20C23.552 20 24 19.553 24 19C24 18.447 23.552 18 23 18Z" fill="url(#paint0_linear_2465_12702)"/>
</g>
<defs>
<linearGradient id="paint0_linear_2465_12702" x1="0" y1="12" x2="24" y2="12" gradientUnits="userSpaceOnUse">
<stop stop-color="#E2C881"/>
<stop offset="1" stop-color="#8B6F2A"/>
</linearGradient>
<clipPath id="clip0_2465_12702">
<rect width="24" height="24" fill="white"/>
</clipPath>
</defs>
</svg>
