<svg width="32" height="32" viewBox="0 0 32 32" fill="none" xmlns="http://www.w3.org/2000/svg">
<path d="M22.0513 11.7101L20.5631 12.5501L21.3106 5.60194H24.76L24.005 12.6051L22.6056 11.7051C22.43 11.5932 22.2125 11.6019 22.0513 11.7101ZM30.6031 5.60132H25.7769L24.925 13.5257C24.895 13.8038 24.645 14.0038 24.3688 13.9757C24.2875 13.9669 24.2131 13.9382 24.1488 13.8976C23.5394 13.5026 22.9244 13.1126 22.315 12.7194L20.2031 13.9119C19.9606 14.0482 19.6519 13.9632 19.5156 13.7188C19.4625 13.6251 19.4431 13.5207 19.4538 13.4194H19.4519L20.2938 5.60132H15.4675C14.6313 5.60132 13.8731 6.28507 13.7825 7.12319L13.7044 7.84632H10.3256C10.0456 7.84632 9.81875 8.07319 9.81875 8.35319C9.81875 8.63319 10.0456 8.86007 10.3256 8.86007H13.5963L13.3606 11.0444H9.98188C9.70188 11.0444 9.475 11.2713 9.475 11.5513C9.475 11.8313 9.70188 12.0582 9.98188 12.0582H13.2506L13.1175 13.2932C16.4888 13.8494 19.0594 16.7782 19.0594 20.3057C19.0594 21.5669 18.73 22.7526 18.1538 23.7801H28.6456C29.4819 23.7801 30.24 23.0963 30.3306 22.2582L31.9588 7.12444C32.05 6.28507 31.4394 5.60132 30.6031 5.60132ZM18.0469 20.3044C18.0469 23.6707 15.3188 26.3988 11.9525 26.3988C8.58813 26.3988 5.86 23.6707 5.86 20.3044C5.86 16.9401 8.58813 14.2119 11.9525 14.2119C15.3188 14.2113 18.0469 16.9401 18.0469 20.3044ZM16.3288 20.3044C16.3288 17.8882 14.3694 15.9301 11.9525 15.9301C9.53563 15.9301 7.57813 17.8876 7.57813 20.3044C7.57813 22.7213 9.53563 24.6788 11.9525 24.6788C14.3694 24.6788 16.3288 22.7207 16.3288 20.3044ZM14.6013 19.7976H12.4594V17.6576C12.4594 17.3776 12.2325 17.1507 11.9525 17.1507C11.6725 17.1507 11.4456 17.3776 11.4456 17.6576V20.3044C11.4456 20.5844 11.6725 20.8113 11.9525 20.8113H14.6013C14.8813 20.8113 15.1081 20.5844 15.1081 20.3044C15.1081 20.0244 14.8813 19.7976 14.6013 19.7976ZM5.2025 15.4963H2.32188C2.04188 15.4963 1.815 15.7232 1.815 16.0032C1.815 16.2832 2.04188 16.5101 2.32188 16.5101H5.2025C5.4825 16.5101 5.71125 16.2832 5.71125 16.0032C5.71125 15.7232 5.4825 15.4963 5.2025 15.4963ZM3.925 20.3044C3.925 20.0244 3.69813 19.7976 3.41813 19.7976H0.538125C0.258125 19.7976 0.03125 20.0244 0.03125 20.3044C0.03125 20.5844 0.258125 20.8113 0.538125 20.8113H3.41875C3.69875 20.8107 3.925 20.5844 3.925 20.3044ZM5.2025 24.1063H2.32188C2.04188 24.1063 1.815 24.3332 1.815 24.6132C1.815 24.8932 2.04188 25.1201 2.32188 25.1201H5.2025C5.4825 25.1201 5.71125 24.8932 5.71125 24.6132C5.71125 24.3332 5.4825 24.1063 5.2025 24.1063Z" fill="url(#paint0_linear_1521_11392)"/>
<defs>
<linearGradient id="paint0_linear_1521_11392" x1="0.03125" y1="16.0001" x2="31.9678" y2="16.0001" gradientUnits="userSpaceOnUse">
<stop stop-color="#E2C881"/>
<stop offset="1" stop-color="#8B6F2A"/>
</linearGradient>
</defs>
</svg>
