<svg width="31" height="31" viewBox="0 0 31 31" fill="none" xmlns="http://www.w3.org/2000/svg">
<path d="M26.7956 12.7487C26.7956 14.1936 25.278 15.3266 24.7569 16.5831C24.2168 17.8855 24.4687 19.7547 23.4868 20.7361C22.505 21.7174 20.6363 21.4656 19.3338 22.0056C18.0773 22.5268 16.9444 24.0444 15.4995 24.0444C14.0546 24.0444 12.9216 22.5268 11.6652 22.0056C10.3627 21.4656 8.49348 21.7174 7.51214 20.7356C6.53079 19.7538 6.78267 17.8851 6.24259 16.5826C5.7214 15.3261 4.20386 14.1932 4.20386 12.7483C4.20386 11.3034 5.7214 10.1704 6.24259 8.91395C6.78267 7.61146 6.5308 5.74226 7.51262 4.76092C8.49445 3.77957 10.3632 4.03145 11.6657 3.49137C12.9221 2.97018 14.0551 1.45264 15.5 1.45264C16.9449 1.45264 18.0778 2.97018 19.3343 3.49137C20.6368 4.03145 22.506 3.77957 23.4873 4.7614C24.4687 5.74323 24.2168 7.61195 24.7569 8.91443C25.278 10.1709 26.7956 11.3039 26.7956 12.7487Z" fill="#FFCB29"/>
<path d="M15.5 20.0144C19.5127 20.0144 22.7656 16.7615 22.7656 12.7488C22.7656 8.73609 19.5127 5.48315 15.5 5.48315C11.4873 5.48315 8.23438 8.73609 8.23438 12.7488C8.23438 16.7615 11.4873 20.0144 15.5 20.0144Z" fill="#FAA629"/>
<path d="M11.6657 22.0057C10.3632 21.4656 8.494 21.7175 7.51266 20.7356C6.87716 20.1001 6.75848 19.0926 6.60736 18.1079L1.45312 24.2508L6.47706 24.6726L7.76453 29.5469L13.2399 23.0214C12.7153 22.6315 12.2014 22.228 11.6657 22.0057Z" fill="#3D82C4"/>
<path d="M24.3926 18.1084C24.2414 19.0931 24.1228 20.1006 23.4873 20.7361C22.5059 21.7175 20.6367 21.4656 19.3342 22.0057C18.798 22.228 18.2846 22.6315 17.76 23.0214L23.2354 29.5469L24.5229 24.6726L29.5468 24.2508L24.3926 18.1084Z" fill="#3D82C4"/>
<path d="M15.5 8.60254L16.847 11.3325L19.8594 11.7699L17.6797 13.8948L18.1941 16.895L15.5 15.4782L12.8059 16.895L13.3203 13.8948L11.1406 11.7699L14.153 11.3325L15.5 8.60254Z" fill="#FFCB29"/>
</svg>
