<svg width="30" height="30" viewBox="0 0 30 30" fill="none" xmlns="http://www.w3.org/2000/svg">
<g clip-path="url(#clip0_540_169)">
<path d="M21.7096 9.52128C21.0894 8.84418 20.1252 7.93028 19.715 9.99384C19.5755 10.6955 19.2496 11.2363 18.9703 11.6718C18.6693 10.1482 17.7636 8.57123 16.9102 7.50795C16.5909 7.11014 15.4578 5.52873 15.2401 2.88312C15.2076 2.48827 14.7386 2.30285 14.4452 2.56918C11.6418 5.11413 10.103 8.6143 10.0458 12.5548C10.0458 12.5548 8.87844 11.5708 8.24424 9.74018C8.07346 9.24722 7.41258 9.15318 7.12585 9.58906C7.07081 9.67276 7.01977 9.75657 6.97374 9.83795C4.81073 13.6626 3.77024 18.3071 4.73215 22.6281C6.34047 29.8645 16.9793 31.8875 22.6116 27.3393C28.1221 22.8895 26.3705 14.6073 21.7096 9.52128Z" fill="#ED694A"/>
<path d="M6.2294 23.0823C5.27865 18.7151 6.28503 14.0254 8.39723 10.1409C8.34381 10.0121 8.29243 9.87878 8.24442 9.74021C8.07365 9.24725 7.41277 9.1532 7.12604 9.58908C7.07099 9.67278 7.02002 9.7566 6.97398 9.83798C4.81098 13.6626 3.77048 18.3071 4.73239 22.6281C5.46599 25.9288 8.07859 28.1442 11.2377 29.1468C8.77324 27.9529 6.84326 25.9064 6.2294 23.0823Z" fill="#D8553A"/>
<path d="M11.5503 12.4823C11.6671 8.90603 12.9606 5.69927 15.2758 3.23582C15.2598 3.10015 15.248 2.97885 15.2404 2.88678C15.2072 2.48856 14.7554 2.28884 14.4633 2.55285C11.7555 5.00096 10.1051 8.46573 10.0459 12.5547L10.5527 12.9483C10.8023 13.1421 11.1405 13.1337 11.3788 12.9561C11.5211 12.8356 11.5415 12.6536 11.5503 12.4823Z" fill="#D8553A"/>
<path d="M20.0092 14.8112C19.5511 14.3111 18.8389 13.636 18.536 15.1602C18.433 15.6784 18.1922 16.078 17.986 16.3996C17.7637 15.2743 17.0946 14.1095 16.4643 13.3241C16.2285 13.0303 15.3916 11.8623 15.2308 9.90806C15.2067 9.61639 14.8604 9.47951 14.6437 9.6762C12.573 11.5559 11.4364 14.1413 11.3942 17.0517C11.3942 17.0517 10.5319 16.3249 10.0636 14.9728C9.93742 14.6087 9.44923 14.5393 9.23748 14.8612C9.19685 14.923 9.15913 14.985 9.12513 15.0451C7.52745 17.87 6.75892 21.3005 7.46938 24.4921C8.65734 29.8371 16.5154 31.3314 20.6755 27.972C24.7456 24.6853 23.4518 18.5679 20.0092 14.8112Z" fill="#F4A32C"/>
<path d="M8.9508 24.9116C8.32177 21.7917 8.97329 18.4439 10.3546 15.6563C10.2494 15.4502 10.1496 15.2223 10.0633 14.9731C9.93712 14.609 9.44893 14.5395 9.23718 14.8614C9.19655 14.9232 9.15883 14.9852 9.12483 15.0453C7.5272 17.8703 6.75873 21.3007 7.46908 24.4923C8.02161 26.9782 10.0171 28.6306 12.4121 29.3497C10.7105 28.4963 9.37069 26.997 8.9508 24.9116Z" fill="#E89528"/>
<path d="M18.4567 19.6406C18.1467 19.302 17.6645 18.845 17.4594 19.8768C17.3897 20.2277 17.2267 20.4981 17.0871 20.7158C16.9365 19.954 16.4837 19.1655 16.057 18.6339C15.8974 18.435 15.3308 17.6443 15.2219 16.3215C15.2056 16.124 14.9712 16.0313 14.8245 16.1645C13.4228 17.437 12.6534 19.1871 12.6248 21.1573C12.6248 21.1573 12.0411 20.6652 11.7241 19.75C11.6387 19.5036 11.3082 19.4565 11.1649 19.6744C11.1373 19.7162 11.1119 19.7582 11.0888 19.7989C10.0073 21.7112 9.48706 24.0334 9.96798 26.194C10.7721 29.8122 16.0916 30.8238 18.9077 28.5496C19.872 27.7709 20.4699 26.6735 20.5912 25.4597C20.7742 23.6212 20.0667 21.3974 18.4567 19.6406Z" fill="#F4D44E"/>
<path d="M17.016 24.1223C16.8432 23.9337 16.5746 23.6791 16.4604 24.2539C16.4215 24.4494 16.3307 24.6 16.2529 24.7213C16.169 24.2969 15.9168 23.8576 15.679 23.5614C15.5901 23.4506 15.2744 23.0101 15.2138 22.2731C15.2047 22.1631 15.074 22.1115 14.9924 22.1856C14.2115 22.8946 13.7827 23.8696 13.7669 24.9673C13.7669 24.9673 13.4416 24.6931 13.265 24.1832C13.2174 24.0459 13.0333 24.0196 12.9535 24.1411C12.9382 24.1644 12.924 24.1878 12.9112 24.2105C12.3087 25.2759 12.0188 26.5696 12.2868 27.7734C12.897 30.5187 17.8985 30.4354 18.2053 27.3642C18.3071 26.34 17.9129 25.101 17.016 24.1223Z" fill="#EAE9E8"/>
<path d="M13.448 28.3181C13.1801 27.2413 13.47 26.084 14.0725 25.131C14.0853 25.1107 14.0995 25.0898 14.1148 25.069C14.1947 24.9603 14.3787 24.9838 14.4263 25.1066C14.6029 25.5627 14.9281 25.808 14.9281 25.808C14.9412 25.0012 15.2335 24.2688 15.7702 23.6814C15.6502 23.5152 15.283 23.1143 15.2138 22.2731C15.2047 22.1631 15.074 22.1115 14.9924 22.1856C14.2115 22.8946 13.7827 23.8696 13.7669 24.9673C13.7669 24.9673 13.4416 24.6931 13.265 24.1833C13.2175 24.0459 13.0333 24.0197 12.9535 24.1412C12.9382 24.1645 12.924 24.1879 12.9112 24.2105C12.3087 25.2759 12.0188 26.5697 12.2868 27.7734C12.5347 28.8891 13.5534 29.5597 14.6796 29.7215C14.0721 29.4231 13.6052 28.9507 13.448 28.3181Z" fill="#F7E7A1"/>
<path d="M10.7298 3.95512C11.9867 2.93275 11.9839 1.02004 10.7298 0C9.47282 1.0223 9.47556 2.93508 10.7298 3.95512Z" fill="#D8553A"/>
<path d="M25.7957 12.1604C27.0526 11.1381 27.0498 9.22536 25.7957 8.20532C25.2211 8.67253 24.5415 11.1404 25.7957 12.1604Z" fill="#D8553A"/>
<path d="M3.53322 12.9389C4.43909 12.202 4.43712 10.8236 3.53322 10.0884C3.11919 10.4251 2.62931 12.2037 3.53322 12.9389Z" fill="#D8553A"/>
<path d="M19.2226 6.80559C20.1285 6.06874 20.1265 4.6903 19.2226 3.95508C18.3167 4.69187 18.3187 6.07042 19.2226 6.80559Z" fill="#D8553A"/>
<path d="M12.5499 16.5845C12.7579 14.1286 13.6957 11.9449 15.2705 10.2802C15.2545 10.1595 15.2411 10.0357 15.2306 9.90831C15.2066 9.61663 14.8603 9.47975 14.6436 9.67645C13.0027 11.166 11.9496 13.099 11.5617 15.2853L11.5611 15.2852C11.5323 15.4473 11.4966 15.6835 11.4741 15.8691C11.4741 15.8693 11.4742 15.8694 11.4743 15.8696C11.4272 16.2569 11.3999 16.6513 11.394 17.052C11.4379 17.0606 12.4299 17.5705 12.5499 16.5845Z" fill="#E89528"/>
<path d="M11.4176 26.7071C10.9901 24.6887 11.3541 22.5364 12.2 20.6714C12.0361 20.4416 11.8568 20.133 11.7241 19.7498C11.6387 19.5034 11.3083 19.4564 11.1649 19.6743C11.1374 19.7161 11.1118 19.758 11.0888 19.7987C10.0073 21.711 9.48706 24.0332 9.96798 26.1938C10.3446 27.8883 11.7116 29.011 13.3478 29.4923C12.3954 28.8601 11.6749 27.9242 11.4176 26.7071Z" fill="#E8C842"/>
<path d="M14.168 20.2753C14.3098 19.2625 14.724 18.1465 15.3761 17.2136C15.3051 16.9501 15.2492 16.6525 15.222 16.3215C15.2057 16.124 14.9712 16.0313 14.8246 16.1645C13.9512 16.9574 13.3243 17.9361 12.9682 19.0375L12.9672 19.0373C12.9112 19.2103 12.832 19.497 12.784 19.7233C12.7844 19.7232 12.7848 19.7232 12.7852 19.723C12.6868 20.1847 12.6321 20.6639 12.625 21.1572C13.4092 21.2551 14.058 21.0609 14.168 20.2753Z" fill="#E8C842"/>
</g>
<defs>
<clipPath id="clip0_540_169">
<rect width="29.76" height="29.76" fill="white"/>
</clipPath>
</defs>
</svg>
