<svg width="33" height="32" viewBox="0 0 33 32" fill="none" xmlns="http://www.w3.org/2000/svg">
<g id="united-kingdom 1" clip-path="url(#clip0_2577_14853)">
<path id="Vector" d="M16.666 32C25.5026 32 32.666 24.8366 32.666 16C32.666 7.16344 25.5026 0 16.666 0C7.82946 0 0.666016 7.16344 0.666016 16C0.666016 24.8366 7.82946 32 16.666 32Z" fill="#F0F0F0"/>
<g id="Group">
<path id="Vector_2" d="M3.97311 6.25903C2.7163 7.89422 1.76861 9.77891 1.2168 11.8263H9.54042L3.97311 6.25903Z" fill="#0052B4"/>
<path id="Vector_3" d="M32.1145 11.8263C31.5627 9.77891 30.615 7.89422 29.3582 6.25903L23.791 11.8263H32.1145Z" fill="#0052B4"/>
<path id="Vector_4" d="M1.2168 20.1741C1.76867 22.2214 2.71636 24.1061 3.97311 25.7413L9.54023 20.1741H1.2168Z" fill="#0052B4"/>
<path id="Vector_5" d="M26.4071 3.30764C24.7719 2.05083 22.8873 1.10314 20.8398 0.55127V8.87483L26.4071 3.30764Z" fill="#0052B4"/>
<path id="Vector_6" d="M6.92383 28.6926C8.55902 29.9494 10.4437 30.8971 12.4911 31.449V23.1255L6.92383 28.6926Z" fill="#0052B4"/>
<path id="Vector_7" d="M12.491 0.55127C10.4436 1.10314 8.55895 2.05083 6.92383 3.30758L12.491 8.87477V0.55127Z" fill="#0052B4"/>
<path id="Vector_8" d="M20.8398 31.449C22.8872 30.8971 24.7719 29.9494 26.407 28.6927L20.8398 23.1255V31.449Z" fill="#0052B4"/>
<path id="Vector_9" d="M23.791 20.1741L29.3582 25.7413C30.615 24.1062 31.5627 22.2214 32.1145 20.1741H23.791Z" fill="#0052B4"/>
</g>
<g id="Group_2">
<path id="Vector_10" d="M32.5306 13.9131H18.7531H18.753V0.135438C18.0698 0.0465 17.3733 0 16.666 0C15.9586 0 15.2622 0.0465 14.5791 0.135438V13.9129V13.913H0.801453C0.712516 14.5962 0.666016 15.2927 0.666016 16C0.666016 16.7074 0.712516 17.4038 0.801453 18.0869H14.579H14.579V31.8646C15.2622 31.9535 15.9586 32 16.666 32C17.3733 32 18.0698 31.9536 18.753 31.8646V18.0871V18.087H32.5306C32.6195 17.4038 32.666 16.7074 32.666 16C32.666 15.2927 32.6195 14.5962 32.5306 13.9131Z" fill="#D80027"/>
<path id="Vector_11" d="M20.8398 20.1739L27.9796 27.3136C28.308 26.9854 28.6212 26.6422 28.9201 26.2865L22.8075 20.1738H20.8398V20.1739Z" fill="#D80027"/>
<path id="Vector_12" d="M12.4914 20.1741H12.4912L5.35156 27.3138C5.67981 27.6421 6.023 27.9554 6.37875 28.2543L12.4914 22.1415V20.1741Z" fill="#D80027"/>
<path id="Vector_13" d="M12.4924 11.8262V11.8261L5.35261 4.68628C5.02423 5.01453 4.71098 5.35772 4.41211 5.71347L10.5248 11.8262L12.4924 11.8262Z" fill="#D80027"/>
<path id="Vector_14" d="M20.8398 11.8262L27.9797 4.68629C27.6514 4.35791 27.3082 4.04466 26.9525 3.74585L20.8398 9.85854V11.8262Z" fill="#D80027"/>
</g>
</g>
<defs>
<clipPath id="clip0_2577_14853">
<rect width="32" height="32" fill="white" transform="translate(0.666016)"/>
</clipPath>
</defs>
</svg>
