<svg width="33" height="32" viewBox="0 0 33 32" fill="none" xmlns="http://www.w3.org/2000/svg">
<g id="russia 1" clip-path="url(#clip0_2577_14749)">
<path id="Vector" d="M16.334 32C25.1705 32 32.334 24.8366 32.334 16C32.334 7.16344 25.1705 0 16.334 0C7.49743 0 0.333984 7.16344 0.333984 16C0.333984 24.8366 7.49743 32 16.334 32Z" fill="#F0F0F0"/>
<path id="Vector_2" d="M31.3388 21.5652C31.982 19.8319 32.334 17.9571 32.334 16C32.334 14.0429 31.982 12.1681 31.3388 10.4348H1.32917C0.686047 12.1681 0.333984 14.0429 0.333984 16C0.333984 17.9571 0.686047 19.8319 1.32917 21.5652L16.334 22.9565L31.3388 21.5652Z" fill="#0052B4"/>
<path id="Vector_3" d="M16.3349 32C23.2143 32 29.079 27.658 31.3397 21.5652H1.33008C3.59077 27.658 9.45545 32 16.3349 32Z" fill="#D80027"/>
</g>
<defs>
<clipPath id="clip0_2577_14749">
<rect width="32" height="32" fill="white" transform="translate(0.333984)"/>
</clipPath>
</defs>
</svg>
