<svg width="32" height="32" viewBox="0 0 32 32" fill="none" xmlns="http://www.w3.org/2000/svg">
<g id="uzbekistan (7) 2" clip-path="url(#clip0_2577_14672)">
<path id="Vector" d="M0.7555 11.1305C0.265375 12.666 -6.2489e-05 14.3018 1.10347e-08 15.9999C-6.2489e-05 17.698 0.265437 19.3339 0.755562 20.8694L16 21.5652L31.2444 20.8696C31.7345 19.334 32.0001 17.698 32.0001 16C32 14.3019 31.7346 12.666 31.2444 11.1304L16 10.4348L0.7555 11.1305Z" fill="#F0F0F0"/>
<g id="Group">
<path id="Vector_2" d="M31.2449 11.1304L16.0005 10.4348L0.755984 11.1304C0.610734 11.5857 0.485672 12.0499 0.380859 12.5218H31.6199C31.5152 12.0498 31.3902 11.5856 31.2449 11.1304Z" fill="#D80027"/>
<path id="Vector_3" d="M0.380859 19.478C0.485547 19.9499 0.610609 20.414 0.755859 20.8693L0.757359 20.8693L16.0002 21.565L31.2447 20.8693C31.3899 20.4141 31.515 19.9499 31.6197 19.478H0.380859Z" fill="#D80027"/>
</g>
<path id="Vector_4" d="M16.0002 31.9998C23.1387 31.9998 29.1844 27.3246 31.2447 20.8694H0.755859C2.81617 27.3246 8.86192 31.9998 16.0002 31.9998Z" fill="#6DA544"/>
<path id="Vector_5" d="M16.0003 6.2663e-10C8.86192 6.25006e-05 2.8163 4.67525 0.755859 11.1304L31.2447 11.1305C29.1845 4.67519 23.1388 -6.24994e-05 16.0003 6.2663e-10Z" fill="#338AF3"/>
<g id="Group_2">
<path id="Vector_6" d="M7.31233 6.60889C7.31233 5.11033 8.36552 3.85845 9.77195 3.55133C9.55583 3.50408 9.33152 3.47852 9.10114 3.47852C7.37227 3.47852 5.9707 4.88002 5.9707 6.60895C5.9707 8.33789 7.37214 9.73939 9.10114 9.73939C9.33152 9.73939 9.55577 9.71377 9.77195 9.66658C8.36558 9.35933 7.31233 8.10745 7.31233 6.60889Z" fill="#F0F0F0"/>
<path id="Vector_7" d="M11.6224 8.03174L11.8342 8.68393H12.52L11.9652 9.08705L12.1771 9.73924L11.6224 9.33618L11.0675 9.73924L11.2794 9.08705L10.7246 8.68393H11.4104L11.6224 8.03174Z" fill="#F0F0F0"/>
<path id="Vector_8" d="M13.8117 8.03174L14.0236 8.68393H14.7094L14.1546 9.08705L14.3665 9.73924L13.8117 9.33618L13.2569 9.73924L13.4688 9.08705L12.9141 8.68393H13.5997L13.8117 8.03174Z" fill="#F0F0F0"/>
<path id="Vector_9" d="M15.9993 8.03174L16.2112 8.68393H16.897L16.3422 9.08705L16.5541 9.73924L15.9993 9.33618L15.4444 9.73924L15.6564 9.08705L15.1016 8.68393H15.7874L15.9993 8.03174Z" fill="#F0F0F0"/>
<path id="Vector_10" d="M18.1888 8.03174L18.4007 8.68393H19.0864L18.5316 9.08705L18.7436 9.73924L18.1888 9.33618L17.6339 9.73924L17.8459 9.08705L17.291 8.68393H17.9768L18.1888 8.03174Z" fill="#F0F0F0"/>
<path id="Vector_11" d="M20.3781 8.03174L20.59 8.68393H21.2758L20.721 9.08705L20.933 9.73924L20.3781 9.33618L19.8233 9.73924L20.0352 9.08705L19.4805 8.68393H20.1662L20.3781 8.03174Z" fill="#F0F0F0"/>
<path id="Vector_12" d="M13.8117 5.75513L14.0236 6.40725H14.7094L14.1546 6.81044L14.3665 7.46256L13.8117 7.0595L13.2569 7.46256L13.4688 6.81044L12.9141 6.40725H13.5997L13.8117 5.75513Z" fill="#F0F0F0"/>
<path id="Vector_13" d="M15.9993 5.75513L16.2112 6.40725H16.897L16.3422 6.81044L16.5541 7.46256L15.9993 7.0595L15.4444 7.46256L15.6564 6.81044L15.1016 6.40725H15.7874L15.9993 5.75513Z" fill="#F0F0F0"/>
<path id="Vector_14" d="M18.1888 5.75513L18.4007 6.40725H19.0864L18.5316 6.81044L18.7436 7.46256L18.1888 7.0595L17.6339 7.46256L17.8459 6.81044L17.291 6.40725H17.9768L18.1888 5.75513Z" fill="#F0F0F0"/>
<path id="Vector_15" d="M20.3781 5.75513L20.59 6.40725H21.2758L20.721 6.81044L20.933 7.46256L20.3781 7.0595L19.8233 7.46256L20.0352 6.81044L19.4805 6.40725H20.1662L20.3781 5.75513Z" fill="#F0F0F0"/>
<path id="Vector_16" d="M15.9993 3.47827L16.2112 4.13052H16.897L16.3422 4.53358L16.5541 5.18583L15.9993 4.78277L15.4444 5.18583L15.6564 4.53358L15.1016 4.13052H15.7874L15.9993 3.47827Z" fill="#F0F0F0"/>
<path id="Vector_17" d="M18.1888 3.47827L18.4007 4.13052H19.0864L18.5316 4.53358L18.7436 5.18583L18.1888 4.78277L17.6339 5.18583L17.8459 4.53358L17.291 4.13052H17.9768L18.1888 3.47827Z" fill="#F0F0F0"/>
<path id="Vector_18" d="M20.3781 3.47827L20.59 4.13052H21.2758L20.721 4.53358L20.933 5.18583L20.3781 4.78277L19.8233 5.18583L20.0352 4.53358L19.4805 4.13052H20.1662L20.3781 3.47827Z" fill="#F0F0F0"/>
</g>
</g>
<defs>
<clipPath id="clip0_2577_14672">
<rect width="32" height="32" fill="white"/>
</clipPath>
</defs>
</svg>
