<svg width="48" height="48" viewBox="0 0 48 48" fill="none" xmlns="http://www.w3.org/2000/svg">
<g id="006-happy" clip-path="url(#clip0_2542_17214)">
<g id="Layer 4">
<path id="Vector" d="M24 48C37.2548 48 48 37.2548 48 24C48 10.7452 37.2548 0 24 0C10.7452 0 0 10.7452 0 24C0 37.2548 10.7452 48 24 48Z" fill="#FFE165"/>
<path id="Vector_2" d="M24.0005 44.3131C35.2191 44.3131 44.3136 35.2186 44.3136 24.0001C44.3136 12.7815 35.2191 3.68701 24.0005 3.68701C12.782 3.68701 3.6875 12.7815 3.6875 24.0001C3.6875 35.2186 12.782 44.3131 24.0005 44.3131Z" fill="#FFCA1A"/>
<path id="Vector_3" d="M48.001 24C48.001 30.3652 45.4724 36.4697 40.9715 40.9706C36.4707 45.4714 30.3662 48 24.001 48C23.604 48 23.2098 47.9907 22.8184 47.9722C28.9715 47.6683 34.7721 45.01 39.0195 40.5477C43.2669 36.0853 45.6358 30.1606 45.6358 24C45.6358 17.8394 43.2669 11.9147 39.0195 7.45232C34.7721 2.98997 28.9715 0.331711 22.8184 0.0278261C23.2107 0.00927536 23.6049 0 24.001 0C30.3662 0 36.4707 2.52856 40.9715 7.02944C45.4724 11.5303 48.001 17.6348 48.001 24Z" fill="#FED94D"/>
<path id="Vector_4" d="M44.314 24.0001C44.314 29.3874 42.1739 34.5541 38.3645 38.3635C34.555 42.173 29.3883 44.3131 24.001 44.3131C23.6044 44.3131 23.2093 44.302 22.8184 44.2783C27.9911 43.9752 32.8525 41.7067 36.4078 37.9371C39.963 34.1675 41.9432 29.1817 41.9432 24.0001C41.9432 18.8184 39.963 13.8326 36.4078 10.063C32.8525 6.29337 27.9911 4.0249 22.8184 3.72179C23.2093 3.69814 23.6044 3.68701 24.001 3.68701C29.3883 3.68701 34.555 5.82713 38.3645 9.63656C42.1739 13.446 44.314 18.6127 44.314 24.0001Z" fill="#FEC200"/>
</g>
<g id="Emoticons">
<path id="Vector_5" d="M31.584 15.1416C31.4012 15.1415 31.2258 15.0696 31.0957 14.9412C30.1217 13.977 28.5231 13.5304 27.2125 13.856C27.1222 13.8838 27.0271 13.8928 26.9331 13.8826C26.8391 13.8724 26.7482 13.8432 26.6659 13.7967C26.5836 13.7501 26.5116 13.6873 26.4544 13.6121C26.3972 13.5368 26.3559 13.4507 26.3331 13.3589C26.3102 13.2672 26.3064 13.1718 26.3217 13.0785C26.337 12.9852 26.3711 12.896 26.422 12.8163C26.473 12.7367 26.5396 12.6682 26.6179 12.6152C26.6961 12.5621 26.7844 12.5256 26.8772 12.5078C28.6637 12.064 30.7506 12.6469 32.0723 13.9534C32.1696 14.0504 32.236 14.1741 32.2631 14.3088C32.2902 14.4435 32.2767 14.5833 32.2245 14.7104C32.1723 14.8375 32.0836 14.9462 31.9696 15.023C31.8556 15.0997 31.7214 15.141 31.584 15.1416Z" fill="black"/>
<path id="Vector_6" d="M18.9918 35.6396C17.8468 35.6396 16.7657 35.3433 15.956 34.8049C14.9821 34.1565 14.4395 33.1854 14.4395 32.0696C14.4395 31.8851 14.5127 31.7081 14.6432 31.5777C14.7737 31.4472 14.9506 31.3739 15.1351 31.3739C15.3196 31.3739 15.4965 31.4472 15.627 31.5777C15.7575 31.7081 15.8308 31.8851 15.8308 32.0696C15.8308 33.568 17.4697 34.2511 18.9932 34.2511C20.5167 34.2511 22.1556 33.568 22.1556 32.0696C22.1556 31.8851 22.2289 31.7081 22.3594 31.5777C22.4898 31.4472 22.6668 31.3739 22.8513 31.3739C23.0358 31.3739 23.2127 31.4472 23.3432 31.5777C23.4736 31.7081 23.5469 31.8851 23.5469 32.0696C23.5428 34.4125 21.2527 35.6396 18.9918 35.6396Z" fill="black"/>
<path id="Vector_7" d="M6.40171 15.1416C6.2643 15.141 6.13014 15.0998 6.01615 15.023C5.90216 14.9463 5.81345 14.8375 5.76121 14.7104C5.70897 14.5833 5.69555 14.4436 5.72263 14.3089C5.7497 14.1741 5.81608 14.0505 5.91337 13.9534C7.2365 12.6456 9.32345 12.064 11.1057 12.5079C11.1989 12.5252 11.2876 12.5614 11.3662 12.6143C11.4449 12.6671 11.512 12.7355 11.5633 12.8152C11.6146 12.8949 11.6491 12.9843 11.6646 13.0778C11.6801 13.1713 11.6764 13.267 11.6536 13.359C11.6308 13.451 11.5895 13.5374 11.5321 13.6128C11.4747 13.6883 11.4025 13.7512 11.3199 13.7978C11.2374 13.8443 11.1461 13.8735 11.0519 13.8835C10.9576 13.8935 10.8623 13.8842 10.7718 13.856C9.4598 13.5305 7.86258 13.9771 6.88867 14.9413C6.75887 15.0693 6.58401 15.1412 6.40171 15.1416Z" fill="black"/>
<path id="Vector_8" d="M6.01269 25.7753C5.8493 25.7738 5.69167 25.7148 5.56743 25.6086C5.44319 25.5025 5.36028 25.356 5.33323 25.1949C5.30618 25.0337 5.33672 24.8682 5.41949 24.7273C5.50226 24.5865 5.63198 24.4792 5.7859 24.4244C7.51145 23.827 9.30923 23.4635 11.1313 23.3433C9.35263 22.9383 7.51935 22.8292 5.70521 23.0206C5.61143 23.036 5.51549 23.0321 5.42329 23.009C5.3311 22.9859 5.24461 22.9442 5.16916 22.8864C5.0937 22.8287 5.03089 22.756 4.9846 22.673C4.9383 22.59 4.90951 22.4984 4.89999 22.4039C4.89046 22.3093 4.90042 22.2138 4.92923 22.1232C4.95805 22.0327 5.00512 21.949 5.06753 21.8773C5.12994 21.8056 5.20638 21.7475 5.29213 21.7065C5.37787 21.6655 5.47111 21.6426 5.56608 21.639C9.36712 21.2633 12.8927 21.9799 15.2356 23.6049C15.36 23.6958 15.4507 23.8254 15.4935 23.9733C15.5363 24.1213 15.5288 24.2793 15.4722 24.4225C15.4155 24.5658 15.3129 24.6861 15.1805 24.7648C15.048 24.8434 14.8932 24.8759 14.7403 24.8571C11.9925 24.4661 9.05269 24.7653 6.23947 25.7392C6.1664 25.7637 6.08976 25.7759 6.01269 25.7753Z" fill="black"/>
<path id="Vector_9" d="M31.9725 25.7753C31.8954 25.7754 31.8187 25.7627 31.7458 25.7377C28.9325 24.7638 25.9927 24.4661 23.2435 24.8626C23.0906 24.8814 22.9358 24.8489 22.8034 24.7703C22.6709 24.6916 22.5683 24.5713 22.5117 24.428C22.455 24.2848 22.4475 24.1268 22.4903 23.9788C22.5331 23.8309 22.6238 23.7013 22.7482 23.6104C25.0911 21.9868 28.6153 21.2702 32.4178 21.6445C32.5127 21.6481 32.606 21.671 32.6917 21.712C32.7774 21.753 32.8539 21.8111 32.9163 21.8828C32.9787 21.9545 33.0258 22.0382 33.0546 22.1287C33.0834 22.2193 33.0934 22.3148 33.0838 22.4094C33.0743 22.5039 33.0455 22.5955 32.9992 22.6785C32.9529 22.7615 32.8901 22.8342 32.8147 22.8919C32.7392 22.9497 32.6527 22.9914 32.5605 23.0145C32.4683 23.0376 32.3724 23.0415 32.2786 23.0261C30.4652 22.8331 28.6324 22.9402 26.8539 23.3433C28.6779 23.4629 30.4776 23.8265 32.2049 24.4243C32.3588 24.4791 32.4885 24.5864 32.5713 24.7273C32.6541 24.8682 32.6846 25.0337 32.6576 25.1948C32.6305 25.356 32.5476 25.5024 32.4234 25.6086C32.2991 25.7147 32.1415 25.7737 31.9781 25.7753H31.9725Z" fill="black"/>
</g>
</g>
<defs>
<clipPath id="clip0_2542_17214">
<rect width="48" height="48" fill="white"/>
</clipPath>
</defs>
</svg>
