<svg width="16" height="17" viewBox="0 0 16 17" fill="none" xmlns="http://www.w3.org/2000/svg">
<g clip-path="url(#clip0_84_2406)">
<path d="M15.2327 5.61991L9.23268 0.924575C8.88069 0.64885 8.44647 0.499023 7.99935 0.499023C7.55222 0.499023 7.118 0.64885 6.76601 0.924575L0.766012 5.61991C0.526541 5.80659 0.332997 6.04562 0.200219 6.31869C0.0674409 6.59176 -0.00104499 6.89161 1.20524e-05 7.19524V16.4999H16V7.19524C16.0009 6.8915 15.9322 6.59158 15.7992 6.3185C15.6662 6.04543 15.4724 5.80645 15.2327 5.61991ZM14.6667 15.1666H1.33335V7.19524C1.33302 7.09393 1.35593 6.9939 1.40031 6.90283C1.44469 6.81176 1.50936 6.73208 1.58935 6.66991L7.58935 1.97457C7.7066 1.88288 7.85117 1.83307 8.00001 1.83307C8.14886 1.83307 8.29343 1.88288 8.41068 1.97457L14.4107 6.66991C14.4907 6.73208 14.5553 6.81176 14.5997 6.90283C14.6441 6.9939 14.667 7.09393 14.6667 7.19524V15.1666ZM8.00001 5.83724C7.34001 5.83712 6.69482 6.03292 6.14621 6.39985C5.5976 6.76678 5.17027 7.28832 4.91837 7.89836C4.66647 8.50841 4.60134 9.1795 4.73124 9.8266C4.86113 10.4737 5.1802 11.0677 5.64801 11.5332L8.00001 13.8332L10.3573 11.5279C10.8236 11.0617 11.1412 10.4677 11.2699 9.82105C11.3986 9.17436 11.3325 8.50404 11.0802 7.89488C10.8279 7.28572 10.4005 6.76507 9.85224 6.39881C9.30396 6.03255 8.65937 5.83712 8.00001 5.83724ZM9.41935 10.5799L8.00001 11.9666L6.58535 10.5852C6.3059 10.3057 6.11554 9.94973 6.03828 9.56213C5.96102 9.17452 6.00033 8.77272 6.15125 8.40744C6.30217 8.04217 6.55793 7.7298 6.88624 7.50976C7.21456 7.28973 7.6007 7.17191 7.99593 7.17116C8.39115 7.17042 8.77774 7.28679 9.10688 7.50558C9.43602 7.72438 9.69295 8.03579 9.84525 8.40049C9.99754 8.7652 10.0384 9.16685 9.96256 9.55474C9.88676 9.94263 9.69773 10.2994 9.41935 10.5799ZM8.66668 9.16657C8.66668 9.29843 8.62758 9.42732 8.55433 9.53695C8.48107 9.64659 8.37695 9.73204 8.25513 9.78249C8.13332 9.83295 7.99927 9.84616 7.86995 9.82043C7.74063 9.79471 7.62184 9.73121 7.52861 9.63798C7.43537 9.54474 7.37188 9.42596 7.34616 9.29663C7.32043 9.16731 7.33363 9.03327 7.38409 8.91145C7.43455 8.78963 7.52 8.68552 7.62963 8.61226C7.73926 8.53901 7.86816 8.49991 8.00001 8.49991C8.17682 8.49991 8.34639 8.57015 8.47142 8.69517C8.59644 8.82019 8.66668 8.98976 8.66668 9.16657Z" fill="#374957"/>
</g>
<defs>
<clipPath id="clip0_84_2406">
<rect width="16" height="16" fill="white" transform="translate(0 0.5)"/>
</clipPath>
</defs>
</svg>
