<svg width="79" height="35" viewBox="0 0 79 35" fill="none" xmlns="http://www.w3.org/2000/svg">
    <path d="M6 14.9C6 9.85953 6 7.33929 6.98094 5.41409C7.8438 3.72063 9.22063 2.3438 10.9141 1.48094C12.8393 0.5 15.3595 0.5 20.4 0.5H24.6C29.6405 0.5 32.1607 0.5 34.0859 1.48094C35.7794 2.3438 37.1562 3.72063 38.0191 5.41409C39 7.33929 39 9.85953 39 14.9V19.1C39 24.1405 39 26.6607 38.0191 28.5859C37.1562 30.2794 35.7794 31.6562 34.0859 32.5191C32.1607 33.5 29.6405 33.5 24.6 33.5H20.4C15.3595 33.5 12.8393 33.5 10.9141 32.5191C9.22063 31.6562 7.8438 30.2794 6.98094 28.5859C6 26.6607 6 24.1405 6 19.1V14.9Z"
          fill="url(#paint0_linear_1392_8909)"/>
    <g filter="url(#filter0_d_1392_8909)">
        <path fill-rule="evenodd" clip-rule="evenodd"
              d="M15.1612 7.1001C15.1612 7.1001 14.913 7.30366 14.6277 7.57992C11.8861 10.2699 10.7784 14.3811 11.7416 18.216C12.6419 21.7893 15.013 24.6864 18.3919 26.3076C22.8303 28.4523 28.358 27.6453 31.7961 24.3593C32.3222 23.8613 33.0594 23.007 33.0298 22.9343C33.0224 22.9162 32.7705 23.0834 32.4741 23.2978C30.6698 24.6283 28.4543 25.497 26.2425 25.7442C24.9347 25.8896 23.5565 25.8278 22.2783 25.5697C21.5447 25.4171 19.9294 24.8427 19.2959 24.5083C14.9204 22.1782 12.5271 17.6781 13.0495 12.7744C13.2273 11.1423 14.0424 8.85582 14.9278 7.50722C15.0612 7.30366 15.1649 7.11827 15.1575 7.1001H15.1612Z"
              fill="url(#paint1_linear_1392_8909)"/>
        <path d="M25.2674 14.273C26.1077 14.273 26.7461 14.5472 27.1717 15.0992C27.223 15.1504 27.2597 15.1979 27.2854 15.2491C27.5239 14.7081 27.8945 14.3863 28.3972 14.2913C28.4852 14.2767 28.5659 14.273 28.643 14.273H29.4025C30.2464 14.273 30.8885 14.5472 31.3287 15.0992C31.5452 15.3881 31.6516 15.6952 31.6516 16.0205V19.501C31.6516 20.5173 31.9488 21.2704 32.5395 21.7603C32.7964 21.9504 33.1449 22.1551 33.5999 22.3855L32.7707 23.5334C31.5232 23.3287 30.5949 22.8534 29.9749 22.104C29.5969 21.6506 29.4098 21.1571 29.4098 20.6197V16.7992C29.4098 16.3971 29.2264 16.1302 28.8595 15.9876C28.7604 15.9547 28.6503 15.9328 28.5366 15.9328H27.5166V21.3874L25.2711 19.6399V16.7992C25.2711 16.3825 25.0876 16.1156 24.7207 15.9876C24.618 15.9547 24.5153 15.9328 24.4199 15.9328H23.4953V19.6399C23.4953 19.8117 23.4696 19.9726 23.4219 20.1225C23.4145 20.6635 23.1797 21.1169 22.7248 21.4751C22.4606 21.6653 22.1891 21.7603 21.9102 21.7603H19.9069C19.063 21.7603 18.4209 21.4752 17.9806 20.9158C17.7678 20.627 17.6614 20.3272 17.6614 20.0128V7.66676L19.9069 8.22612V12.3317H21.9102C21.9102 12.8472 21.635 13.2786 21.081 13.6296C20.7178 13.8672 20.3252 13.9878 19.9106 13.9878V19.2377C19.9106 19.6399 20.0904 19.9068 20.4609 20.0493C20.56 20.0859 20.6664 20.1078 20.7802 20.1078H21.0663L21.2535 19.7569V14.8653L23.4989 14.2803V14.7702C23.8108 14.4595 24.1594 14.2949 24.5373 14.2803H25.2748V14.273H25.2674Z"
              fill="url(#paint2_linear_1392_8909)"/>
        <path fill-rule="evenodd" clip-rule="evenodd"
              d="M25.2161 8.71322L26.3556 9.84413C26.5509 10.038 26.5509 10.3571 26.3556 10.5509L25.2161 11.6819C25.0208 11.8757 24.6993 11.8757 24.504 11.6819L23.3646 10.5509C23.1693 10.3571 23.1693 10.038 23.3646 9.84413L24.504 8.71322C24.6993 8.51935 25.0208 8.51935 25.2161 8.71322Z"
              fill="url(#paint3_linear_1392_8909)"/>
        <path fill-rule="evenodd" clip-rule="evenodd"
              d="M30.1604 8.71322L31.2998 9.84413C31.4951 10.038 31.4951 10.3571 31.2998 10.5509L30.1604 11.6819C29.965 11.8757 29.6436 11.8757 29.4482 11.6819L28.3088 10.5509C28.1135 10.3571 28.1135 10.038 28.3088 9.84413L29.4482 8.71322C29.6436 8.51935 29.965 8.51935 30.1604 8.71322Z"
              fill="url(#paint4_linear_1392_8909)"/>
    </g>
    <path d="M47.5079 10.7H54.6479V12.24H51.8899V20.5H50.2799V12.24H47.5079V10.7ZM56.3364 13.5V14.676C56.719 13.808 57.4377 13.374 58.4924 13.374V15.012C57.923 14.9747 57.419 15.1147 56.9804 15.432C56.551 15.74 56.3364 16.2533 56.3364 16.972V20.5H54.8244V13.5H56.3364ZM64.8254 14.494V13.5H66.3374V20.5H64.8254V19.492C64.2561 20.2853 63.4394 20.682 62.3754 20.682C61.4141 20.682 60.5927 20.3273 59.9114 19.618C59.2301 18.9087 58.8894 18.036 58.8894 17C58.8894 15.964 59.2301 15.0913 59.9114 14.382C60.5927 13.6727 61.4141 13.318 62.3754 13.318C63.4394 13.318 64.2561 13.71 64.8254 14.494ZM61.0314 18.61C61.4514 19.03 61.9787 19.24 62.6134 19.24C63.2481 19.24 63.7754 19.03 64.1954 18.61C64.6154 18.1807 64.8254 17.644 64.8254 17C64.8254 16.356 64.6154 15.824 64.1954 15.404C63.7754 14.9747 63.2481 14.76 62.6134 14.76C61.9787 14.76 61.4514 14.9747 61.0314 15.404C60.6114 15.824 60.4014 16.356 60.4014 17C60.4014 17.6347 60.6114 18.1713 61.0314 18.61ZM69.4168 15.432C69.4168 15.6467 69.5288 15.824 69.7528 15.964C69.9768 16.0947 70.3034 16.2207 70.7328 16.342C71.0594 16.4167 71.3441 16.496 71.5868 16.58C71.8294 16.664 72.0861 16.79 72.3568 16.958C72.6274 17.1167 72.8328 17.3313 72.9728 17.602C73.1221 17.8633 73.1921 18.1713 73.1828 18.526C73.1828 19.198 72.9214 19.7253 72.3988 20.108C71.8761 20.4907 71.2274 20.682 70.4528 20.682C69.7621 20.682 69.1694 20.5373 68.6748 20.248C68.1801 19.9587 67.8208 19.5573 67.5968 19.044L68.8988 18.288C69.1321 18.96 69.6501 19.296 70.4528 19.296C71.2461 19.296 71.6428 19.0347 71.6428 18.512C71.6428 18.1293 71.1994 17.8307 70.3128 17.616C69.9768 17.532 69.6921 17.448 69.4588 17.364C69.2348 17.28 68.9828 17.1587 68.7028 17C68.4321 16.8413 68.2221 16.6313 68.0728 16.37C67.9328 16.1087 67.8674 15.8053 67.8768 15.46C67.8768 14.816 68.1194 14.298 68.6048 13.906C69.0994 13.514 69.7108 13.318 70.4388 13.318C71.0174 13.318 71.5308 13.4487 71.9788 13.71C72.4361 13.962 72.7861 14.3167 73.0288 14.774L71.7548 15.488C71.5214 14.956 71.0828 14.69 70.4388 14.69C70.1401 14.69 69.8928 14.7553 69.6968 14.886C69.5101 15.0167 69.4168 15.1987 69.4168 15.432ZM78.1444 13.5V14.956H76.4084V18.316C76.4084 18.6053 76.4738 18.8153 76.6044 18.946C76.7351 19.0673 76.9264 19.1373 77.1784 19.156C77.4398 19.1653 77.7618 19.1607 78.1444 19.142V20.5C76.9871 20.64 76.1564 20.542 75.6524 20.206C75.1484 19.8607 74.8964 19.2307 74.8964 18.316V14.956H73.6084V13.5H74.8964V11.988L76.4084 11.54V13.5H78.1444Z"
          fill="#1F2937"/>
    <defs>
        <linearGradient id="paint0_linear_1392_8909" x1="6" y1="17" x2="39" y2="17" gradientUnits="userSpaceOnUse">
            <stop stop-color="#E2C881"/>
            <stop offset="1" stop-color="#8B6F2A"/>
        </linearGradient>
        <linearGradient id="paint1_linear_1392_8909" x1="29.8043" y1="8.56781" x2="29.8043" y2="24.2001"
                        gradientUnits="userSpaceOnUse">
            <stop stop-color="white"/>
            <stop offset="1" stop-color="#D8D8D8"/>
        </linearGradient>
        <linearGradient id="paint2_linear_1392_8909" x1="29.8043" y1="8.56781" x2="29.8043" y2="24.2001"
                        gradientUnits="userSpaceOnUse">
            <stop stop-color="white"/>
            <stop offset="1" stop-color="#D8D8D8"/>
        </linearGradient>
        <linearGradient id="paint3_linear_1392_8909" x1="29.8043" y1="8.56781" x2="29.8043" y2="24.2001"
                        gradientUnits="userSpaceOnUse">
            <stop stop-color="white"/>
            <stop offset="1" stop-color="#D8D8D8"/>
        </linearGradient>
        <linearGradient id="paint4_linear_1392_8909" x1="29.8043" y1="8.56781" x2="29.8043" y2="24.2001"
                        gradientUnits="userSpaceOnUse">
            <stop stop-color="white"/>
            <stop offset="1" stop-color="#D8D8D8"/>
        </linearGradient>
    </defs>
</svg>
