<svg width="166" height="55" viewBox="0 0 166 55" fill="none" xmlns="http://www.w3.org/2000/svg">
<rect width="55" height="55" rx="15" fill="url(#paint0_linear_84_2365)"/>
<g filter="url(#filter0_d_84_2365)">
<path fill-rule="evenodd" clip-rule="evenodd" d="M15.2689 11C15.2689 11 14.8552 11.3393 14.3797 11.7997C9.81037 16.2829 7.96411 23.135 9.56956 29.5266C11.07 35.482 15.0219 40.3105 20.6533 43.0126C28.0507 46.587 37.2634 45.2421 42.9936 39.7653C43.8705 38.9353 45.0992 37.5116 45.0498 37.3904C45.0375 37.3601 44.6176 37.6388 44.1236 37.9962C41.1165 40.2136 37.424 41.6616 33.7376 42.0735C31.5579 42.3159 29.2609 42.2129 27.1306 41.7827C25.908 41.5283 23.2158 40.571 22.1599 40.0137C14.8675 36.1302 10.8786 28.6299 11.7493 20.4572C12.0456 17.7369 13.4041 13.9262 14.8799 11.6785C15.1022 11.3393 15.2751 11.0303 15.2627 11H15.2689Z" fill="url(#paint1_linear_84_2365)"/>
<path d="M32.1126 22.9548C33.5129 22.9548 34.5769 23.4118 35.2863 24.3319C35.3719 24.4172 35.4331 24.4964 35.4759 24.5817C35.8734 23.6799 36.491 23.1437 37.3288 22.9853C37.4755 22.9609 37.61 22.9548 37.7385 22.9548H39.0043C40.4108 22.9548 41.4809 23.4118 42.2147 24.3319C42.5755 24.8133 42.7529 25.3251 42.7529 25.8674V31.6681C42.7529 33.362 43.2482 34.6172 44.2327 35.4337C44.6608 35.7505 45.2417 36.0918 46 36.4756L44.618 38.3889C42.5388 38.0477 40.9917 37.2556 39.9583 36.0065C39.3284 35.2509 39.0165 34.4283 39.0165 33.5326V27.1652C39.0165 26.495 38.7108 26.0502 38.0993 25.8125C37.9342 25.7577 37.7507 25.7211 37.5611 25.7211H35.8611V34.8122L32.1187 31.8996V27.1652C32.1187 26.4706 31.8129 26.0258 31.2014 25.8125C31.0302 25.7577 30.859 25.7211 30.7 25.7211H29.1589V31.8996C29.1589 32.186 29.1161 32.4541 29.0366 32.7039C29.0244 33.6057 28.633 34.3613 27.8748 34.9584C27.4345 35.2753 26.982 35.4337 26.5172 35.4337H23.1784C21.7719 35.4337 20.7017 34.9584 19.9679 34.0262C19.6132 33.5448 19.4359 33.0452 19.4359 32.5211V11.9444L23.1784 12.8767V19.7194H26.5172C26.5172 20.5785 26.0586 21.2975 25.1352 21.8824C24.5298 22.2785 23.8755 22.4796 23.1845 22.4796V31.2294C23.1845 31.8996 23.4841 32.3444 24.1017 32.5821C24.2668 32.643 24.4442 32.6796 24.6338 32.6796H25.1107L25.4226 32.0946V23.9419L29.1651 22.967V23.7835C29.6848 23.2656 30.2658 22.9914 30.8956 22.967H32.1248V22.9548H32.1126Z" fill="url(#paint2_linear_84_2365)"/>
<path fill-rule="evenodd" clip-rule="evenodd" d="M32.0271 13.6885L33.9261 15.5734C34.2516 15.8965 34.2516 16.4283 33.9261 16.7514L32.0271 18.6363C31.7015 18.9594 31.1657 18.9594 30.8402 18.6363L28.9412 16.7514C28.6156 16.4283 28.6156 15.8965 28.9412 15.5734L30.8402 13.6885C31.1657 13.3654 31.7015 13.3654 32.0271 13.6885Z" fill="url(#paint3_linear_84_2365)"/>
<path fill-rule="evenodd" clip-rule="evenodd" d="M40.2674 13.6885L42.1665 15.5734C42.492 15.8965 42.492 16.4283 42.1665 16.7514L40.2674 18.6363C39.9419 18.9594 39.4061 18.9594 39.0806 18.6363L37.1815 16.7514C36.856 16.4283 36.856 15.8965 37.1815 15.5734L39.0806 13.6885C39.4061 13.3654 39.9419 13.3654 40.2674 13.6885Z" fill="url(#paint4_linear_84_2365)"/>
</g>
<path d="M70.26 9.5H80.56V12.14H76.78V23.5H74.02V12.14H70.26V9.5ZM83.2913 13.5V15.22C83.5179 14.5933 83.9046 14.12 84.4513 13.8C84.9979 13.4667 85.6246 13.3 86.3313 13.3V16.18C85.5446 16.0733 84.8379 16.2333 84.2113 16.66C83.5979 17.0733 83.2913 17.76 83.2913 18.72V23.5H80.7113V13.5H83.2913ZM95.0691 14.68V13.5H97.6491V23.5H95.0691V22.32C94.2957 23.2933 93.2091 23.78 91.8091 23.78C90.4757 23.78 89.3291 23.2733 88.3691 22.26C87.4224 21.2333 86.9491 19.98 86.9491 18.5C86.9491 17.0333 87.4224 15.7867 88.3691 14.76C89.3291 13.7333 90.4757 13.22 91.8091 13.22C93.2091 13.22 94.2957 13.7067 95.0691 14.68ZM90.3091 20.54C90.8291 21.06 91.4891 21.32 92.2891 21.32C93.0891 21.32 93.7491 21.06 94.2691 20.54C94.8024 20.0067 95.0691 19.3267 95.0691 18.5C95.0691 17.6733 94.8024 17 94.2691 16.48C93.7491 15.9467 93.0891 15.68 92.2891 15.68C91.4891 15.68 90.8291 15.9467 90.3091 16.48C89.7891 17 89.5291 17.6733 89.5291 18.5C89.5291 19.3267 89.7891 20.0067 90.3091 20.54ZM102.29 16.34C102.29 16.7667 102.897 17.1333 104.11 17.44C104.537 17.5333 104.924 17.6467 105.27 17.78C105.617 17.9 105.964 18.08 106.31 18.32C106.67 18.5467 106.95 18.8533 107.15 19.24C107.35 19.6267 107.45 20.0733 107.45 20.58C107.45 21.6067 107.064 22.4 106.29 22.96C105.517 23.5067 104.564 23.78 103.43 23.78C101.377 23.78 99.9771 22.9867 99.2305 21.4L101.47 20.14C101.777 21.0067 102.43 21.44 103.43 21.44C104.35 21.44 104.81 21.1533 104.81 20.58C104.81 20.1533 104.204 19.7867 102.99 19.48C102.537 19.36 102.15 19.24 101.83 19.12C101.51 19 101.164 18.8267 100.79 18.6C100.417 18.36 100.13 18.06 99.9305 17.7C99.7438 17.3267 99.6505 16.8933 99.6505 16.4C99.6505 15.4133 100.01 14.64 100.73 14.08C101.464 13.5067 102.37 13.22 103.45 13.22C104.264 13.22 105.004 13.4067 105.67 13.78C106.337 14.14 106.864 14.66 107.25 15.34L105.05 16.54C104.73 15.86 104.197 15.52 103.45 15.52C103.117 15.52 102.837 15.6 102.61 15.76C102.397 15.9067 102.29 16.1 102.29 16.34ZM114.537 13.5V15.98H112.277V20.14C112.277 20.4867 112.363 20.74 112.537 20.9C112.71 21.06 112.963 21.1533 113.297 21.18C113.63 21.1933 114.043 21.1867 114.537 21.16V23.5C112.79 23.7 111.543 23.54 110.797 23.02C110.063 22.4867 109.697 21.5267 109.697 20.14V15.98H107.957V13.5H109.697V11.48L112.277 10.7V13.5H114.537ZM82.16 27.5H85V41.5H82.26V32.42L78.32 38.92H78L74.06 32.44V41.5H71.3V27.5H74.14L78.16 34.12L82.16 27.5ZM94.0886 36.9V31.5H96.6686V41.5H94.0886V40.38C93.4753 41.3133 92.4819 41.78 91.1086 41.78C90.0153 41.78 89.1086 41.4133 88.3886 40.68C87.6819 39.9333 87.3286 38.92 87.3286 37.64V31.5H89.9086V37.32C89.9086 37.9733 90.0819 38.48 90.4286 38.84C90.7886 39.2 91.2753 39.38 91.8886 39.38C92.5686 39.38 93.1019 39.1733 93.4886 38.76C93.8886 38.3333 94.0886 37.7133 94.0886 36.9ZM106.632 32.68V31.5H109.212V41.5H106.632V40.32C105.858 41.2933 104.772 41.78 103.372 41.78C102.038 41.78 100.892 41.2733 99.9316 40.26C98.9849 39.2333 98.5116 37.98 98.5116 36.5C98.5116 35.0333 98.9849 33.7867 99.9316 32.76C100.892 31.7333 102.038 31.22 103.372 31.22C104.772 31.22 105.858 31.7067 106.632 32.68ZM101.872 38.54C102.392 39.06 103.052 39.32 103.852 39.32C104.652 39.32 105.312 39.06 105.832 38.54C106.365 38.0067 106.632 37.3267 106.632 36.5C106.632 35.6733 106.365 35 105.832 34.48C105.312 33.9467 104.652 33.68 103.852 33.68C103.052 33.68 102.392 33.9467 101.872 34.48C101.352 35 101.092 35.6733 101.092 36.5C101.092 37.3267 101.352 38.0067 101.872 38.54ZM122.611 31.22C123.758 31.22 124.671 31.5933 125.351 32.34C126.044 33.0867 126.391 34.0867 126.391 35.34V41.5H123.811V35.52C123.811 34.92 123.664 34.4533 123.371 34.12C123.078 33.7867 122.664 33.62 122.131 33.62C121.544 33.62 121.084 33.8133 120.751 34.2C120.431 34.5867 120.271 35.1467 120.271 35.88V41.5H117.691V35.52C117.691 34.92 117.544 34.4533 117.251 34.12C116.958 33.7867 116.544 33.62 116.011 33.62C115.438 33.62 114.978 33.82 114.631 34.22C114.298 34.6067 114.131 35.16 114.131 35.88V41.5H111.551V31.5H114.131V32.56C114.731 31.6667 115.658 31.22 116.911 31.22C118.151 31.22 119.058 31.7 119.631 32.66C120.284 31.7 121.278 31.22 122.611 31.22ZM136.182 32.68V31.5H138.762V41.5H136.182V40.32C135.409 41.2933 134.322 41.78 132.922 41.78C131.589 41.78 130.442 41.2733 129.482 40.26C128.536 39.2333 128.062 37.98 128.062 36.5C128.062 35.0333 128.536 33.7867 129.482 32.76C130.442 31.7333 131.589 31.22 132.922 31.22C134.322 31.22 135.409 31.7067 136.182 32.68ZM131.422 38.54C131.942 39.06 132.602 39.32 133.402 39.32C134.202 39.32 134.862 39.06 135.382 38.54C135.916 38.0067 136.182 37.3267 136.182 36.5C136.182 35.6733 135.916 35 135.382 34.48C134.862 33.9467 134.202 33.68 133.402 33.68C132.602 33.68 131.942 33.9467 131.422 34.48C130.902 35 130.642 35.6733 130.642 36.5C130.642 37.3267 130.902 38.0067 131.422 38.54ZM143.682 41.5H141.102V26.9H143.682V41.5ZM153.643 32.68V31.5H156.223V41.5H153.643V40.32C152.87 41.2933 151.783 41.78 150.383 41.78C149.05 41.78 147.903 41.2733 146.943 40.26C145.997 39.2333 145.523 37.98 145.523 36.5C145.523 35.0333 145.997 33.7867 146.943 32.76C147.903 31.7333 149.05 31.22 150.383 31.22C151.783 31.22 152.87 31.7067 153.643 32.68ZM148.883 38.54C149.403 39.06 150.063 39.32 150.863 39.32C151.663 39.32 152.323 39.06 152.843 38.54C153.377 38.0067 153.643 37.3267 153.643 36.5C153.643 35.6733 153.377 35 152.843 34.48C152.323 33.9467 151.663 33.68 150.863 33.68C150.063 33.68 149.403 33.9467 148.883 34.48C148.363 35 148.103 35.6733 148.103 36.5C148.103 37.3267 148.363 38.0067 148.883 38.54ZM164.283 31.5V33.98H162.023V38.14C162.023 38.4867 162.109 38.74 162.283 38.9C162.456 39.06 162.709 39.1533 163.043 39.18C163.376 39.1933 163.789 39.1867 164.283 39.16V41.5C162.536 41.7 161.289 41.54 160.543 41.02C159.809 40.4867 159.443 39.5267 159.443 38.14V33.98H157.703V31.5H159.443V29.48L162.023 28.7V31.5H164.283Z" fill="black"/>
<defs>
<filter id="filter0_d_84_2365" x="5" y="11" width="45" height="42" filterUnits="userSpaceOnUse" color-interpolation-filters="sRGB">
<feFlood flood-opacity="0" result="BackgroundImageFix"/>
<feColorMatrix in="SourceAlpha" type="matrix" values="0 0 0 0 0 0 0 0 0 0 0 0 0 0 0 0 0 0 127 0" result="hardAlpha"/>
<feOffset dy="4"/>
<feGaussianBlur stdDeviation="2"/>
<feComposite in2="hardAlpha" operator="out"/>
<feColorMatrix type="matrix" values="0 0 0 0 0 0 0 0 0 0 0 0 0 0 0 0 0 0 0.25 0"/>
<feBlend mode="normal" in2="BackgroundImageFix" result="effect1_dropShadow_84_2365"/>
<feBlend mode="normal" in="SourceGraphic" in2="effect1_dropShadow_84_2365" result="shape"/>
</filter>
<linearGradient id="paint0_linear_84_2365" x1="0" y1="27.5" x2="55" y2="27.5" gradientUnits="userSpaceOnUse">
<stop stop-color="#E2C881"/>
<stop offset="1" stop-color="#8B6F2A"/>
</linearGradient>
<linearGradient id="paint1_linear_84_2365" x1="39.674" y1="13.4462" x2="39.674" y2="39.5" gradientUnits="userSpaceOnUse">
<stop stop-color="white"/>
<stop offset="1" stop-color="#D8D8D8"/>
</linearGradient>
<linearGradient id="paint2_linear_84_2365" x1="39.674" y1="13.4462" x2="39.674" y2="39.5" gradientUnits="userSpaceOnUse">
<stop stop-color="white"/>
<stop offset="1" stop-color="#D8D8D8"/>
</linearGradient>
<linearGradient id="paint3_linear_84_2365" x1="39.674" y1="13.4462" x2="39.674" y2="39.5" gradientUnits="userSpaceOnUse">
<stop stop-color="white"/>
<stop offset="1" stop-color="#D8D8D8"/>
</linearGradient>
<linearGradient id="paint4_linear_84_2365" x1="39.674" y1="13.4462" x2="39.674" y2="39.5" gradientUnits="userSpaceOnUse">
<stop stop-color="white"/>
<stop offset="1" stop-color="#D8D8D8"/>
</linearGradient>
</defs>
</svg>
