<svg width="24" height="24" viewBox="0 0 24 24" fill="none" xmlns="http://www.w3.org/2000/svg">
<g id="marketplace-alt" clip-path="url(#clip0_2465_12678)">
<path id="Vector" d="M16 11.5C16 12.328 15.328 13 14.5 13C13.672 13 13 12.328 13 11.5C13 10.672 13.672 9.99998 14.5 9.99998C15.328 9.99998 16 10.672 16 11.5ZM19 11.5C19 12.328 19.672 13 20.5 13C21.328 13 22 12.328 22 11.5C22 10.672 21.328 9.99998 20.5 9.99998C19.672 9.99998 19 10.672 19 11.5ZM11 1.99998H11.316C11.804 1.99998 12.219 2.34898 12.302 2.82998L12.939 6.51098C13.187 7.95398 14.43 9.00098 15.895 9.00098H20.324C21.643 9.00098 22.794 8.15598 23.186 6.89898L23.908 4.59998C24.1 3.98598 23.993 3.33598 23.612 2.81698C23.231 2.29798 22.643 2.00098 22 2.00098H14.146C13.73 0.816976 12.609 0.000976562 11.316 0.000976562H11C10.448 0.000976562 10 0.448977 10 1.00098C10 1.55298 10.448 1.99998 11 1.99998ZM20.5 15C19.22 15 18.11 14.302 17.5 13.274C16.89 14.302 15.78 15 14.5 15C12.57 15 11 13.43 11 11.5C11 10.565 11.374 9.71898 11.974 9.08998C11.473 8.45398 11.113 7.69598 10.968 6.84898L10.467 3.95298C9.401 3.75998 8.532 3.00098 8.176 1.99998H5.001C2.243 1.99998 0 4.24298 0 6.99998V15C0 17.757 2.243 20 5 20H11V22H7C6.448 22 6 22.448 6 23C6 23.552 6.448 24 7 24H17C17.553 24 18 23.552 18 23C18 22.448 17.553 22 17 22H13V20H19C21.757 20 24 17.757 24 15V11.5C24 13.43 22.43 15 20.5 15Z" fill="url(#paint0_linear_2465_12678)"/>
</g>
<defs>
<linearGradient id="paint0_linear_2465_12678" x1="0" y1="12.0005" x2="24.0013" y2="12.0005" gradientUnits="userSpaceOnUse">
<stop stop-color="#E2C881"/>
<stop offset="1" stop-color="#8B6F2A"/>
</linearGradient>
<clipPath id="clip0_2465_12678">
<rect width="24" height="24" fill="white"/>
</clipPath>
</defs>
</svg>
