<svg width="31" height="31" viewBox="0 0 31 31" fill="none" xmlns="http://www.w3.org/2000/svg">
<path d="M27.6618 13.2949L24.552 9.02985C23.5378 7.6395 21.9258 6.82007 20.2063 6.82007H6.28935C3.32058 6.82007 0.916016 9.22464 0.916016 12.1934V17.5667C0.916016 20.5355 3.32058 22.9401 6.28935 22.9401H20.2063C21.9258 22.9401 23.5378 22.1206 24.552 20.7303L27.6618 16.4652C28.3536 15.5182 28.3536 14.242 27.6618 13.2949ZM22.94 16.8951C21.825 16.8951 20.925 15.995 20.925 14.8801C20.925 13.7651 21.825 12.8651 22.94 12.8651C24.0549 12.8651 24.955 13.7651 24.955 14.8801C24.955 15.995 24.0549 16.8951 22.94 16.8951Z" fill="#FFE066"/>
<path d="M28.2461 13.8255C28.1789 13.8927 28.1051 13.9598 28.0379 14.0203C27.0975 14.8934 26.0833 15.4979 25.1228 15.7733C24.9751 15.8136 24.834 15.8472 24.693 15.8741C24.4646 15.9144 24.2497 15.9345 24.0415 15.9345C23.3631 15.9345 22.7922 15.7196 22.369 15.3032C21.8787 14.8196 21.6638 14.0942 21.7645 13.2479C22.0936 13.0061 22.5033 12.865 22.9399 12.865C23.0205 12.865 23.0944 12.8717 23.175 12.8852C23.175 12.9456 23.1683 13.0061 23.1549 13.0665C23.0743 13.4091 22.987 14.027 23.3161 14.3494C23.5847 14.6113 24.1086 14.6651 24.7534 14.4837C24.8005 14.4703 24.8542 14.4569 24.9012 14.4367C25.6736 14.1815 26.5266 13.6307 27.2587 12.912L27.3326 12.8381C28.8708 11.2597 29.3544 9.47981 28.77 8.90218C28.273 8.39843 26.7416 8.69396 25.2773 9.93654C25.2639 9.94998 25.2505 9.9567 25.237 9.96341L24.5519 9.02979C24.5184 8.98278 24.4781 8.93576 24.4445 8.88874C26.4057 7.24316 28.6222 6.84688 29.7238 7.94841C30.9529 9.18428 30.3081 11.7635 28.2461 13.8255Z" fill="#50514F"/>
<path d="M28.0849 14.2426C28.0667 14.1687 28.0627 14.0928 28.0379 14.0203C27.0975 14.8934 26.0833 15.4979 25.1228 15.7733C24.9751 15.8136 24.834 15.8472 24.693 15.8741C24.6359 15.9755 24.5674 16.0688 24.4941 16.1582C24.5613 16.1494 24.6231 16.1521 24.693 16.14C24.834 16.1132 24.9751 16.0796 25.1228 16.0393C26.0833 15.7639 27.0975 15.1594 28.0379 14.2862C28.0526 14.2728 28.0688 14.2567 28.0849 14.2426Z" fill="#CCAD66"/>
<path d="M24.7769 16.3779C24.877 16.2053 24.9408 16.0098 24.9844 15.8056C24.8871 15.8298 24.789 15.856 24.6929 15.8741C24.3504 16.4854 23.6922 16.8951 22.9399 16.8951C22.0231 16.8951 21.2607 16.2825 21.0149 15.4463C21.0485 16.5317 21.9304 17.3988 23.0238 17.3988C23.7761 17.3988 24.4343 16.9891 24.7769 16.3779Z" fill="#CCAD66"/>
<path d="M7.861 11.8548C7.49024 11.8548 7.18933 12.1557 7.18933 12.5265V14.9807L5.18575 12.1396C5.01716 11.8998 4.71357 11.797 4.43348 11.8864C4.15474 11.9744 3.96533 12.2336 3.96533 12.5265V17.0992C3.96533 17.4699 4.26624 17.7709 4.637 17.7709C5.00776 17.7709 5.30867 17.4699 5.30867 17.0992V14.6449L7.31225 17.4861C7.44054 17.6681 7.64741 17.7709 7.861 17.7709C7.92884 17.7709 7.99735 17.7608 8.06384 17.7393C8.34326 17.6506 8.53267 17.392 8.53267 17.0992V12.5265C8.53267 12.155 8.23243 11.8548 7.861 11.8548Z" fill="#F25F5C"/>
<path d="M12.061 16.427H10.4866V15.484H11.8433C12.2141 15.484 12.515 15.1831 12.515 14.8123C12.515 14.4416 12.2141 14.1407 11.8433 14.1407H10.4873V13.1983H11.9555C12.3263 13.1983 12.6272 12.8974 12.6272 12.5266C12.6272 12.1559 12.3263 11.855 11.9555 11.855H9.81424C9.44348 11.8557 9.14258 12.1559 9.14258 12.5266C9.14258 12.5421 9.14325 12.5582 9.14392 12.5737L9.14258 17.0987C9.14258 17.2773 9.21377 17.4479 9.34005 17.5742C9.46632 17.7005 9.6376 17.771 9.81559 17.771H12.0603C12.4311 17.771 12.732 17.4701 12.732 17.0994C12.732 16.7286 12.4317 16.427 12.061 16.427Z" fill="#F25F5C"/>
<path d="M19.5191 11.9066C19.1651 11.8146 18.7937 12.0296 18.701 12.3896L18.0676 14.8512L17.1266 12.2861C17.0292 12.0215 16.7773 11.8462 16.4966 11.8462C16.2158 11.8462 15.9633 12.0222 15.8665 12.2861L14.9249 14.8512L14.2915 12.3896C14.1988 12.0302 13.8348 11.8133 13.4734 11.9066C13.1141 11.9993 12.8984 12.3654 12.9905 12.7247L14.1619 17.2753C14.2351 17.5601 14.4849 17.7642 14.7784 17.7784C15.0673 17.7925 15.3406 17.6151 15.4427 17.3391L16.4966 14.467L17.5504 17.3391C17.6478 17.6044 17.9003 17.779 18.1804 17.779C18.1919 17.779 18.2026 17.779 18.214 17.7784C18.5082 17.7642 18.7581 17.5601 18.8313 17.2753L20.0027 12.7247C20.0954 12.3647 19.8784 11.9987 19.5191 11.9066Z" fill="#F25F5C"/>
</svg>
