<svg width="230" height="68" viewBox="0 0 230 68" fill="none" xmlns="http://www.w3.org/2000/svg">
<g id="Mobile app store badge">
<rect x="0.85" y="0.85" width="228.14" height="66.3" rx="7.65" stroke="url(#paint0_linear_1421_8819)" stroke-width="1.7"/>
<path id="Google Play" d="M116.003 36.9768C111.999 36.9768 108.735 40.0181 108.735 44.2069C108.735 48.3702 111.999 51.437 116.003 51.437C120.009 51.437 123.273 48.3702 123.273 44.2069C123.271 40.0181 120.008 36.9768 116.003 36.9768ZM116.003 48.5912C113.809 48.5912 111.917 46.7841 111.917 44.2086C111.917 41.6059 113.81 39.826 116.003 39.826C118.198 39.826 120.089 41.6059 120.089 44.2086C120.089 46.7824 118.198 48.5912 116.003 48.5912ZM100.146 36.9768C96.1417 36.9768 92.878 40.0181 92.878 44.2069C92.878 48.3702 96.1417 51.437 100.146 51.437C104.152 51.437 107.416 48.3702 107.416 44.2069C107.416 40.0181 104.152 36.9768 100.146 36.9768ZM100.146 48.5912C97.9515 48.5912 96.06 46.7841 96.06 44.2086C96.06 41.6059 97.9532 39.826 100.146 39.826C102.341 39.826 104.232 41.6059 104.232 44.2086C104.234 46.7824 102.341 48.5912 100.146 48.5912ZM81.2855 39.197V42.2638H88.637C88.4174 43.9893 87.8419 45.249 86.9634 46.1245C85.8942 47.1921 84.2207 48.3702 81.2855 48.3702C76.7602 48.3702 73.2224 44.7271 73.2224 40.2085C73.2224 35.6899 76.7602 32.0468 81.2855 32.0468C83.7269 32.0468 85.5095 33.0056 86.8255 34.2381L88.9928 32.074C87.1541 30.3213 84.7144 28.98 81.2855 28.98C75.0867 28.98 69.8752 34.0188 69.8752 40.2085C69.8752 46.3982 75.0867 51.437 81.2855 51.437C84.631 51.437 87.1558 50.3405 89.129 48.2869C91.1584 46.2605 91.7901 43.4113 91.7901 41.1112C91.7901 40.4006 91.7356 39.7427 91.6249 39.1953H81.2855V39.197ZM158.423 41.5787C157.821 39.9637 155.982 36.9768 152.224 36.9768C148.494 36.9768 145.394 39.9076 145.394 44.2069C145.394 48.2597 148.467 51.437 152.58 51.437C155.898 51.437 157.819 49.4106 158.616 48.2325L156.147 46.5886C155.325 47.7939 154.199 48.5878 152.58 48.5878C150.963 48.5878 149.81 47.8483 149.07 46.3965L158.752 42.3981L158.423 41.5787ZM148.549 43.9893C148.467 41.1945 150.716 39.7716 152.335 39.7716C153.597 39.7716 154.666 40.4023 155.023 41.305L148.549 43.9893ZM140.678 51.0001H143.858V29.7484H140.678V51.0001ZM135.465 38.5935H135.356C134.642 37.7435 133.27 36.9768 131.544 36.9768C127.923 36.9768 124.604 40.1541 124.604 44.2358C124.604 48.2886 127.923 51.4387 131.544 51.4387C133.272 51.4387 134.642 50.672 135.356 49.7965H135.465V50.8369C135.465 53.6028 133.984 55.0818 131.598 55.0818C129.651 55.0818 128.444 53.6861 127.95 52.508L125.18 53.6589C125.975 55.5748 128.086 57.931 131.598 57.931C135.329 57.931 138.483 55.7397 138.483 50.3983V37.4171H135.466V38.5935H135.465ZM131.818 48.5912C129.623 48.5912 127.786 46.7552 127.786 44.2358C127.786 41.6875 129.623 39.826 131.818 39.826C133.984 39.826 135.684 41.6875 135.684 44.2358C135.684 46.7552 133.984 48.5912 131.818 48.5912ZM173.327 29.7484H165.715V51.0001H168.89V42.9489H173.325C176.846 42.9489 180.309 40.404 180.309 36.3495C180.309 32.295 176.848 29.7484 173.327 29.7484ZM173.409 39.9909H168.89V32.7064H173.409C175.784 32.7064 177.132 34.6699 177.132 36.3495C177.132 37.9951 175.784 39.9909 173.409 39.9909ZM193.042 36.9394C190.742 36.9394 188.36 37.9509 187.375 40.1932L190.194 41.3679C190.797 40.1932 191.92 39.809 193.097 39.809C194.74 39.809 196.41 40.7933 196.437 42.5426V42.7619C195.862 42.4338 194.629 41.9425 193.124 41.9425C190.085 41.9425 186.99 43.6102 186.99 46.7263C186.99 49.5704 189.482 51.4013 192.274 51.4013C194.409 51.4013 195.588 50.4442 196.326 49.3222H196.435V50.9627H199.503V42.8146C199.505 39.044 196.682 36.9394 193.042 36.9394ZM192.657 48.5861C191.619 48.5861 190.167 48.0659 190.167 46.7807C190.167 45.1402 191.975 44.5112 193.536 44.5112C194.93 44.5112 195.589 44.8121 196.437 45.2218C196.19 47.1921 194.493 48.5861 192.657 48.5861ZM210.675 37.4035L207.034 46.6175H206.925L203.145 37.4035H199.723L205.391 50.281L202.159 57.4448H205.472L214.208 37.4035H210.675ZM182.063 51.0001H185.238V29.7484H182.063V51.0001Z" fill="url(#paint1_linear_1421_8819)"/>
<g id="Get it on">
<path d="M80.7298 17.4131C80.7298 18.8377 80.3076 19.9716 79.4614 20.8182C78.5012 21.8246 77.2482 22.3278 75.7091 22.3278C74.2347 22.3278 72.98 21.8178 71.9499 20.7978C70.9182 19.7761 70.4023 18.5113 70.4023 17.0017C70.4023 15.4904 70.9182 14.2256 71.9499 13.2056C72.98 12.1839 74.2347 11.6739 75.7091 11.6739C76.4412 11.6739 77.1409 11.8167 77.8049 12.1006C78.4706 12.3862 79.0035 12.7653 79.4019 13.2396L78.5046 14.1372C77.8287 13.3297 76.8974 12.9268 75.7074 12.9268C74.6314 12.9268 73.7018 13.3042 72.917 14.059C72.1321 14.8138 71.7405 15.7947 71.7405 17C71.7405 18.2053 72.1321 19.1862 72.917 19.941C73.7018 20.6958 74.6314 21.0732 75.7074 21.0732C76.8481 21.0732 77.7998 20.6941 78.5608 19.9342C79.0545 19.4395 79.3406 18.751 79.4172 17.8687H75.7074V16.643H80.6566C80.7077 16.9099 80.7298 17.1666 80.7298 17.4131Z" fill="url(#paint2_linear_1421_8819)"/>
<path d="M88.5786 13.153H83.9273V16.3864H88.1223V17.6121H83.9273V20.8455H88.5786V22.1001H82.6147V11.9001H88.5786V13.153Z" fill="url(#paint3_linear_1421_8819)"/>
<path d="M94.1133 22.1001H92.8007V13.153H89.9472V11.9001H96.9667V13.153H94.1133V22.1001Z" fill="url(#paint4_linear_1421_8819)"/>
<path d="M102.045 22.1001V11.9001H103.358V22.1001H102.045Z" fill="url(#paint5_linear_1421_8819)"/>
<path d="M109.179 22.1001H107.866V13.153H105.013V11.9001H112.033V13.153H109.179V22.1001Z" fill="url(#paint6_linear_1421_8819)"/>
<path d="M125.32 20.7826C124.316 21.8128 123.068 22.3279 121.575 22.3279C120.082 22.3279 118.834 21.8128 117.831 20.7826C116.826 19.7524 116.326 18.491 116.326 17.0001C116.326 15.5092 116.826 14.2478 117.831 13.2176C118.834 12.1874 120.082 11.6706 121.575 11.6706C123.059 11.6706 124.306 12.1891 125.313 13.2244C126.321 14.2597 126.825 15.5177 126.825 17.0001C126.825 18.491 126.323 19.7524 125.32 20.7826ZM118.8 19.9275C119.556 20.6925 120.48 21.0733 121.575 21.0733C122.669 21.0733 123.596 20.6908 124.35 19.9275C125.106 19.1625 125.485 18.1867 125.485 17.0001C125.485 15.8135 125.106 14.8377 124.35 14.0727C123.596 13.3077 122.669 12.9269 121.575 12.9269C120.48 12.9269 119.556 13.3094 118.8 14.0727C118.045 14.8377 117.666 15.8135 117.666 17.0001C117.666 18.1867 118.045 19.1625 118.8 19.9275Z" fill="url(#paint7_linear_1421_8819)"/>
<path d="M128.667 22.1001V11.9001H130.264L135.229 19.834H135.285L135.229 17.8688V11.9001H136.542V22.1001H135.171L129.977 13.7803H129.921L129.977 15.7455V22.1001H128.667Z" fill="url(#paint8_linear_1421_8819)"/>
<path d="M80.7298 17.4131C80.7298 18.8377 80.3076 19.9716 79.4614 20.8182C78.5012 21.8246 77.2482 22.3278 75.7091 22.3278C74.2347 22.3278 72.98 21.8178 71.9499 20.7978C70.9182 19.7761 70.4023 18.5113 70.4023 17.0017C70.4023 15.4904 70.9182 14.2256 71.9499 13.2056C72.98 12.1839 74.2347 11.6739 75.7091 11.6739C76.4412 11.6739 77.1409 11.8167 77.8049 12.1006C78.4706 12.3862 79.0035 12.7653 79.4019 13.2396L78.5046 14.1372C77.8287 13.3297 76.8974 12.9268 75.7074 12.9268C74.6314 12.9268 73.7018 13.3042 72.917 14.059C72.1321 14.8138 71.7405 15.7947 71.7405 17C71.7405 18.2053 72.1321 19.1862 72.917 19.941C73.7018 20.6958 74.6314 21.0732 75.7074 21.0732C76.8481 21.0732 77.7998 20.6941 78.5608 19.9342C79.0545 19.4395 79.3406 18.751 79.4172 17.8687H75.7074V16.643H80.6566C80.7077 16.9099 80.7298 17.1666 80.7298 17.4131Z" stroke="url(#paint9_linear_1421_8819)" stroke-width="0.34" stroke-miterlimit="10"/>
<path d="M88.5786 13.153H83.9273V16.3864H88.1223V17.6121H83.9273V20.8455H88.5786V22.1001H82.6147V11.9001H88.5786V13.153Z" stroke="url(#paint10_linear_1421_8819)" stroke-width="0.34" stroke-miterlimit="10"/>
<path d="M94.1133 22.1001H92.8007V13.153H89.9472V11.9001H96.9667V13.153H94.1133V22.1001Z" stroke="url(#paint11_linear_1421_8819)" stroke-width="0.34" stroke-miterlimit="10"/>
<path d="M102.045 22.1001V11.9001H103.358V22.1001H102.045Z" stroke="url(#paint12_linear_1421_8819)" stroke-width="0.34" stroke-miterlimit="10"/>
<path d="M109.179 22.1001H107.866V13.153H105.013V11.9001H112.033V13.153H109.179V22.1001Z" stroke="url(#paint13_linear_1421_8819)" stroke-width="0.34" stroke-miterlimit="10"/>
<path d="M125.32 20.7826C124.316 21.8128 123.068 22.3279 121.575 22.3279C120.082 22.3279 118.834 21.8128 117.831 20.7826C116.826 19.7524 116.326 18.491 116.326 17.0001C116.326 15.5092 116.826 14.2478 117.831 13.2176C118.834 12.1874 120.082 11.6706 121.575 11.6706C123.059 11.6706 124.306 12.1891 125.313 13.2244C126.321 14.2597 126.825 15.5177 126.825 17.0001C126.825 18.491 126.323 19.7524 125.32 20.7826ZM118.8 19.9275C119.556 20.6925 120.48 21.0733 121.575 21.0733C122.669 21.0733 123.596 20.6908 124.35 19.9275C125.106 19.1625 125.485 18.1867 125.485 17.0001C125.485 15.8135 125.106 14.8377 124.35 14.0727C123.596 13.3077 122.669 12.9269 121.575 12.9269C120.48 12.9269 119.556 13.3094 118.8 14.0727C118.045 14.8377 117.666 15.8135 117.666 17.0001C117.666 18.1867 118.045 19.1625 118.8 19.9275Z" stroke="url(#paint14_linear_1421_8819)" stroke-width="0.34" stroke-miterlimit="10"/>
<path d="M128.667 22.1001V11.9001H130.264L135.229 19.834H135.285L135.229 17.8688V11.9001H136.542V22.1001H135.171L129.977 13.7803H129.921L129.977 15.7455V22.1001H128.667Z" stroke="url(#paint15_linear_1421_8819)" stroke-width="0.34" stroke-miterlimit="10"/>
</g>
<g id="Google Play logo">
<path id="Subtract" fill-rule="evenodd" clip-rule="evenodd" d="M44.0191 24.1956L24.4026 12.8361C23.6619 12.3931 22.7973 12.1374 21.8722 12.1374C19.9632 12.1374 18.2844 13.2923 17.4795 14.9068L17.6261 15.0532L35.4017 32.7987L44.0191 24.1956ZM16.9792 16.8096C16.9758 16.8819 16.9741 16.9546 16.9741 17.0276V50.9725C16.9741 51.0454 16.9758 51.118 16.9792 51.1903L34.1986 33.9997L16.9792 16.8096ZM17.4795 53.093C18.2846 54.7075 19.9636 55.8625 21.8722 55.8625C22.7774 55.8625 23.6273 55.6182 24.3561 55.1892L24.414 55.1553L44.0529 43.8373L35.4017 35.2008L17.6261 52.9467L17.4795 53.093ZM45.5784 42.9582L53.5756 38.3493C55.1118 37.5212 56.1546 35.9042 56.1546 34.0395C56.1546 32.1882 55.1258 30.5791 53.6049 29.7483L53.5875 29.7364L45.542 25.0774L36.6048 33.9997L45.5784 42.9582Z" fill="url(#paint16_linear_1421_8819)"/>
</g>
</g>
<defs>
<linearGradient id="paint0_linear_1421_8819" x1="0" y1="34" x2="229.84" y2="34" gradientUnits="userSpaceOnUse">
<stop stop-color="#E2C881"/>
<stop offset="1" stop-color="#8B6F2A"/>
</linearGradient>
<linearGradient id="paint1_linear_1421_8819" x1="69.8752" y1="43.4555" x2="214.208" y2="43.4555" gradientUnits="userSpaceOnUse">
<stop stop-color="#E2C881"/>
<stop offset="1" stop-color="#8B6F2A"/>
</linearGradient>
<linearGradient id="paint2_linear_1421_8819" x1="70.4023" y1="16.9992" x2="136.542" y2="16.9992" gradientUnits="userSpaceOnUse">
<stop stop-color="#E2C881"/>
<stop offset="1" stop-color="#8B6F2A"/>
</linearGradient>
<linearGradient id="paint3_linear_1421_8819" x1="70.4023" y1="16.9992" x2="136.542" y2="16.9992" gradientUnits="userSpaceOnUse">
<stop stop-color="#E2C881"/>
<stop offset="1" stop-color="#8B6F2A"/>
</linearGradient>
<linearGradient id="paint4_linear_1421_8819" x1="70.4023" y1="16.9992" x2="136.542" y2="16.9992" gradientUnits="userSpaceOnUse">
<stop stop-color="#E2C881"/>
<stop offset="1" stop-color="#8B6F2A"/>
</linearGradient>
<linearGradient id="paint5_linear_1421_8819" x1="70.4023" y1="16.9992" x2="136.542" y2="16.9992" gradientUnits="userSpaceOnUse">
<stop stop-color="#E2C881"/>
<stop offset="1" stop-color="#8B6F2A"/>
</linearGradient>
<linearGradient id="paint6_linear_1421_8819" x1="70.4023" y1="16.9992" x2="136.542" y2="16.9992" gradientUnits="userSpaceOnUse">
<stop stop-color="#E2C881"/>
<stop offset="1" stop-color="#8B6F2A"/>
</linearGradient>
<linearGradient id="paint7_linear_1421_8819" x1="70.4023" y1="16.9992" x2="136.542" y2="16.9992" gradientUnits="userSpaceOnUse">
<stop stop-color="#E2C881"/>
<stop offset="1" stop-color="#8B6F2A"/>
</linearGradient>
<linearGradient id="paint8_linear_1421_8819" x1="70.4023" y1="16.9992" x2="136.542" y2="16.9992" gradientUnits="userSpaceOnUse">
<stop stop-color="#E2C881"/>
<stop offset="1" stop-color="#8B6F2A"/>
</linearGradient>
<linearGradient id="paint9_linear_1421_8819" x1="70.4023" y1="16.9992" x2="136.542" y2="16.9992" gradientUnits="userSpaceOnUse">
<stop stop-color="#E2C881"/>
<stop offset="1" stop-color="#8B6F2A"/>
</linearGradient>
<linearGradient id="paint10_linear_1421_8819" x1="70.4023" y1="16.9992" x2="136.542" y2="16.9992" gradientUnits="userSpaceOnUse">
<stop stop-color="#E2C881"/>
<stop offset="1" stop-color="#8B6F2A"/>
</linearGradient>
<linearGradient id="paint11_linear_1421_8819" x1="70.4023" y1="16.9992" x2="136.542" y2="16.9992" gradientUnits="userSpaceOnUse">
<stop stop-color="#E2C881"/>
<stop offset="1" stop-color="#8B6F2A"/>
</linearGradient>
<linearGradient id="paint12_linear_1421_8819" x1="70.4023" y1="16.9992" x2="136.542" y2="16.9992" gradientUnits="userSpaceOnUse">
<stop stop-color="#E2C881"/>
<stop offset="1" stop-color="#8B6F2A"/>
</linearGradient>
<linearGradient id="paint13_linear_1421_8819" x1="70.4023" y1="16.9992" x2="136.542" y2="16.9992" gradientUnits="userSpaceOnUse">
<stop stop-color="#E2C881"/>
<stop offset="1" stop-color="#8B6F2A"/>
</linearGradient>
<linearGradient id="paint14_linear_1421_8819" x1="70.4023" y1="16.9992" x2="136.542" y2="16.9992" gradientUnits="userSpaceOnUse">
<stop stop-color="#E2C881"/>
<stop offset="1" stop-color="#8B6F2A"/>
</linearGradient>
<linearGradient id="paint15_linear_1421_8819" x1="70.4023" y1="16.9992" x2="136.542" y2="16.9992" gradientUnits="userSpaceOnUse">
<stop stop-color="#E2C881"/>
<stop offset="1" stop-color="#8B6F2A"/>
</linearGradient>
<linearGradient id="paint16_linear_1421_8819" x1="16.9741" y1="34" x2="56.1546" y2="34" gradientUnits="userSpaceOnUse">
<stop stop-color="#E2C881"/>
<stop offset="1" stop-color="#8B6F2A"/>
</linearGradient>
</defs>
</svg>
