<svg width="24" height="24" viewBox="0 0 24 24" fill="none" xmlns="http://www.w3.org/2000/svg">
<g id="ranking-stars" clip-path="url(#clip0_2465_12690)">
<path id="Vector" d="M17.8292 7.76205C17.6882 7.76205 17.5472 7.71705 17.4292 7.62905C17.2022 7.45905 17.1082 7.16505 17.1932 6.89505L17.8202 4.88405L16.2352 3.59405C16.0222 3.41305 15.9442 3.11805 16.0412 2.85605C16.1372 2.59405 16.3872 2.41905 16.6672 2.41905H18.6682L19.3762 0.432047C19.4732 0.171047 19.7222 -0.00195312 20.0012 -0.00195312C20.2802 -0.00195312 20.5292 0.171047 20.6262 0.432047L21.3342 2.41905H23.3352C23.6152 2.41905 23.8652 2.59405 23.9612 2.85705C24.0572 3.12005 23.9782 3.41505 23.7642 3.59605L22.1872 4.88105L22.8392 6.86805C22.9282 7.13705 22.8382 7.43305 22.6132 7.60605C22.3882 7.77905 22.0792 7.79105 21.8422 7.63705L20.0062 6.44105L18.2012 7.64905C18.0892 7.72405 17.9582 7.76205 17.8292 7.76205ZM9.82922 10.762C9.68822 10.762 9.54722 10.717 9.42922 10.629C9.20222 10.459 9.10822 10.165 9.19322 9.89505L9.82022 7.88405L8.23522 6.59405C8.02222 6.41305 7.94422 6.11805 8.04122 5.85605C8.13722 5.59405 8.38722 5.41905 8.66722 5.41905H10.6682L11.3762 3.43205C11.4732 3.17105 11.7222 2.99805 12.0012 2.99805C12.2802 2.99805 12.5292 3.17105 12.6262 3.43205L13.3342 5.41905H15.3352C15.6152 5.41905 15.8652 5.59405 15.9612 5.85705C16.0572 6.12005 15.9782 6.41505 15.7642 6.59605L14.1872 7.88105L14.8392 9.86805C14.9282 10.137 14.8382 10.433 14.6132 10.606C14.3882 10.779 14.0792 10.791 13.8422 10.637L12.0062 9.44105L10.2012 10.649C10.0892 10.724 9.95822 10.762 9.82922 10.762ZM1.82922 13.762C1.68822 13.762 1.54722 13.717 1.42922 13.629C1.20222 13.459 1.10822 13.165 1.19322 12.895L1.82022 10.884L0.235219 9.59405C0.022219 9.41305 -0.055781 9.11805 0.041219 8.85605C0.137219 8.59405 0.387219 8.41905 0.667219 8.41905H2.66822L3.37622 6.43205C3.47322 6.17105 3.72222 5.99805 4.00122 5.99805C4.28022 5.99805 4.52922 6.17105 4.62622 6.43205L5.33422 8.41905H7.33522C7.61522 8.41905 7.86522 8.59405 7.96122 8.85705C8.05722 9.12005 7.97822 9.41505 7.76422 9.59605L6.18722 10.881L6.83922 12.868C6.92822 13.137 6.83822 13.433 6.61322 13.606C6.38822 13.779 6.07922 13.791 5.84222 13.637L4.00622 12.441L2.20122 13.649C2.08922 13.724 1.95922 13.762 1.83022 13.762H1.82922ZM21.5002 10H19.5002C18.1192 10 17.0002 11.119 17.0002 12.5V21.5C17.0002 22.881 18.1192 24 19.5002 24H21.5002C22.8812 24 24.0002 22.881 24.0002 21.5V12.5C24.0002 11.119 22.8812 10 21.5002 10ZM4.00022 16H2.50022C1.11922 16 0.000218982 17.119 0.000218982 18.5V21.5C0.000218982 22.881 1.11922 24 2.50022 24H4.00022C5.38122 24 6.50022 22.881 6.50022 21.5V18.5C6.50022 17.119 5.38122 16 4.00022 16ZM12.5002 13H11.0002C9.61922 13 8.50022 14.119 8.50022 15.5V21.5C8.50022 22.881 9.61922 24 11.0002 24H12.5002C13.8812 24 15.0002 22.881 15.0002 21.5V15.5C15.0002 14.119 13.8812 13 12.5002 13Z" fill="url(#paint0_linear_2465_12690)"/>
</g>
<defs>
<linearGradient id="paint0_linear_2465_12690" x1="0" y1="11.999" x2="24.0016" y2="11.999" gradientUnits="userSpaceOnUse">
<stop stop-color="#E2C881"/>
<stop offset="1" stop-color="#8B6F2A"/>
</linearGradient>
<clipPath id="clip0_2465_12690">
<rect width="24" height="24" fill="white"/>
</clipPath>
</defs>
</svg>
