<svg width="33" height="32" viewBox="0 0 33 32" fill="none" xmlns="http://www.w3.org/2000/svg">
<g id="009-sad" clip-path="url(#clip0_2542_15690)">
<g id="Layer 4">
<path id="Vector" d="M16.5 32C25.3366 32 32.5 24.8366 32.5 16C32.5 7.16344 25.3366 0 16.5 0C7.66344 0 0.5 7.16344 0.5 16C0.5 24.8366 7.66344 32 16.5 32Z" fill="#FFE165"/>
<path id="Vector_2" d="M16.4991 29.5421C23.9781 29.5421 30.0411 23.4791 30.0411 16C30.0411 8.52098 23.9781 2.45801 16.4991 2.45801C9.02 2.45801 2.95703 8.52098 2.95703 16C2.95703 23.4791 9.02 29.5421 16.4991 29.5421Z" fill="#FFCA1A"/>
<path id="Vector_3" d="M32.4993 16C32.4993 20.2435 30.8136 24.3131 27.8131 27.3137C24.8125 30.3143 20.7428 32 16.4993 32C16.2347 32 15.9719 31.9938 15.7109 31.9814C19.813 31.7789 23.6801 30.0067 26.5117 27.0318C29.3433 24.0569 30.9226 20.1071 30.9226 16C30.9226 11.8929 29.3433 7.94312 26.5117 4.96822C23.6801 1.99332 19.813 0.22114 15.7109 0.0185507C15.9725 0.00618357 16.2353 0 16.4993 0C20.7428 0 24.8125 1.68571 27.8131 4.68629C30.8136 7.68687 32.4993 11.7565 32.4993 16Z" fill="#FED94D"/>
<path id="Vector_4" d="M30.0414 16C30.0414 19.5916 28.6146 23.0361 26.075 25.5757C23.5354 28.1153 20.0909 29.5421 16.4993 29.5421C16.235 29.5421 15.9716 29.5346 15.7109 29.5189C19.1595 29.3168 22.4004 27.8045 24.7705 25.2914C27.1407 22.7783 28.4608 19.4545 28.4608 16C28.4608 12.5456 27.1407 9.22175 24.7705 6.70866C22.4004 4.19558 19.1595 2.68327 15.7109 2.4812C15.9716 2.46543 16.235 2.45801 16.4993 2.45801C20.0909 2.45801 23.5354 3.88475 26.075 6.42438C28.6146 8.964 30.0414 12.4085 30.0414 16Z" fill="#FEC200"/>
</g>
<g id="Emoticons">
<path id="Vector_5" d="M20.847 10.328C19.8623 10.3276 18.9157 9.94713 18.2045 9.26601C18.1551 9.22495 18.1147 9.17407 18.086 9.1166C18.0573 9.05912 18.0408 8.99631 18.0377 8.93214C18.0345 8.86797 18.0447 8.80385 18.0676 8.74383C18.0906 8.68381 18.1257 8.62921 18.1709 8.58349C18.216 8.53777 18.2701 8.50193 18.3299 8.47824C18.3896 8.45455 18.4536 8.44352 18.5178 8.44586C18.582 8.44821 18.645 8.46386 18.7028 8.49184C18.7607 8.51982 18.8121 8.5595 18.8537 8.60839C19.503 9.25117 20.5678 9.54798 21.4425 9.33187C21.503 9.31221 21.5669 9.30522 21.6303 9.31133C21.6936 9.31744 21.755 9.33652 21.8107 9.36739C21.8663 9.39825 21.915 9.44024 21.9538 9.49074C21.9925 9.54123 22.0204 9.59916 22.0358 9.66091C22.0512 9.72266 22.0537 9.78692 22.0431 9.84968C22.0326 9.91244 22.0093 9.97236 21.9746 10.0257C21.9399 10.0791 21.8946 10.1247 21.8415 10.1598C21.7885 10.1949 21.7287 10.2187 21.666 10.2297C21.398 10.2955 21.123 10.3285 20.847 10.328Z" fill="black"/>
<path id="Vector_6" d="M5.47584 10.328C5.19924 10.3287 4.92359 10.2957 4.65497 10.2297C4.59229 10.2187 4.53256 10.1949 4.47947 10.1598C4.42639 10.1247 4.3811 10.0791 4.34642 10.0257C4.31173 9.97236 4.2884 9.91244 4.27787 9.84968C4.26735 9.78692 4.26985 9.72266 4.28522 9.66091C4.3006 9.59916 4.32851 9.54123 4.36724 9.49074C4.40596 9.44024 4.45467 9.39825 4.51032 9.36739C4.56597 9.33652 4.62738 9.31744 4.69072 9.31133C4.75406 9.30522 4.81798 9.31221 4.87851 9.33187C5.75225 9.54798 6.81798 9.25117 7.46726 8.60839C7.50895 8.5595 7.56034 8.51982 7.61818 8.49184C7.67601 8.46386 7.73903 8.44821 7.80324 8.44586C7.86744 8.44352 7.93143 8.45455 7.99115 8.47824C8.05087 8.50193 8.10501 8.53777 8.15015 8.58349C8.19529 8.62921 8.23044 8.68381 8.25337 8.74383C8.27629 8.80385 8.2865 8.86797 8.28334 8.93214C8.28018 8.99631 8.26372 9.05912 8.235 9.1166C8.20629 9.17407 8.16595 9.22495 8.11654 9.26601C7.40584 9.94677 6.45997 10.3272 5.47584 10.328Z" fill="black"/>
<path id="Vector_7" d="M16.01 23.5259C15.9289 23.5258 15.8493 23.5043 15.779 23.4638C14.5074 22.7292 11.8166 22.7292 10.5449 23.4638C10.4393 23.5169 10.3173 23.5276 10.204 23.4937C10.0907 23.4598 9.99464 23.384 9.93542 23.2816C9.87619 23.1793 9.85829 23.0582 9.88538 22.9431C9.91248 22.828 9.98251 22.7276 10.0812 22.6624C11.6357 21.7645 14.6864 21.7645 16.2409 22.6624C16.3284 22.7139 16.3966 22.7926 16.4351 22.8865C16.4735 22.9805 16.4801 23.0844 16.4538 23.1825C16.4274 23.2805 16.3697 23.3672 16.2894 23.4292C16.209 23.4913 16.1106 23.5252 16.0091 23.5259H16.01Z" fill="black"/>
<path id="path941-4-21-1-4-6-3-67-2-5-73" d="M14.3301 12.453C13.9286 13.1017 13.6831 13.8347 13.6128 14.5944C13.5425 15.3541 13.6494 16.1197 13.925 16.8311C14.2007 17.5425 14.6376 18.1802 15.2014 18.6942C15.7653 19.2082 16.4406 19.5844 17.1744 19.7932C17.9082 20.002 18.6805 20.0377 19.4304 19.8976C20.1804 19.7575 20.8876 19.4453 21.4965 18.9856C22.1054 18.5259 22.5993 17.9312 22.9395 17.2484C23.2797 16.5655 23.4569 15.813 23.4571 15.0501C23.4569 14.8738 23.4473 14.6976 23.4283 14.5223C20.2144 12.8305 16.9031 12.3825 14.3292 12.4548L14.3301 12.453Z" fill="white"/>
<path id="path941-8-5-3-2-52-0-0-5-7-2-2" d="M15.4141 12.4531C14.9445 12.9293 14.6129 13.524 14.4546 14.1737C14.2963 14.8235 14.3173 15.504 14.5153 16.1428C14.7133 16.7816 15.0809 17.3547 15.579 17.801C16.077 18.2474 16.6868 18.5502 17.3434 18.6773C17.9999 18.8044 18.6787 18.751 19.3073 18.5228C19.9359 18.2945 20.4908 17.9 20.9129 17.3813C21.335 16.8625 21.6084 16.239 21.7041 15.5771C21.7997 14.9152 21.714 14.2398 21.456 13.6227C20.2373 13.0978 17.6921 12.4884 15.4141 12.4531Z" fill="black"/>
<path id="Vector_8" d="M15.074 15.0659C15.0047 15.0657 14.9363 15.05 14.8738 15.0199C14.8114 14.9898 14.7565 14.9461 14.7131 14.892C14.6698 14.8379 14.6391 14.7748 14.6234 14.7073C14.6077 14.6398 14.6073 14.5696 14.6223 14.5019C14.7744 13.8276 15.2178 13.1236 15.5591 12.8036C15.65 12.728 15.7663 12.6899 15.8843 12.6972C16.0023 12.7044 16.1131 12.7565 16.194 12.8427C16.2749 12.929 16.3198 13.0428 16.3195 13.1611C16.3193 13.2793 16.2739 13.393 16.1926 13.4788C15.8736 13.8271 15.6447 14.248 15.5257 14.705C15.5024 14.8074 15.445 14.8989 15.3629 14.9644C15.2809 15.03 15.179 15.0657 15.074 15.0659Z" fill="white"/>
<path id="path941-4-21-1-4-6-3-67-2-5-73_2" d="M11.9922 12.453C12.3937 13.1017 12.6392 13.8347 12.7095 14.5944C12.7798 15.3541 12.6729 16.1197 12.3973 16.8311C12.1216 17.5425 11.6847 18.1802 11.1209 18.6942C10.557 19.2082 9.88168 19.5844 9.14788 19.7932C8.41408 20.002 7.64185 20.0377 6.8919 19.8976C6.14195 19.7575 5.43472 19.4453 4.82583 18.9856C4.21694 18.5259 3.72298 17.9312 3.38278 17.2484C3.04258 16.5655 2.86542 15.813 2.86523 15.0501C2.86539 14.8738 2.87499 14.6976 2.89399 14.5223C6.1079 12.8305 9.41921 12.3825 11.9931 12.4548L11.9922 12.453Z" fill="white"/>
<path id="path941-8-5-3-2-52-0-0-5-7-2-2_2" d="M10.9081 12.4531C11.3777 12.9293 11.7093 13.524 11.8675 14.1737C12.0258 14.8235 12.0048 15.504 11.8068 16.1428C11.6088 16.7816 11.2412 17.3547 10.7432 17.801C10.2452 18.2474 9.63538 18.5502 8.9788 18.6773C8.32222 18.8044 7.64346 18.751 7.01484 18.5228C6.38623 18.2945 5.83131 17.9 5.40923 17.3813C4.98715 16.8625 4.71372 16.239 4.61808 15.5771C4.52243 14.9152 4.60816 14.2398 4.86612 13.6227C6.0849 13.0978 8.63006 12.4884 10.9081 12.4531Z" fill="black"/>
<path id="Vector_9" d="M5.43412 14.7199C5.32895 14.719 5.22724 14.6823 5.14567 14.6159C5.06409 14.5495 5.0075 14.4574 4.98518 14.3546C4.96285 14.2518 4.97613 14.1445 5.02281 14.0503C5.0695 13.9561 5.14683 13.8805 5.24212 13.836C5.86542 13.5531 7.06102 13.247 7.40328 13.1737C7.52024 13.1555 7.63973 13.1828 7.73727 13.2498C7.83481 13.3169 7.90302 13.4187 7.92792 13.5344C7.95282 13.6502 7.93253 13.771 7.8712 13.8723C7.80987 13.9735 7.71215 14.0475 7.59806 14.079C7.24652 14.1541 6.14275 14.4444 5.62612 14.6791C5.56576 14.7063 5.5003 14.7202 5.43412 14.7199Z" fill="white"/>
</g>
</g>
<defs>
<clipPath id="clip0_2542_15690">
<rect width="32" height="32" fill="white" transform="translate(0.5)"/>
</clipPath>
</defs>
</svg>
