<svg width="24" height="25" viewBox="0 0 24 25" fill="none" xmlns="http://www.w3.org/2000/svg">
<g clip-path="url(#clip0_84_2377)">
<path d="M23.7198 22.8002L17.7594 16.8398C21.2558 12.5636 20.6237 6.26253 16.3474 2.76613C12.0711 -0.730281 5.77015 -0.098218 2.27369 4.17805C-1.22276 8.45431 -0.590602 14.7553 3.68566 18.2518C7.36901 21.2635 12.6641 21.2635 16.3474 18.2518L22.3078 24.2122C22.7045 24.5953 23.3367 24.5843 23.7198 24.1876C24.0935 23.8007 24.0935 23.1872 23.7198 22.8002ZM2.04401 10.5249C2.04401 6.113 5.62057 2.53644 10.0325 2.53644C14.4444 2.53644 18.021 6.113 18.021 10.5249C18.021 14.9368 14.4444 18.5134 10.0325 18.5134C5.62263 18.5084 2.04898 14.9348 2.04401 10.5249ZM12.0296 6.53066C11.2837 6.53403 10.5679 6.82602 10.0325 7.34548C9.49713 6.82606 8.7814 6.53403 8.03543 6.53066C6.32763 6.58981 4.98869 8.018 5.03974 9.72603C5.03974 11.7231 7.07782 13.7832 8.78833 15.1582C9.51644 15.7381 10.5486 15.7381 11.2767 15.1582C12.9873 13.7832 15.0253 11.7231 15.0253 9.72603C15.0763 8.018 13.7374 6.58981 12.0296 6.53066ZM10.0385 13.6005C8.18716 12.1126 7.0368 10.6248 7.0368 9.72608C6.98698 9.12111 7.4313 8.58786 8.03538 8.52781C8.63941 8.58786 9.08379 9.12111 9.03396 9.72608C9.03396 10.2776 9.48101 10.7247 10.0325 10.7247C10.584 10.7247 11.0311 10.2776 11.0311 9.72608C10.9813 9.12111 11.4256 8.58786 12.0297 8.52781C12.6337 8.58786 13.0781 9.12111 13.0283 9.72608C13.0282 10.6248 11.8779 12.1126 10.0385 13.6005Z" fill="url(#paint0_linear_84_2377)"/>
</g>
<defs>
<linearGradient id="paint0_linear_84_2377" x1="0.0146484" y1="12.4998" x2="24.0001" y2="12.4998" gradientUnits="userSpaceOnUse">
<stop stop-color="#E2C881"/>
<stop offset="1" stop-color="#8B6F2A"/>
</linearGradient>
<clipPath id="clip0_84_2377">
<rect width="24" height="24" fill="white" transform="translate(0 0.5)"/>
</clipPath>
</defs>
</svg>
