<svg width="32" height="32" viewBox="0 0 32 32" fill="none" xmlns="http://www.w3.org/2000/svg">
<g clip-path="url(#clip0_1521_11388)">
<path fill-rule="evenodd" clip-rule="evenodd" d="M20.7897 29.4879H13.0475C13.1599 29.1317 13.1974 28.7568 13.1974 28.3819C13.1974 26.1511 11.3978 24.3514 9.16696 24.3514C6.95489 24.3514 5.1365 26.1511 5.1365 28.3819C5.1365 28.7568 5.19274 29.1317 5.28647 29.4879H3.0744C2.68073 29.4879 2.34329 29.1505 2.34329 28.7381V15.2594C2.34329 14.5096 2.96192 13.891 3.71178 13.891H8.6983V22.0081C8.6983 22.1581 8.77329 22.2893 8.92326 22.3456C8.96075 22.3643 9.01699 22.383 9.05448 22.383C9.14821 22.383 9.24195 22.3456 9.31693 22.2893L11.9414 19.8898L14.5659 22.2893C14.6784 22.383 14.8284 22.4018 14.9596 22.3456C15.0908 22.2893 15.1845 22.1581 15.1845 22.0081V13.891H20.1711C20.9209 13.891 21.5395 14.5096 21.5395 15.2594V28.7381C21.5395 29.1505 21.2021 29.4879 20.7897 29.4879ZM16.6467 12.6537C16.4405 12.335 16.1781 11.9413 15.8781 11.4914C14.0972 8.84819 12.635 6.54239 12.635 5.04268C12.635 2.43694 14.7721 0.318604 17.3779 0.318604C19.9836 0.318604 22.1207 2.43694 22.1207 5.04268C22.1207 6.54239 20.6397 8.84819 18.8776 11.4914C18.5776 11.9413 18.3152 12.335 18.109 12.6537V13.1598H16.6467V12.6537ZM17.3779 6.89857C18.4089 6.89857 19.2337 6.07373 19.2337 5.04268C19.2337 4.03038 18.4089 3.18679 17.3779 3.18679C16.3468 3.18679 15.522 4.03038 15.522 5.04268C15.522 6.07373 16.3468 6.89857 17.3779 6.89857ZM9.16696 31.6812C7.34856 31.6812 5.8676 30.2003 5.8676 28.3819C5.8676 26.5635 7.34856 25.0825 9.16696 25.0825C10.9854 25.0825 12.4663 26.5635 12.4663 28.3819C12.4663 30.2003 10.9854 31.6812 9.16696 31.6812ZM27.1072 31.6812C25.2888 31.6812 23.8078 30.2003 23.8078 28.3819C23.8078 26.5635 25.2888 25.0825 27.1072 25.0825C28.9256 25.0825 30.4066 26.5635 30.4066 28.3819C30.4066 30.2003 28.9256 31.6812 27.1072 31.6812ZM31.2501 29.4879H30.9877C31.0814 29.1317 31.1377 28.7568 31.1377 28.3819C31.1377 26.1511 29.338 24.3514 27.1072 24.3514C24.8764 24.3514 23.0767 26.1511 23.0767 28.3819C23.0767 28.7568 23.133 29.1317 23.2267 29.4879H22.6268C22.4581 29.4879 22.2894 29.4129 22.1582 29.3004C22.2332 29.1317 22.2707 28.9443 22.2707 28.7381V21.8956C22.3831 21.8207 22.4956 21.7832 22.6268 21.7832H28.3257L27.6134 19.5149H22.6268C22.4956 19.5149 22.3831 19.4774 22.2707 19.4211V15.9156C22.3831 15.8593 22.4956 15.8218 22.6268 15.8218H28.157C29.1693 15.8218 29.9941 16.6467 29.9941 17.659V18.2963C29.9941 18.84 29.638 19.3086 29.1318 19.4586L29.8817 21.8019C31.0627 21.9331 32 22.9267 32 24.1452V28.7381C32 29.1505 31.6626 29.4879 31.2501 29.4879ZM1.79965 29.4879H1.7809C0.787346 29.4879 0 28.6818 0 27.707C0 26.7884 0.712361 26.0198 1.61219 25.9448V28.7381C1.61219 29.0192 1.68717 29.263 1.79965 29.4879ZM9.42941 13.891H14.4534V21.1833L12.1851 19.1212C12.0539 18.99 11.8289 18.99 11.6977 19.1212L9.42941 21.1833V13.891Z" fill="url(#paint0_linear_1521_11388)"/>
</g>
<defs>
<linearGradient id="paint0_linear_1521_11388" x1="0" y1="15.9999" x2="32" y2="15.9999" gradientUnits="userSpaceOnUse">
<stop stop-color="#E2C881"/>
<stop offset="1" stop-color="#8B6F2A"/>
</linearGradient>
<clipPath id="clip0_1521_11388">
<rect width="32" height="32" fill="white"/>
</clipPath>
</defs>
</svg>
