<svg width="16" height="16" viewBox="0 0 16 16" fill="none" xmlns="http://www.w3.org/2000/svg">
<g id="fi-rr-shop" clip-path="url(#clip0_2308_13143)">
<path id="Vector" d="M16 6.66685C16 6.61818 15.9947 6.56966 15.984 6.52218L15.1173 2.61018C14.9563 1.86767 14.5449 1.2031 13.9521 0.727899C13.3593 0.252699 12.6211 -0.00423552 11.8613 0.000177996H4.13867C3.37937 -0.00362221 2.64182 0.253592 2.04955 0.728742C1.45728 1.20389 1.04627 1.86812 0.885334 2.61018L0.0160009 6.52218C0.00533965 6.56966 -2.64399e-05 6.61818 9.12932e-07 6.66685V7.33351C-0.000536959 7.98257 0.236615 8.60937 0.666668 9.09551V12.6668C0.667726 13.5506 1.01926 14.3978 1.64415 15.0227C2.26904 15.6476 3.11627 15.9991 4 16.0002H12C12.8837 15.9991 13.731 15.6476 14.3559 15.0227C14.9807 14.3978 15.3323 13.5506 15.3333 12.6668V9.09551C15.7634 8.60937 16.0005 7.98257 16 7.33351V6.66685ZM1.33333 6.73951L2.18667 2.89951C2.28336 2.45435 2.53001 2.05589 2.88534 1.77083C3.24067 1.48576 3.68313 1.33138 4.13867 1.33351H4.66667V3.33351C4.66667 3.51032 4.73691 3.67989 4.86193 3.80492C4.98695 3.92994 5.15652 4.00018 5.33333 4.00018C5.51015 4.00018 5.67971 3.92994 5.80474 3.80492C5.92976 3.67989 6 3.51032 6 3.33351V1.33351H10V3.33351C10 3.51032 10.0702 3.67989 10.1953 3.80492C10.3203 3.92994 10.4899 4.00018 10.6667 4.00018C10.8435 4.00018 11.013 3.92994 11.1381 3.80492C11.2631 3.67989 11.3333 3.51032 11.3333 3.33351V1.33351H11.8613C12.3169 1.33138 12.7593 1.48576 13.1147 1.77083C13.47 2.05589 13.7166 2.45435 13.8133 2.89951L14.6667 6.73951V7.33351C14.6667 7.68713 14.5262 8.02627 14.2761 8.27632C14.0261 8.52637 13.687 8.66685 13.3333 8.66685H12.6667C12.313 8.66685 11.9739 8.52637 11.7239 8.27632C11.4738 8.02627 11.3333 7.68713 11.3333 7.33351C11.3333 7.1567 11.2631 6.98713 11.1381 6.86211C11.013 6.73708 10.8435 6.66685 10.6667 6.66685C10.4899 6.66685 10.3203 6.73708 10.1953 6.86211C10.0702 6.98713 10 7.1567 10 7.33351C10 7.68713 9.85952 8.02627 9.60948 8.27632C9.35943 8.52637 9.02029 8.66685 8.66667 8.66685H7.33333C6.97971 8.66685 6.64057 8.52637 6.39053 8.27632C6.14048 8.02627 6 7.68713 6 7.33351C6 7.1567 5.92976 6.98713 5.80474 6.86211C5.67971 6.73708 5.51015 6.66685 5.33333 6.66685C5.15652 6.66685 4.98695 6.73708 4.86193 6.86211C4.73691 6.98713 4.66667 7.1567 4.66667 7.33351C4.66667 7.68713 4.52619 8.02627 4.27614 8.27632C4.02609 8.52637 3.68696 8.66685 3.33333 8.66685H2.66667C2.31305 8.66685 1.97391 8.52637 1.72386 8.27632C1.47381 8.02627 1.33333 7.68713 1.33333 7.33351V6.73951ZM12 14.6668H4C3.46957 14.6668 2.96086 14.4561 2.58579 14.0811C2.21071 13.706 2 13.1973 2 12.6668V9.91551C2.21773 9.97189 2.44175 10.0003 2.66667 10.0002H3.33333C3.71188 10.0004 4.0861 9.91978 4.431 9.76377C4.7759 9.60776 5.08353 9.37993 5.33333 9.09551C5.58313 9.37993 5.89076 9.60776 6.23566 9.76377C6.58056 9.91978 6.95479 10.0004 7.33333 10.0002H8.66667C9.04521 10.0004 9.41944 9.91978 9.76434 9.76377C10.1092 9.60776 10.4169 9.37993 10.6667 9.09551C10.9165 9.37993 11.2241 9.60776 11.569 9.76377C11.9139 9.91978 12.2881 10.0004 12.6667 10.0002H13.3333C13.5582 10.0003 13.7823 9.97189 14 9.91551V12.6668C14 13.1973 13.7893 13.706 13.4142 14.0811C13.0391 14.4561 12.5304 14.6668 12 14.6668Z" fill="#A7A7A7"/>
</g>
<defs>
<clipPath id="clip0_2308_13143">
<rect width="16" height="16" fill="white"/>
</clipPath>
</defs>
</svg>
