<svg width="31" height="31" viewBox="0 0 31 31" fill="none" xmlns="http://www.w3.org/2000/svg">
<g id="shop-bag 1" clip-path="url(#clip0_540_513)">
<path id="Vector" d="M3.4389 7.22428L1.59411 24.1355C1.38054 26.0931 2.91384 27.8026 4.8828 27.8026H20.862C22.8311 27.8026 24.3642 26.0931 24.1506 24.1355L22.3059 7.22428C22.2309 6.53793 21.6514 6.01831 20.9613 6.01831H4.7837C4.09332 6.01831 3.51387 6.53793 3.4389 7.22428Z" fill="#ED5176"/>
<path id="Vector_2" d="M24.1507 24.1355L22.3059 7.22428C22.231 6.53793 21.6515 6.01831 20.9614 6.01831H19.3938C20.0839 6.01831 20.6634 6.53793 20.7383 7.22428L22.5831 24.1355C22.7967 26.0931 21.2636 27.8026 19.2944 27.8026H20.862C22.8312 27.8026 24.3643 26.0931 24.1507 24.1355Z" fill="#BA365F"/>
<path id="Vector_3" d="M1.57495 24.5229C1.58725 26.3131 3.04487 27.8026 4.88279 27.8026H20.8619C22.6999 27.8026 24.1575 26.3131 24.17 24.5229H1.57495Z" fill="#FF76A4"/>
<path id="Vector_4" d="M22.6025 24.5229C22.59 26.3131 21.1324 27.8026 19.2944 27.8026H20.862H20.8639C20.9228 27.8026 20.9812 27.8008 21.0394 27.7979C21.0593 27.7967 21.0789 27.7948 21.0985 27.7934C21.1373 27.7906 21.1759 27.788 21.2142 27.784C21.2376 27.7814 21.2605 27.7781 21.2837 27.775C21.318 27.7707 21.3523 27.7665 21.3861 27.761C21.4107 27.7572 21.4349 27.7525 21.4592 27.748C21.4914 27.7421 21.5233 27.7364 21.555 27.7296C21.5798 27.7244 21.6047 27.7184 21.6293 27.7125C21.66 27.7052 21.6905 27.6979 21.7208 27.6898C21.7456 27.6832 21.7702 27.6759 21.7948 27.6685C21.8244 27.66 21.8537 27.6513 21.8828 27.6418C21.9076 27.6338 21.9322 27.6253 21.9568 27.6167C21.985 27.6068 22.0131 27.5966 22.041 27.586C22.0656 27.5765 22.09 27.5668 22.1144 27.5569C22.1416 27.5458 22.1685 27.5344 22.1952 27.5226C22.2196 27.5117 22.2437 27.5011 22.2676 27.4897C22.2939 27.4774 22.3196 27.4647 22.3454 27.4517C22.3693 27.4396 22.3932 27.4275 22.4169 27.415C22.4417 27.4018 22.4663 27.3878 22.4909 27.3739C22.5143 27.3606 22.5379 27.3474 22.5611 27.3334C22.5848 27.319 22.6082 27.3043 22.6314 27.2894C22.6545 27.2748 22.678 27.2601 22.7009 27.2447C22.7229 27.2301 22.7444 27.2144 22.7662 27.1991C22.7896 27.1828 22.813 27.1667 22.8357 27.1496C22.8556 27.1347 22.8745 27.1194 22.8941 27.104C22.918 27.0855 22.9419 27.0673 22.9651 27.0482C22.9779 27.0375 22.9902 27.0264 23.0027 27.0155C23.0661 26.9616 23.1278 26.9058 23.1869 26.8471C23.1914 26.8426 23.1964 26.8384 23.2011 26.8337C23.2271 26.8076 23.2522 26.7804 23.2773 26.7535C23.2893 26.7409 23.3014 26.7287 23.313 26.7156C23.3366 26.6896 23.3593 26.6629 23.3821 26.6362C23.3944 26.6215 23.4071 26.6073 23.4192 26.5927C23.4412 26.5657 23.4622 26.5383 23.4835 26.5108C23.4953 26.4955 23.5074 26.4801 23.519 26.4647C23.5396 26.4368 23.5594 26.4084 23.5793 26.38C23.5904 26.364 23.6015 26.3481 23.6124 26.3318C23.6318 26.3029 23.6505 26.2736 23.6689 26.244C23.6791 26.2277 23.6893 26.2114 23.6992 26.1948C23.7174 26.1648 23.7349 26.1341 23.7522 26.1033C23.7612 26.087 23.7704 26.0704 23.7792 26.0539C23.7962 26.0224 23.8125 25.9905 23.8286 25.9583C23.8366 25.9423 23.8444 25.9257 23.8522 25.9094C23.8678 25.8763 23.8832 25.8429 23.8976 25.8093C23.9045 25.7937 23.9111 25.7776 23.9178 25.7618C23.9322 25.727 23.9464 25.692 23.9596 25.6565C23.9653 25.6419 23.9705 25.627 23.9757 25.6121C23.9892 25.575 24.0022 25.5378 24.014 25.5002C24.0183 25.4874 24.0218 25.4742 24.0258 25.4612C24.0381 25.4212 24.05 25.3812 24.0608 25.3406C24.0632 25.3313 24.0653 25.3221 24.0677 25.3127C24.0791 25.268 24.0899 25.2233 24.0994 25.1781C24.0994 25.1778 24.0996 25.1778 24.0996 25.1776C24.1441 24.9657 24.1682 24.7467 24.1699 24.5229H22.6025Z" fill="#ED5176"/>
<path id="Vector_5" d="M29.4109 21.7517L29.1962 16.4529C29.1657 15.7029 28.5647 15.1019 27.8147 15.0714L22.5159 14.8567C22.1139 14.8403 21.7231 14.9929 21.4386 15.2774L13.7272 22.9888C13.1144 23.6016 13.1144 24.5955 13.7272 25.2083L19.0591 30.5402C19.6721 31.1532 20.6657 31.1532 21.2785 30.5402L28.9902 22.8287C29.2747 22.5442 29.4273 22.1537 29.4109 21.7517ZM25.5719 18.6957C25.1864 18.3102 25.1864 17.6853 25.5719 17.2998C25.9572 16.9145 26.582 16.9145 26.9675 17.2998C27.3531 17.6853 27.3531 18.3102 26.9675 18.6957C26.582 19.0812 25.9572 19.0812 25.5719 18.6957Z" fill="#FFCD34"/>
<path id="Vector_6" d="M29.4108 21.7516L29.1961 16.4528C29.175 15.9325 28.8787 15.4841 28.4489 15.248C28.5326 15.4172 28.5762 15.6127 28.5688 15.8256L28.3964 20.7372C28.3834 21.11 28.2141 21.4839 27.9295 21.7684L20.2181 29.4799C19.6053 30.0927 18.6813 30.1627 18.1545 29.6357L19.0592 30.5404C19.672 31.1532 20.6656 31.1532 21.2786 30.5404L28.9901 22.8289C29.2746 22.5442 29.4271 22.1537 29.4108 21.7516Z" fill="#E69012"/>
<g id="Group">
<path id="Vector_7" d="M17.297 8.4723C17.0499 8.4723 16.8495 8.27197 16.8495 8.02482V4.87213C16.8495 2.6792 15.0653 0.895194 12.8724 0.895194C10.6794 0.895194 8.8952 2.6792 8.8952 4.87213V8.02482C8.8952 8.27197 8.69488 8.4723 8.44772 8.4723C8.20057 8.4723 8.00024 8.27197 8.00024 8.02482V4.87213C8.00024 2.1856 10.1858 0 12.8724 0C15.5589 0 17.7445 2.1856 17.7445 4.87213V8.02482C17.7445 8.27197 17.5442 8.4723 17.297 8.4723Z" fill="#252D4C"/>
<path id="Vector_8" d="M19.9095 22.2733C19.0337 22.2733 18.3213 21.5609 18.3213 20.6851C18.3213 19.8095 19.0337 19.0969 19.9095 19.0969C20.785 19.0969 21.4976 19.8095 21.4976 20.6851C21.4976 21.5609 20.7853 22.2733 19.9095 22.2733ZM19.9095 19.9921C19.5273 19.9921 19.2162 20.3029 19.2162 20.6851C19.2162 21.0673 19.5273 21.3783 19.9095 21.3783C20.2917 21.3783 20.6024 21.0673 20.6024 20.6851C20.6024 20.3029 20.2917 19.9921 19.9095 19.9921Z" fill="#252D4C"/>
<path id="Vector_9" d="M22.77 26.7584C21.8942 26.7584 21.1816 26.046 21.1816 25.1702C21.1816 24.2946 21.8942 23.582 22.77 23.582C23.6456 23.582 24.3582 24.2946 24.3582 25.1702C24.3582 26.046 23.6456 26.7584 22.77 26.7584ZM22.77 24.4772C22.3878 24.4772 22.0768 24.7882 22.0768 25.1704C22.0768 25.5524 22.3878 25.8634 22.77 25.8634C23.1523 25.8634 23.463 25.5524 23.463 25.1704C23.463 24.788 23.1523 24.4772 22.77 24.4772Z" fill="#252D4C"/>
<path id="Vector_10" d="M18.9888 25.7262C18.8743 25.7262 18.7596 25.6825 18.6723 25.595C18.4976 25.4204 18.4976 25.1369 18.6723 24.9621L23.3742 20.2602C23.549 20.0855 23.8323 20.0855 24.0071 20.2602C24.1819 20.435 24.1819 20.7184 24.0071 20.8931L19.3052 25.595C19.218 25.6825 19.1033 25.7262 18.9888 25.7262Z" fill="#252D4C"/>
</g>
</g>
<defs>
<clipPath id="clip0_540_513">
<rect width="31" height="31" fill="white"/>
</clipPath>
</defs>
</svg>
