<svg width="16" height="17" viewBox="0 0 16 17" fill="none" xmlns="http://www.w3.org/2000/svg">
<g clip-path="url(#clip0_1823_9164)">
<path d="M15.9773 15.6606C16.0733 16.0166 15.862 16.3819 15.506 16.4773C15.448 16.4926 15.39 16.5006 15.3327 16.5006C15.0387 16.5006 14.7693 16.3039 14.6893 16.0066C14.452 15.1199 13.62 14.5006 12.6667 14.5006C11.7133 14.5006 10.8813 15.1199 10.644 16.0066C10.548 16.3619 10.1827 16.5733 9.82733 16.4779C9.47133 16.3826 9.26 16.0173 9.356 15.6613C9.75 14.1926 11.1113 13.1673 12.6667 13.1673C14.222 13.1673 15.5833 14.1926 15.9773 15.6613V15.6606ZM12.6667 9.1666C11.7473 9.1666 11 9.91393 11 10.8333C11 11.7526 11.7473 12.4999 12.6667 12.4999C13.586 12.4999 14.3333 11.7526 14.3333 10.8333C14.3333 9.91393 13.586 9.1666 12.6667 9.1666ZM2.66667 10.4999H3.33333C4.13333 10.4999 4.844 10.1386 5.33333 9.5786C5.82267 10.1386 6.53333 10.4999 7.33333 10.4999H8.66667C8.972 10.4999 9.27133 10.4486 9.556 10.3473C9.90333 10.2239 10.0847 9.84327 9.96133 9.49594C9.83733 9.1486 9.456 8.9686 9.11067 9.0906C8.96933 9.1406 8.81933 9.16593 8.66667 9.16593H7.33333C6.598 9.16593 6 8.56793 6 7.8326C6 7.4646 5.70133 7.16593 5.33333 7.16593C4.96533 7.16593 4.66667 7.4646 4.66667 7.8326C4.66667 8.56793 4.06867 9.16593 3.33333 9.16593H2.66667C1.948 9.16593 1.36067 8.5946 1.334 7.88193L2.098 3.24927C2.35333 2.41393 3.13467 1.8326 4.01133 1.8326H4.66667V3.8326C4.66667 4.2006 4.96533 4.49927 5.33333 4.49927C5.70133 4.49927 6 4.2006 6 3.8326V1.8326H10V3.8326C10 4.2006 10.298 4.49927 10.6667 4.49927C11.0353 4.49927 11.3333 4.2006 11.3333 3.8326V1.8326H11.988C12.864 1.8326 13.646 2.41327 13.9013 3.24927L14.6653 7.88193C14.66 8.01727 14.6347 8.14993 14.59 8.27727C14.4673 8.6246 14.65 9.00527 14.9967 9.12794C15.3447 9.25127 15.7247 9.0686 15.8473 8.72127C15.9473 8.43593 15.9993 8.1366 15.9993 7.8326C15.9993 7.79593 15.2 2.94127 15.1927 2.9166C14.786 1.49327 13.4673 0.499268 11.9873 0.499268H4.01133C2.53133 0.499934 1.21333 1.49393 0.806 2.91727C0.798667 2.94193 0 7.7966 0 7.83327C0 8.50327 0.256667 9.10927 0.666667 9.5786V13.8333C0.666667 15.3039 1.86267 16.4999 3.33333 16.4999H7.33333C7.70133 16.4999 8 16.2013 8 15.8333C8 15.4653 7.70133 15.1666 7.33333 15.1666H3.33333C2.598 15.1666 2 14.5686 2 13.8333V10.4053C2.21467 10.4613 2.43533 10.4999 2.66667 10.4999Z" fill="url(#paint0_linear_1823_9164)"/>
</g>
<defs>
<linearGradient id="paint0_linear_1823_9164" x1="0" y1="8.50004" x2="16.0005" y2="8.50004" gradientUnits="userSpaceOnUse">
<stop stop-color="#E2C881"/>
<stop offset="1" stop-color="#8B6F2A"/>
</linearGradient>
<clipPath id="clip0_1823_9164">
<rect width="16" height="16" fill="white" transform="translate(0 0.5)"/>
</clipPath>
</defs>
</svg>
