<svg width="24" height="25" viewBox="0 0 24 25" fill="none" xmlns="http://www.w3.org/2000/svg">
<g clip-path="url(#clip0_531_153)">
<path d="M22.9997 11.5005H20.9997V9.50049C20.9997 9.23527 20.8944 8.98092 20.7069 8.79338C20.5193 8.60585 20.265 8.50049 19.9997 8.50049C19.7345 8.50049 19.4802 8.60585 19.2926 8.79338C19.1051 8.98092 18.9998 9.23527 18.9998 9.50049V11.5005H16.9998C16.7345 11.5005 16.4802 11.6058 16.2926 11.7934C16.1051 11.9809 15.9998 12.2353 15.9998 12.5005C15.9998 12.7657 16.1051 13.0201 16.2926 13.2076C16.4802 13.3951 16.7345 13.5005 16.9998 13.5005H18.9998V15.5005C18.9998 15.7657 19.1051 16.02 19.2926 16.2076C19.4802 16.3951 19.7345 16.5005 19.9997 16.5005C20.265 16.5005 20.5193 16.3951 20.7069 16.2076C20.8944 16.02 20.9997 15.7657 20.9997 15.5005V13.5005H22.9997C23.265 13.5005 23.5193 13.3951 23.7068 13.2076C23.8944 13.0201 23.9997 12.7657 23.9997 12.5005C23.9997 12.2353 23.8944 11.9809 23.7068 11.7934C23.5193 11.6058 23.265 11.5005 22.9997 11.5005Z" fill="url(#paint0_linear_531_153)"/>
<path d="M9 12.5C10.1867 12.5 11.3467 12.1481 12.3334 11.4888C13.3201 10.8295 14.0892 9.89246 14.5433 8.7961C14.9974 7.69975 15.1162 6.49335 14.8847 5.32946C14.6532 4.16558 14.0818 3.09648 13.2426 2.25736C12.4035 1.41825 11.3344 0.846802 10.1705 0.615291C9.00666 0.38378 7.80026 0.5026 6.7039 0.956726C5.60754 1.41085 4.67047 2.17989 4.01118 3.16658C3.35189 4.15328 3 5.31331 3 6.5C3.00159 8.09081 3.63424 9.61602 4.75911 10.7409C5.88399 11.8658 7.40919 12.4984 9 12.5ZM9 2.5C9.79113 2.5 10.5645 2.7346 11.2223 3.17412C11.8801 3.61365 12.3928 4.23836 12.6955 4.96927C12.9983 5.70017 13.0775 6.50444 12.9231 7.28036C12.7688 8.05629 12.3878 8.76902 11.8284 9.32843C11.269 9.88784 10.5563 10.2688 9.78036 10.4231C9.00444 10.5775 8.20017 10.4983 7.46927 10.1955C6.73836 9.89277 6.11365 9.38008 5.67412 8.72228C5.2346 8.06449 5 7.29113 5 6.5C5 5.43914 5.42143 4.42172 6.17157 3.67158C6.92172 2.92143 7.93913 2.5 9 2.5Z" fill="url(#paint1_linear_531_153)"/>
<path d="M9 14.5005C6.61386 14.5031 4.32622 15.4522 2.63896 17.1395C0.951708 18.8267 0.00264685 21.1144 0 23.5005C0 23.7657 0.105357 24.0201 0.292893 24.2076C0.48043 24.3951 0.734784 24.5005 1 24.5005C1.26522 24.5005 1.51957 24.3951 1.70711 24.2076C1.89464 24.0201 2 23.7657 2 23.5005C2 21.644 2.7375 19.8635 4.05025 18.5507C5.36301 17.238 7.14348 16.5005 9 16.5005C10.8565 16.5005 12.637 17.238 13.9497 18.5507C15.2625 19.8635 16 21.644 16 23.5005C16 23.7657 16.1054 24.0201 16.2929 24.2076C16.4804 24.3951 16.7348 24.5005 17 24.5005C17.2652 24.5005 17.5196 24.3951 17.7071 24.2076C17.8946 24.0201 18 23.7657 18 23.5005C17.9974 21.1144 17.0483 18.8267 15.361 17.1395C13.6738 15.4522 11.3861 14.5031 9 14.5005Z" fill="url(#paint2_linear_531_153)"/>
</g>
<defs>
<linearGradient id="paint0_linear_531_153" x1="15.9998" y1="12.5005" x2="23.9997" y2="12.5005" gradientUnits="userSpaceOnUse">
<stop stop-color="#E2C881"/>
<stop offset="1" stop-color="#8B6F2A"/>
</linearGradient>
<linearGradient id="paint1_linear_531_153" x1="3" y1="6.5" x2="15" y2="6.5" gradientUnits="userSpaceOnUse">
<stop stop-color="#E2C881"/>
<stop offset="1" stop-color="#8B6F2A"/>
</linearGradient>
<linearGradient id="paint2_linear_531_153" x1="0" y1="19.5005" x2="18" y2="19.5005" gradientUnits="userSpaceOnUse">
<stop stop-color="#E2C881"/>
<stop offset="1" stop-color="#8B6F2A"/>
</linearGradient>
<clipPath id="clip0_531_153">
<rect width="24" height="24" fill="white" transform="translate(0 0.5)"/>
</clipPath>
</defs>
</svg>
