<svg width="24" height="25" viewBox="0 0 24 25" fill="none" xmlns="http://www.w3.org/2000/svg">
<circle cx="12" cy="12.5" r="12" fill="#212640"/>
<g clip-path="url(#clip0_2308_13152)">
<path d="M12 12C12.5933 12 13.1734 11.8241 13.6667 11.4944C14.1601 11.1648 14.5446 10.6962 14.7716 10.1481C14.9987 9.59987 15.0581 8.99667 14.9424 8.41473C14.8266 7.83279 14.5409 7.29824 14.1213 6.87868C13.7018 6.45912 13.1672 6.1734 12.5853 6.05765C12.0033 5.94189 11.4001 6.0013 10.8519 6.22836C10.3038 6.45543 9.83524 6.83994 9.50559 7.33329C9.17595 7.82664 9 8.40666 9 9C9.00079 9.79541 9.31712 10.558 9.87956 11.1204C10.442 11.6829 11.2046 11.9992 12 12ZM12 7C12.3956 7 12.7822 7.1173 13.1111 7.33706C13.44 7.55682 13.6964 7.86918 13.8478 8.23463C13.9991 8.60009 14.0387 9.00222 13.9616 9.39018C13.8844 9.77814 13.6939 10.1345 13.4142 10.4142C13.1345 10.6939 12.7781 10.8844 12.3902 10.9616C12.0022 11.0387 11.6001 10.9991 11.2346 10.8478C10.8692 10.6964 10.5568 10.44 10.3371 10.1111C10.1173 9.78224 10 9.39556 10 9C10 8.46957 10.2107 7.96086 10.5858 7.58579C10.9609 7.21072 11.4696 7 12 7Z" fill="white"/>
<path d="M12 13.0002C10.8069 13.0016 9.66311 13.4761 8.81948 14.3197C7.97585 15.1634 7.50132 16.3072 7.5 17.5002C7.5 17.6329 7.55268 17.76 7.64645 17.8538C7.74021 17.9476 7.86739 18.0002 8 18.0002C8.13261 18.0002 8.25979 17.9476 8.35355 17.8538C8.44732 17.76 8.5 17.6329 8.5 17.5002C8.5 16.572 8.86875 15.6817 9.52513 15.0254C10.1815 14.369 11.0717 14.0002 12 14.0002C12.9283 14.0002 13.8185 14.369 14.4749 15.0254C15.1313 15.6817 15.5 16.572 15.5 17.5002C15.5 17.6329 15.5527 17.76 15.6464 17.8538C15.7402 17.9476 15.8674 18.0002 16 18.0002C16.1326 18.0002 16.2598 17.9476 16.3536 17.8538C16.4473 17.76 16.5 17.6329 16.5 17.5002C16.4987 16.3072 16.0241 15.1634 15.1805 14.3197C14.3369 13.4761 13.1931 13.0016 12 13.0002Z" fill="white"/>
</g>
<defs>
<clipPath id="clip0_2308_13152">
<rect width="12" height="12" fill="white" transform="translate(6 6)"/>
</clipPath>
</defs>
</svg>
